<svg width="611" height="382" viewBox="0 0 611 382" fill="none" xmlns="http://www.w3.org/2000/svg">
<path d="M228.056 364.097C220.925 353.135 207.488 344.001 191.308 338.886C174.991 333.77 138.655 336.145 138.655 336.145L43.2217 336.054C45.1413 341.626 51.4487 355.967 55.9736 360.808C60.6356 365.649 67.4914 369.668 75.7184 371.221C85.8651 373.14 96.5603 371.13 107.118 370.673C125.629 369.851 143.729 373.87 161.554 377.25C179.379 380.63 198.301 383.553 216.264 380.721C221.337 379.899 226.684 378.346 229.29 375.24C232.032 371.952 230.387 367.659 228.056 364.097Z" fill="black" fill-opacity="0.12"/>
<path d="M532.093 159.408L450.77 177.972L463.3 232.739L544.624 214.175L532.093 159.408Z" fill="#F5F5F5"/>
<path d="M532.522 159.943C532.522 159.943 532.339 160.309 531.973 160.857C531.515 161.496 530.875 162.318 530.143 163.323C528.497 165.515 526.21 168.621 523.375 172.457C517.521 180.13 509.563 190.726 500.691 202.418L500.508 202.692L500.234 202.601C500.051 202.51 499.776 202.418 499.593 202.236C486.239 195.75 474.166 189.904 465.293 185.611C460.994 183.51 457.427 181.775 454.957 180.496C453.768 179.948 452.854 179.4 452.122 179.034C451.482 178.669 451.116 178.486 451.207 178.486C451.207 178.486 451.573 178.577 452.213 178.852C452.945 179.217 453.86 179.582 455.049 180.13C457.61 181.318 461.177 182.962 465.476 185.063C474.348 189.265 486.422 195.111 499.868 201.505C500.142 201.596 500.325 201.687 500.508 201.87L500.051 201.962C508.923 190.361 516.972 179.856 522.917 172.092C525.844 168.347 528.223 165.333 529.869 163.14C530.692 162.136 531.332 161.314 531.79 160.765C532.247 160.217 532.522 159.943 532.522 159.943Z" fill="#E0E0E0"/>
<path d="M463.738 233.292C463.555 233.201 467.945 224.341 473.525 213.379C479.104 202.509 483.861 193.74 484.044 193.832C484.226 193.923 479.836 202.783 474.257 213.745C468.586 224.615 463.921 233.384 463.738 233.292Z" fill="#E0E0E0"/>
<path d="M510.935 187.072C511.026 186.89 518.801 193.01 528.222 200.591C537.643 208.264 545.144 214.567 545.052 214.75C544.961 214.932 537.186 208.812 527.765 201.231C518.344 193.558 510.752 187.164 510.935 187.072Z" fill="#E0E0E0"/>
<path d="M169.8 10.6396L162.352 42.8599L210.301 53.919L217.749 21.6987L169.8 10.6396Z" fill="#F5F5F5"/>
<path d="M217.783 22.0136C217.783 22.0136 217.6 22.1049 217.234 22.379C216.868 22.5616 216.319 22.927 215.588 23.201C214.124 23.9318 212.112 25.0279 209.642 26.3067C204.52 28.8644 197.569 32.4268 189.885 36.3546L189.702 36.4459L189.611 36.2632C189.52 36.1719 189.428 36.0805 189.337 35.8978C183.94 29.0471 179.001 22.8357 175.434 18.2685C173.696 15.9849 172.232 14.158 171.226 12.8792C170.769 12.2398 170.403 11.7831 170.129 11.4177C169.854 11.0523 169.763 10.8696 169.763 10.8696C169.763 10.8696 169.946 11.0523 170.22 11.3263C170.494 11.6917 170.952 12.1484 171.409 12.7879C172.415 14.0667 173.879 15.8935 175.708 18.0858C179.275 22.653 184.214 28.773 189.702 35.6238C189.794 35.7152 189.885 35.8978 189.977 35.9892L189.702 35.8978C197.386 31.9701 204.429 28.499 209.459 25.9414C211.929 24.6626 214.033 23.6578 215.496 23.0184C216.136 22.653 216.685 22.4703 217.143 22.1963C217.6 22.1049 217.783 22.0136 217.783 22.0136Z" fill="#E0E0E0"/>
<path d="M162.445 43.2056C162.353 43.1142 167.018 39.5518 172.78 35.1673C178.543 30.8742 183.299 27.4031 183.391 27.4944C183.482 27.5858 178.817 31.1482 173.055 35.5327C167.201 39.9172 162.445 43.3883 162.445 43.2056Z" fill="#E0E0E0"/>
<path d="M199.398 30.8742C199.489 30.7829 202.05 35.9895 205.069 42.4749C208.087 48.9603 210.465 54.2583 210.374 54.2583C210.282 54.3496 207.721 49.143 204.703 42.6576C201.593 36.1722 199.215 30.8742 199.398 30.8742Z" fill="#E0E0E0"/>
<path d="M473.702 18.6319L438.658 33.6724L448.804 57.2565L483.847 42.216L473.702 18.6319Z" fill="#F5F5F5"/>
<path d="M473.892 18.8169C473.892 18.8169 473.8 18.9996 473.709 19.2736C473.526 19.639 473.343 20.0044 473.068 20.5524C472.52 21.6486 471.696 23.2927 470.782 25.211C468.769 29.1388 466.117 34.528 463.098 40.5567L463.007 40.6481H462.916C462.824 40.6481 462.733 40.5567 462.55 40.5567C456.056 38.7299 450.11 37.0857 445.811 35.8982C443.707 35.2588 441.97 34.8021 440.781 34.4367C440.232 34.254 439.774 34.1627 439.409 34.0713C439.134 33.98 438.951 33.8886 438.951 33.8886C438.951 33.8886 439.134 33.8886 439.409 33.98C439.774 34.0713 440.232 34.1627 440.781 34.3453C442.061 34.7107 443.799 35.1674 445.903 35.7155C450.202 36.903 456.147 38.4558 462.733 40.2827C462.824 40.2827 462.916 40.374 463.098 40.374L462.916 40.4654C465.934 34.528 468.678 29.1388 470.69 25.211C471.696 23.2927 472.52 21.7399 473.068 20.6438C473.343 20.0957 473.526 19.7303 473.709 19.365C473.8 18.9996 473.8 18.8169 473.892 18.8169Z" fill="#E0E0E0"/>
<path d="M449.012 57.4553C448.921 57.4553 450.202 53.0708 451.756 47.6815C453.403 42.2922 454.775 37.999 454.866 37.999C454.958 37.999 453.677 42.3835 452.122 47.7728C450.476 53.1621 449.104 57.4553 449.012 57.4553Z" fill="#E0E0E0"/>
<path d="M466.391 32.7924C466.483 32.7011 470.416 34.802 475.264 37.451C480.111 40.0999 484.044 42.3835 483.953 42.3835C483.861 42.4749 479.928 40.374 475.081 37.725C470.233 35.076 466.3 32.8838 466.391 32.7924Z" fill="#E0E0E0"/>
<path d="M501.331 257.407C497.58 255.032 493.281 253.571 488.982 253.114C486.97 252.931 484.775 252.931 483.129 254.21C482.763 254.484 482.488 254.849 482.488 255.306C482.58 255.58 482.854 255.854 483.037 256.037C488.068 259.873 495.751 260.421 501.331 257.407Z" fill="#AFDD44"/>
<path d="M501.056 257.133C498.221 254.941 495.385 252.748 493.007 250.099C490.629 247.451 488.708 244.345 487.977 240.874C487.794 239.778 487.702 238.59 488.342 237.768C494.745 242.701 499.776 249.095 501.056 257.133Z" fill="#AFDD44"/>
<path d="M501.239 257.407C500.782 253.936 500.599 250.374 501.422 246.903C502.245 243.432 504.075 240.235 507.002 238.225C508.099 240.783 507.642 243.797 506.819 246.446C505.63 250.557 503.709 254.576 501.239 258.138" fill="#AFDD44"/>
<path d="M507.55 268.551C503.708 269.008 500.416 271.018 497.58 273.575C494.745 276.133 492.732 279.604 491.909 283.349C495.659 283.075 498.769 280.517 501.056 277.594C503.343 274.58 504.989 271.383 507.55 268.551Z" fill="#AFDD44"/>
<path d="M508.923 270.378C505.904 262.888 507.002 253.753 511.758 247.268C513.862 254.941 513.039 263.619 508.923 270.378Z" fill="#AFDD44"/>
<path d="M517.154 280.243C513.679 280.06 510.203 280.882 507.185 282.526C504.166 284.262 501.697 286.82 500.142 289.925C499.959 290.382 499.776 290.839 500.05 291.295C500.324 291.661 500.782 291.661 501.148 291.661C504.532 291.478 507.459 289.469 509.929 287.185C512.398 284.81 514.502 282.161 517.154 280.243Z" fill="#AFDD44"/>
<path d="M516.88 279.695C515.142 274.032 514.959 267.82 516.605 262.065C517.246 259.782 518.252 257.407 520.356 256.311C520.539 256.219 520.721 256.128 520.904 256.219C521.087 256.311 521.179 256.494 521.27 256.676C522.002 258.229 522.276 259.965 522.185 261.7C522.093 263.436 521.728 265.08 521.362 266.815C520.721 269.921 520.356 273.301 518.618 275.95C518.252 276.589 517.886 277.32 517.52 277.959C517.154 278.69 517.154 278.873 516.88 279.421" fill="#AFDD44"/>
<path d="M538.741 282.892C537.095 276.772 538.833 269.282 542.766 264.258C543.04 263.892 543.406 263.527 543.863 263.527C544.595 263.618 544.778 264.532 544.687 265.262C544.412 271.565 542.308 277.776 538.741 282.892Z" fill="#AFDD44"/>
<path d="M540.753 284.262C548.253 286.181 556.851 284.354 563.071 279.695C559.412 277.868 555.022 277.32 550.997 278.234C546.881 279.147 543.223 280.974 540.753 284.262Z" fill="#AFDD44"/>
<path d="M542.399 280.151C546.607 273.301 554.656 268.825 562.614 268.459C561.699 271.748 559.046 274.214 556.028 275.767C553.01 277.32 549.625 277.959 546.332 278.599C544.96 278.873 543.223 279.147 542.399 280.151Z" fill="#AFDD44"/>
<path d="M539.198 260.239C540.296 256.311 541.485 252.474 541.759 248.364C542.034 244.345 541.485 240.143 539.381 236.672C535.448 244.253 535.082 253.114 539.015 260.604" fill="#AFDD44"/>
<path d="M552.369 253.662C556.942 245.35 566.272 238.682 575.785 237.768C572.126 246.811 562.156 253.845 552.369 253.662Z" fill="#AFDD44"/>
<path d="M549.442 255.215C556.302 256.22 562.065 260.604 568.468 263.253C569.84 263.801 571.303 264.258 572.766 264.075C574.23 263.892 575.693 262.888 575.968 261.426C576.242 260.239 575.693 258.96 574.87 258.046C574.047 257.133 572.858 256.585 571.76 256.128C564.809 253.205 557.309 253.205 549.991 254.941" fill="#AFDD44"/>
<path d="M545.509 260.056C547.064 260.513 547.613 261.335 548.802 262.34C552.918 265.902 557.948 268.46 563.253 269.739C563.802 269.83 564.534 269.921 564.808 269.465C565.083 269.008 564.717 268.46 564.443 268.094C562.247 265.354 559.046 263.436 555.753 262.157C552.46 260.878 549.533 259.417 545.6 259.782" fill="#AFDD44"/>
<path d="M541.027 231.1C546.607 236.306 554.381 238.955 561.973 238.225C562.339 238.225 562.705 238.133 562.888 237.859C563.437 237.311 562.796 236.398 562.156 235.941C556.119 231.191 548.619 229.182 541.027 231.1Z" fill="#AFDD44"/>
<path d="M546.333 229.182C553.65 223.701 563.712 222.057 572.492 224.888C569.2 228.086 564.626 229.912 560.053 230.369C555.48 230.826 550.815 230.278 546.333 229.182Z" fill="#AFDD44"/>
<path d="M544.229 215.937C543.589 209.817 544.046 204.976 543.589 198.764C543.589 198.307 543.406 197.668 542.949 197.485C542.308 197.211 541.759 198.033 541.577 198.673C539.747 204.336 540.753 210.913 544.229 215.754" fill="#AFDD44"/>
<path d="M543.771 216.576C547.979 214.019 551.089 210.639 553.924 206.711C555.937 203.971 557.674 200.682 557.217 197.303C554.382 197.211 551.729 198.764 549.9 200.956C548.07 203.057 546.973 205.798 546.15 208.447C545.326 211.187 544.778 213.927 543.771 216.576Z" fill="#AFDD44"/>
<path d="M553.833 213.836C562.979 210.456 571.486 205.433 578.895 199.038C575.876 197.851 572.492 198.582 569.474 199.769C562.614 202.51 557.034 207.168 553.741 213.745" fill="#AFDD44"/>
<path d="M546.606 219.956C551.271 220.504 555.936 220.778 560.509 220.047C564.991 219.316 569.29 217.49 573.498 215.754C573.864 215.571 574.23 215.389 574.413 215.115C574.595 214.749 574.412 214.293 574.138 214.018C573.864 213.744 573.406 213.653 573.041 213.47C568.467 212.192 563.528 212.831 559.046 214.293C554.473 215.754 550.722 217.581 546.606 219.956Z" fill="#AFDD44"/>
<path d="M520.173 231.374C516.971 224.98 517.246 217.581 519.99 211.004C521.91 213.927 522.185 217.672 521.819 221.144C521.453 224.615 520.447 228.177 520.356 231.648" fill="#AFDD44"/>
<path d="M507.551 224.98C499.685 224.797 491.818 228.177 486.422 233.931C490.355 234.571 494.379 233.566 497.947 231.831C501.514 230.095 504.715 227.629 507.825 225.162" fill="#AFDD44"/>
<path d="M499.135 222.148C495.294 221.874 491.544 221.326 487.885 222.514C484.135 223.61 480.842 226.259 479.287 229.821C482.854 230.186 486.513 229.364 489.897 227.812C493.099 226.259 496.117 224.249 499.135 222.148Z" fill="#AFDD44"/>
<path d="M511.667 222.331C508.191 220.048 504.624 217.764 500.599 216.851C496.575 215.937 491.91 216.577 489.074 219.682C492.367 221.6 496.3 221.783 500.142 221.783C503.892 221.783 508.557 221.692 512.124 222.971" fill="#AFDD44"/>
<path d="M511.667 222.514C505.721 216.668 503.526 206.255 505.904 198.308C510.569 205.341 512.673 214.019 511.667 222.514Z" fill="#AFDD44"/>
<path d="M527.947 205.981C529.045 203.423 529.868 200.683 530.874 198.034C531.88 195.385 533.161 192.827 534.99 190.726C536.911 188.625 539.472 187.072 542.308 186.89C540.57 194.928 535.173 202.053 528.039 206.072" fill="#AFDD44"/>
<path d="M525.021 209.452C523.191 206.894 520.996 203.423 518.527 201.596C516.057 199.678 512.764 198.582 509.654 199.312C512.856 204.793 518.71 208.721 525.021 209.452Z" fill="#AFDD44"/>
<path d="M525.661 206.254C524.472 203.149 523.191 200.043 522.734 196.755C522.277 193.466 522.551 189.995 524.198 187.164C527.49 193.284 528.497 199.86 525.844 206.346" fill="#AFDD44"/>
<path d="M528.039 187.164C529.868 181.043 535.448 176.568 541.485 174.558C542.216 174.284 543.04 174.101 543.863 174.193C544.686 174.284 545.418 174.832 545.601 175.654C545.784 176.659 544.96 177.664 544.137 178.303C539.472 182.231 533.893 185.337 528.039 187.164Z" fill="#AFDD44"/>
<path d="M528.13 182.14C528.405 178.212 528.588 174.193 529.868 170.539C531.149 166.794 533.618 163.323 537.185 161.679C537.826 165.606 536.088 169.626 533.893 173.005C531.789 176.385 529.228 179.673 527.947 183.419" fill="#AFDD44"/>
<path d="M527.947 184.88C526.392 180.404 526.301 174.832 523.648 170.904C521.819 168.164 518.801 166.337 517.246 163.505C516.148 166.154 516.514 169.26 517.612 171.909C518.709 174.558 520.539 176.842 522.551 178.942C524.472 181.043 526.118 182.596 527.947 184.88Z" fill="#AFDD44"/>
<path d="M528.039 315.593C527.948 315.593 527.856 285.998 527.765 249.46C527.765 212.923 527.856 183.327 527.948 183.327C528.039 183.327 528.13 212.923 528.222 249.46C528.222 285.998 528.13 315.593 528.039 315.593Z" fill="black"/>
<path d="M553.924 226.898C553.924 226.898 553.558 227.081 552.826 227.355C552.003 227.629 550.997 227.994 549.717 228.36C547.155 229.273 543.588 230.552 539.747 232.105C535.905 233.749 532.338 235.028 530.234 236.855C529.228 237.768 528.588 238.682 528.313 239.412C528.039 240.143 527.947 240.508 527.947 240.508C527.947 240.508 527.947 240.417 527.947 240.234C527.947 240.052 528.039 239.778 528.13 239.412C528.405 238.682 528.953 237.677 529.96 236.763C530.966 235.85 532.429 234.936 534.076 234.206C535.722 233.475 537.551 232.653 539.472 231.831C543.314 230.278 546.881 228.999 549.534 228.177C550.814 227.812 551.912 227.446 552.643 227.264C553.467 226.898 553.924 226.807 553.924 226.898Z" fill="black"/>
<path d="M562.43 206.072C562.43 206.072 562.339 206.163 562.156 206.437C561.882 206.711 561.607 206.985 561.241 207.351C560.327 208.173 559.138 209.269 557.674 210.548C554.564 213.288 550.448 216.942 545.875 221.052C541.302 225.163 537.277 229.09 534.533 232.013C533.161 233.475 532.063 234.754 531.332 235.576C530.966 235.941 530.691 236.307 530.508 236.581C530.326 236.763 530.234 236.946 530.143 236.946C530.143 236.946 530.234 236.763 530.417 236.581C530.6 236.307 530.874 236.033 531.24 235.576C531.972 234.662 532.978 233.475 534.35 231.922C537.094 228.908 541.027 224.98 545.692 220.869C550.357 216.759 554.564 213.105 557.583 210.456C559.046 209.177 560.327 208.081 561.241 207.351C561.607 206.985 561.973 206.711 562.247 206.528C562.247 206.163 562.43 206.072 562.43 206.072Z" fill="black"/>
<path d="M540.844 225.163C540.753 225.071 541.667 222.879 542.674 220.047C543.68 217.216 544.137 214.841 544.228 214.841C544.32 214.841 544.046 217.307 543.131 220.139C542.674 221.6 542.125 222.788 541.667 223.701C541.119 224.706 540.844 225.163 540.844 225.163Z" fill="black"/>
<path d="M528.04 243.066C528.04 243.066 527.765 242.792 527.308 242.244C526.851 241.604 526.21 240.874 525.479 239.869C523.924 237.859 521.82 235.21 519.442 232.196C517.063 229.182 514.868 226.533 513.313 224.615C512.582 223.701 511.941 222.879 511.484 222.331C511.027 221.783 510.844 221.509 510.844 221.417C510.844 221.417 511.118 221.692 511.575 222.148C512.033 222.696 512.765 223.427 513.588 224.34C515.234 226.259 517.429 228.908 519.808 231.831C522.186 234.845 524.289 237.585 525.753 239.595C526.485 240.6 527.033 241.422 527.491 241.97C527.857 242.792 528.04 243.066 528.04 243.066Z" fill="black"/>
<path d="M522.368 235.85C522.277 235.941 520.813 234.115 519.99 231.374C519.441 229.456 519.35 227.721 519.441 226.898H519.624C519.533 227.264 519.441 227.447 519.441 227.447C519.441 227.447 519.441 227.264 519.441 226.898H519.624C519.715 227.721 519.807 229.365 520.356 231.283C521.179 233.841 522.459 235.759 522.368 235.85Z" fill="black"/>
<path d="M515.051 226.624C514.959 226.716 514.502 226.076 513.404 225.62C512.307 225.163 510.66 225.072 508.831 225.254C507.001 225.346 505.355 225.711 504.166 225.985C502.977 226.259 502.245 226.533 502.245 226.442C502.245 226.35 502.885 226.076 504.074 225.711C505.264 225.346 506.91 224.98 508.739 224.798C510.569 224.615 512.306 224.798 513.496 225.346C514.685 225.894 515.051 226.624 515.051 226.624Z" fill="black"/>
<path d="M513.313 224.34C513.313 224.432 512.307 223.975 510.752 223.427C509.197 222.879 506.91 222.331 504.441 222.148C501.88 221.965 499.593 222.148 497.946 222.514C496.3 222.788 495.294 223.153 495.294 223.062C495.294 223.062 495.568 222.97 495.934 222.788C496.392 222.605 497.032 222.422 497.855 222.239C499.501 221.874 501.88 221.6 504.441 221.783C507.002 221.965 509.288 222.605 510.843 223.244C511.667 223.518 512.215 223.884 512.673 224.066C513.039 224.158 513.313 224.34 513.313 224.34Z" fill="black"/>
<path d="M527.947 214.932C527.855 214.932 527.032 212.101 526.118 208.447C525.203 204.884 524.563 201.961 524.654 201.87C524.746 201.87 525.569 204.702 526.484 208.356C527.49 211.918 528.13 214.932 527.947 214.932Z" fill="black"/>
<path d="M528.131 214.932C528.039 214.932 527.491 213.014 526.119 211.095C524.747 209.086 523.009 208.081 523.1 207.99C523.1 207.99 523.557 208.081 524.289 208.629C524.929 209.086 525.753 209.908 526.484 210.913C527.856 212.831 528.222 214.932 528.131 214.932Z" fill="black"/>
<path d="M528.039 299.791C527.947 299.791 527.947 299.06 527.581 297.781C527.216 296.502 526.667 294.767 525.569 292.666C523.557 288.464 519.807 283.166 515.05 277.868C512.672 275.219 510.386 272.662 508.465 270.287C506.544 267.912 504.898 265.537 503.8 263.527C502.611 261.518 501.879 259.782 501.422 258.503C501.239 257.864 501.056 257.407 500.964 257.042C500.873 256.676 500.873 256.494 500.873 256.494C500.873 256.494 501.147 257.133 501.605 258.412C502.062 259.599 502.885 261.335 504.074 263.344C505.263 265.354 506.91 267.638 508.831 270.013C510.751 272.387 513.038 274.945 515.416 277.594C520.173 282.892 523.923 288.281 525.843 292.574C526.85 294.675 527.398 296.502 527.673 297.781C527.856 298.42 527.947 298.877 527.947 299.243C528.039 299.608 528.039 299.791 528.039 299.791Z" fill="black"/>
<path d="M551.455 273.392C551.455 273.392 550.998 273.666 550.266 274.123C549.443 274.58 548.345 275.219 547.065 276.224C545.784 277.229 544.321 278.507 542.857 280.06C541.394 281.613 539.839 283.44 538.375 285.358C535.265 289.195 532.43 292.666 530.692 295.406C529.777 296.776 529.137 297.872 528.771 298.694C528.314 299.516 528.131 299.973 528.131 299.973C528.131 299.973 528.131 299.882 528.222 299.608C528.314 299.425 528.405 299.06 528.68 298.603C529.046 297.781 529.686 296.593 530.509 295.223C532.155 292.392 535.082 288.921 538.101 285.084C539.656 283.166 541.211 281.339 542.674 279.786C544.138 278.233 545.601 276.954 546.973 276.041C548.254 275.036 549.443 274.397 550.266 274.032C550.632 273.849 550.998 273.666 551.181 273.575C551.272 273.392 551.455 273.392 551.455 273.392Z" fill="black"/>
<path d="M551.912 281.978C551.912 282.07 550.906 282.161 549.351 282.344C547.796 282.527 545.509 282.801 543.222 283.531C540.936 284.262 539.015 285.45 537.734 286.454C536.454 287.459 535.905 288.281 535.813 288.19C535.813 288.19 535.905 287.916 536.179 287.55C536.454 287.185 536.911 286.728 537.551 286.18C538.832 285.084 540.753 283.897 543.131 283.166C545.509 282.435 547.796 282.161 549.351 282.07C550.906 281.887 551.912 281.887 551.912 281.978Z" fill="black"/>
<path d="M536.454 287.185C536.362 287.094 537.46 285.358 538.374 282.892C539.198 280.517 539.381 278.325 539.563 278.416C539.655 278.416 539.655 278.964 539.563 279.786C539.472 280.609 539.289 281.796 538.832 283.075C538.374 284.354 537.826 285.358 537.368 286.089C536.819 286.82 536.545 287.277 536.454 287.185Z" fill="black"/>
<path d="M559.047 250.374C559.047 250.374 558.864 250.465 558.589 250.556C558.223 250.739 557.858 250.922 557.4 251.104C556.851 251.378 556.211 251.652 555.48 252.018C554.748 252.383 553.925 252.748 553.01 253.297C552.553 253.571 552.095 253.845 551.638 254.119C551.181 254.393 550.632 254.758 550.174 255.032C549.168 255.671 548.071 256.402 546.973 257.224C544.778 258.869 542.491 260.878 540.296 263.07C538.101 265.354 536.271 267.729 534.625 269.921C533.893 271.017 533.162 272.113 532.521 273.21C532.247 273.758 531.881 274.214 531.607 274.762C531.332 275.219 531.058 275.767 530.875 276.224C530.326 277.137 530.052 277.959 529.686 278.782C529.32 279.512 529.046 280.152 528.863 280.7C528.68 281.156 528.497 281.613 528.314 281.979C528.222 282.253 528.131 282.435 528.131 282.435C528.131 282.435 528.131 282.253 528.222 281.979C528.314 281.613 528.497 281.248 528.68 280.7C528.863 280.152 529.137 279.512 529.411 278.69C529.777 277.959 530.052 277.046 530.6 276.133C530.875 275.676 531.058 275.219 531.332 274.671C531.607 274.123 531.881 273.666 532.247 273.118C532.796 272.022 533.527 270.926 534.351 269.83C535.906 267.546 537.826 265.171 540.022 262.888C542.217 260.604 544.595 258.686 546.79 256.95C547.888 256.128 548.985 255.397 550.083 254.758C550.632 254.484 551.089 254.119 551.638 253.845C552.095 253.571 552.644 253.297 553.101 253.023C554.016 252.474 554.839 252.109 555.662 251.744C556.394 251.378 557.034 251.104 557.583 250.922C558.132 250.739 558.498 250.556 558.864 250.465C558.864 250.374 559.047 250.374 559.047 250.374Z" fill="black"/>
<path d="M540.479 262.797C540.479 262.797 540.661 262.066 541.485 261.244C542.308 260.422 543.863 259.691 545.601 259.691C547.339 259.599 548.893 260.147 549.9 260.513C550.906 260.878 551.546 261.244 551.546 261.335C551.546 261.426 550.906 261.152 549.808 260.787C548.711 260.422 547.247 260.056 545.601 260.056C543.954 260.147 542.491 260.787 541.668 261.426C540.844 262.157 540.57 262.797 540.479 262.797Z" fill="black"/>
<path d="M537.734 265.628C537.643 265.537 538.649 264.075 538.923 261.883C539.198 259.691 538.558 257.955 538.649 257.955C538.74 257.955 538.923 258.32 539.106 259.051C539.289 259.782 539.472 260.787 539.289 261.974C539.198 263.07 538.74 264.075 538.466 264.714C538.1 265.354 537.734 265.628 537.734 265.628Z" fill="black"/>
<path d="M507.551 303.993C508.191 315.319 511.575 326.829 516.88 338.429H539.747C544.778 326.92 547.979 315.411 548.528 303.993H507.551Z" fill="#3C3C3C"/>
<path d="M544.777 322.353C544.777 322.444 537.277 322.535 527.947 322.535C518.709 322.535 511.117 322.444 511.117 322.353C511.117 322.261 518.617 322.17 527.947 322.17C537.185 322.17 544.777 322.261 544.777 322.353Z" fill="#FAFAFA"/>
<path d="M544.228 326.463C544.228 326.554 537.185 326.646 528.496 326.646C519.807 326.646 512.764 326.554 512.764 326.463C512.764 326.372 519.807 326.28 528.496 326.28C537.185 326.189 544.228 326.372 544.228 326.463Z" fill="#FAFAFA"/>
<path d="M461.725 332.766H136.651C129.334 332.766 123.297 326.829 123.297 319.43V113.815C123.297 106.507 129.242 100.479 136.651 100.479H461.725C469.042 100.479 475.079 106.416 475.079 113.815V319.43C475.079 326.737 469.134 332.766 461.725 332.766Z" fill="#3C3C3C"/>
<path d="M474.348 338.064H125.858C116.895 338.064 109.577 330.757 109.577 321.805V317.694H490.629V321.805C490.629 330.757 483.403 338.064 474.348 338.064Z" fill="#3C3C3C"/>
<path d="M464.652 109.704H132.81V305.819H464.652V109.704Z" fill="black"/>
<path d="M264.522 315.593L269.279 323.083H335.775L340.166 315.593H264.522Z" fill="black"/>
<path d="M455.505 305.18H142.597C140.95 305.18 139.578 303.81 139.578 302.166V119.295C139.578 117.651 140.95 116.281 142.597 116.281H455.505C457.152 116.281 458.524 117.651 458.524 119.295V302.166C458.524 303.901 457.152 305.18 455.505 305.18Z" fill="#EBEBEB"/>
<path d="M458.158 305.454H139.304L139.67 130.439H458.158V305.454Z" fill="#FAFAFA"/>
<path d="M165.829 123.588C165.829 124.959 164.732 126.146 163.268 126.146C161.896 126.146 160.707 125.05 160.707 123.588C160.707 122.127 161.805 121.031 163.268 121.031C164.64 121.122 165.829 122.218 165.829 123.588Z" fill="black"/>
<path d="M150.371 123.588C150.371 124.959 149.274 126.146 147.81 126.146C146.438 126.146 145.249 125.05 145.249 123.588C145.249 122.127 146.347 121.031 147.81 121.031C149.182 121.122 150.371 122.218 150.371 123.588Z" fill="black"/>
<path d="M157.78 123.588C157.78 124.959 156.683 126.146 155.219 126.146C153.847 126.146 152.658 125.05 152.658 123.588C152.658 122.127 153.756 121.031 155.219 121.031C156.591 121.122 157.78 122.218 157.78 123.588Z" fill="black"/>
<path d="M472.061 315.594C472.061 315.685 394.04 315.776 297.725 315.776C201.41 315.776 123.389 315.685 123.389 315.594C123.389 315.502 201.41 315.411 297.725 315.411C393.948 315.319 472.061 315.411 472.061 315.594Z" fill="black"/>
<path d="M241.747 198.855L371.447 197.577L375.289 285.723L240.924 284.719L241.747 198.855Z" fill="#95165B"/>
<path d="M241.747 198.856L303.03 149.073C305.591 146.972 309.341 146.972 311.902 149.073L371.447 197.577" fill="#95165B"/>
<g opacity="0.3">
<g opacity="0.3">
<g opacity="0.3">
<path opacity="0.3" d="M241.747 198.856L303.03 149.073C305.591 146.972 309.341 146.972 311.902 149.073L371.447 197.577" fill="black"/>
</g>
</g>
</g>
<path d="M240.924 284.719C240.741 284.536 251.169 273.21 264.065 259.417C277.054 245.532 287.664 234.48 287.755 234.662C287.938 234.845 277.603 246.172 264.614 259.965C251.717 273.758 241.107 284.902 240.924 284.719Z" fill="black"/>
<path d="M375.289 285.724C375.106 285.906 364.954 274.762 352.606 260.97C340.258 247.177 330.379 235.85 330.562 235.667C330.745 235.485 340.898 246.629 353.246 260.421C365.594 274.214 375.472 285.541 375.289 285.724Z" fill="black"/>
<g opacity="0.5">
<g opacity="0.5">
<g opacity="0.5">
<path opacity="0.5" d="M371.447 197.577L306.414 249.734L241.747 198.855" fill="black"/>
</g>
</g>
</g>
<path d="M248.242 203.606L247.968 163.141L361.57 161.588L362.942 204.154L306.415 249.004L248.242 203.606Z" fill="#FAFAFA"/>
<path d="M248.242 203.606C248.242 203.606 248.608 203.88 249.339 204.428C250.071 204.976 251.077 205.798 252.449 206.803C255.193 208.904 259.126 212.009 264.249 215.937C274.401 223.793 288.945 235.119 306.598 248.912H306.323C322.605 235.941 341.904 220.596 362.85 203.971L362.759 204.154C362.484 196.024 362.21 187.529 361.935 178.851C361.752 173.005 361.57 167.251 361.387 161.587L361.661 161.862C315.927 162.501 275.499 162.958 248.059 163.323L248.242 163.14C248.333 175.837 248.333 185.976 248.333 192.918C248.333 196.389 248.333 199.038 248.333 200.865C248.333 201.779 248.333 202.418 248.333 202.875C248.333 203.423 248.242 203.606 248.242 203.606C248.242 203.606 248.242 203.423 248.242 202.966C248.242 202.51 248.242 201.779 248.242 200.957C248.242 199.13 248.15 196.481 248.15 193.01C248.059 186.068 247.967 175.928 247.876 163.232V163.049H248.059C275.499 162.684 315.836 162.044 361.661 161.405H361.935V161.679C362.118 167.342 362.301 173.097 362.484 178.943C362.759 187.62 363.033 196.115 363.307 204.245V204.336L363.216 204.428C342.27 221.052 322.97 236.398 306.689 249.278L306.598 249.369L306.506 249.278C288.853 235.485 274.401 224.067 264.249 216.12C259.218 212.192 255.285 209.086 252.541 206.894C251.169 205.798 250.163 205.067 249.522 204.519C248.608 203.88 248.242 203.606 248.242 203.606Z" fill="black"/>
<path d="M343.642 181.957C343.642 182.048 326.263 182.322 304.86 182.505C283.457 182.688 266.078 182.688 266.078 182.596C266.078 182.505 283.457 182.231 304.86 182.048C326.263 181.866 343.642 181.866 343.642 181.957Z" fill="black"/>
<path d="M343.733 193.466C343.733 193.558 326.354 193.832 304.951 194.014C283.548 194.197 266.169 194.197 266.169 194.106C266.169 194.014 283.548 193.74 304.951 193.558C326.354 193.375 343.733 193.284 343.733 193.466Z" fill="black"/>
<path d="M343.733 206.62C343.733 206.711 326.354 206.985 304.951 207.168C283.548 207.351 266.169 207.351 266.169 207.259C266.169 207.168 283.548 206.894 304.951 206.711C326.354 206.529 343.733 206.437 343.733 206.62Z" fill="black"/>
<path d="M343.733 219.773C343.733 219.865 327.177 220.139 306.689 220.321C286.2 220.504 269.645 220.504 269.645 220.413C269.645 220.321 286.2 220.047 306.689 219.865C327.177 219.682 343.733 219.682 343.733 219.773Z" fill="black"/>
<path d="M329.281 231.374C329.281 231.374 329.098 231.374 328.824 231.465C328.458 231.465 328.001 231.465 327.544 231.557C326.354 231.557 324.708 231.648 322.787 231.648C318.671 231.739 313.092 231.831 306.963 231.922C300.744 232.013 295.164 232.105 291.14 232.105C289.127 232.105 287.572 232.105 286.383 232.105C285.835 232.105 285.469 232.105 285.103 232.105C284.828 232.105 284.646 232.105 284.646 232.105C284.646 232.105 284.828 232.105 285.103 232.013C285.469 232.013 285.926 232.013 286.383 231.922C287.572 231.922 289.219 231.831 291.14 231.831C295.256 231.739 300.835 231.648 306.963 231.557C313.183 231.465 318.763 231.374 322.787 231.374C324.8 231.374 326.354 231.374 327.544 231.374C328.092 231.374 328.458 231.374 328.824 231.374C329.098 231.374 329.281 231.374 329.281 231.374Z" fill="black"/>
<path d="M314.647 242.518C314.647 242.609 310.988 242.792 306.415 242.792C301.841 242.792 298.183 242.701 298.183 242.609C298.183 242.518 301.841 242.335 306.415 242.335C310.988 242.244 314.647 242.335 314.647 242.518Z" fill="black"/>
<path d="M611 337.241C611 337.333 474.257 337.515 305.5 337.515C136.743 337.515 0 337.424 0 337.241C0 337.15 136.743 336.967 305.5 336.967C474.165 337.059 611 337.15 611 337.241Z" fill="black"/>
<path d="M329.921 161.222C330.013 161.222 330.104 161.77 330.013 162.409C329.921 163.049 329.83 163.505 329.647 163.505C329.555 163.505 329.464 162.957 329.555 162.318C329.647 161.678 329.83 161.222 329.921 161.222Z" fill="black"/>
<path d="M331.201 152.362C331.293 152.362 331.293 153.367 331.11 154.645C330.927 155.833 330.653 156.838 330.561 156.838C330.47 156.838 330.47 155.833 330.653 154.554C330.744 153.275 331.018 152.27 331.201 152.362Z" fill="black"/>
<path d="M332.94 143.501C333.031 143.501 332.94 144.506 332.665 145.785C332.391 146.972 332.117 147.977 331.934 147.885C331.842 147.885 331.934 146.881 332.208 145.602C332.483 144.506 332.848 143.501 332.94 143.501Z" fill="black"/>
<path d="M335.409 134.915C335.5 134.915 335.318 135.92 334.952 137.107C334.586 138.295 334.22 139.208 334.037 139.208C333.946 139.208 334.128 138.203 334.494 137.016C334.86 135.828 335.318 134.824 335.409 134.915Z" fill="black"/>
<path d="M338.519 126.511C338.611 126.603 338.336 127.516 337.879 128.703C337.421 129.891 336.964 130.713 336.781 130.713C336.69 130.713 336.964 129.708 337.421 128.521C337.97 127.333 338.428 126.42 338.519 126.511Z" fill="black"/>
<path d="M342.453 118.381C342.544 118.473 342.178 119.386 341.63 120.482C341.081 121.578 340.532 122.4 340.349 122.4C340.258 122.309 340.623 121.396 341.172 120.3C341.812 119.203 342.361 118.29 342.453 118.381Z" fill="black"/>
<path d="M347.117 110.708C347.208 110.8 346.751 111.713 346.019 112.718C345.379 113.723 344.739 114.545 344.647 114.454C344.556 114.362 345.013 113.449 345.654 112.444C346.385 111.439 347.026 110.708 347.117 110.708Z" fill="black"/>
<path d="M352.697 103.675C352.788 103.767 352.239 104.589 351.416 105.593C350.593 106.507 349.861 107.238 349.77 107.146C349.678 107.055 350.227 106.233 351.05 105.228C351.873 104.315 352.605 103.584 352.697 103.675Z" fill="black"/>
<path d="M359.008 97.2812C359.099 97.3725 358.459 98.1033 357.544 99.0167C356.629 99.8388 355.806 100.478 355.715 100.387C355.623 100.296 356.264 99.5648 357.178 98.6513C358.093 97.8292 358.916 97.1898 359.008 97.2812Z" fill="black"/>
<path d="M366.142 91.8006C366.234 91.892 365.502 92.6227 364.496 93.3535C363.49 94.0842 362.667 94.6323 362.575 94.4496C362.484 94.3583 363.215 93.6275 364.222 92.8968C365.136 92.166 366.051 91.7093 366.142 91.8006Z" fill="black"/>
<path d="M373.826 87.2332C373.917 87.3246 373.094 87.964 371.996 88.512C370.899 89.0601 369.984 89.5168 369.893 89.3341C369.801 89.2428 370.624 88.6034 371.722 88.0553C372.82 87.5073 373.826 87.1419 373.826 87.2332Z" fill="black"/>
<path d="M382.149 83.8534C382.149 83.9447 381.235 84.4015 380.137 84.8582C378.948 85.3149 378.033 85.4976 377.942 85.4062C377.85 85.3149 378.765 84.8582 379.954 84.4015C381.143 83.9447 382.149 83.7621 382.149 83.8534Z" fill="black"/>
<path d="M390.93 81.8441C390.93 81.9354 390.015 82.2094 388.735 82.4835C387.546 82.7575 386.54 82.8488 386.448 82.7575C386.448 82.6662 387.363 82.3008 388.643 82.0268C389.924 81.7527 390.93 81.6614 390.93 81.8441Z" fill="black"/>
<path d="M399.894 81.296C399.894 81.3873 398.888 81.57 397.607 81.57C396.326 81.57 395.32 81.4786 395.32 81.3873C395.32 81.296 396.326 81.1133 397.607 81.1133C398.888 81.1133 399.894 81.2046 399.894 81.296Z" fill="black"/>
<path d="M408.857 82.3923C408.857 82.4836 407.851 82.4836 406.57 82.3009C405.381 82.1182 404.375 81.8442 404.375 81.7529C404.375 81.6615 405.381 81.6615 406.662 81.8442C407.851 81.9356 408.857 82.2096 408.857 82.3923Z" fill="black"/>
<path d="M417.455 84.9497C417.364 85.041 416.449 84.8584 415.26 84.4016C414.071 84.0363 413.156 83.5795 413.248 83.3969C413.248 83.3055 414.254 83.4882 415.443 83.9449C416.54 84.4016 417.455 84.8584 417.455 84.9497Z" fill="black"/>
<path d="M425.413 88.9688C425.321 89.0602 424.407 88.6948 423.309 88.0554C422.211 87.416 421.388 86.8679 421.48 86.7766C421.571 86.6852 422.486 87.0506 423.583 87.69C424.681 88.3294 425.504 88.8775 425.413 88.9688Z" fill="black"/>
<path d="M432.456 94.5408C432.364 94.6322 431.541 94.0841 430.626 93.262C429.711 92.4399 428.98 91.7092 429.071 91.6178C429.163 91.5265 429.986 92.0745 430.901 92.8966C431.907 93.7187 432.547 94.4495 432.456 94.5408Z" fill="black"/>
<path d="M436.938 99.6559C436.847 99.7472 436.389 99.3818 436.024 98.9251C435.658 98.4684 435.383 97.9203 435.475 97.9203C435.566 97.829 435.932 98.1944 436.389 98.6511C436.755 99.1078 437.03 99.5645 436.938 99.6559Z" fill="black"/>
<path d="M479.196 154.737C479.104 154.828 478.19 154.554 477.001 154.006C475.812 153.458 474.988 152.91 474.988 152.819C475.08 152.727 475.994 153.001 477.184 153.549C478.373 154.097 479.287 154.554 479.196 154.737Z" fill="black"/>
<path d="M487.886 157.751C487.886 157.842 486.879 157.66 485.599 157.294C484.41 156.929 483.404 156.563 483.495 156.381C483.495 156.289 484.593 156.472 485.782 156.837C486.971 157.203 487.886 157.568 487.886 157.751Z" fill="black"/>
<path d="M496.849 159.121C496.849 159.212 495.843 159.212 494.562 159.121C493.282 158.938 492.275 158.756 492.275 158.664C492.275 158.573 493.282 158.573 494.562 158.664C495.843 158.847 496.849 159.03 496.849 159.121Z" fill="black"/>
<path d="M505.995 158.847C505.995 158.938 504.989 159.121 503.709 159.212C502.428 159.304 501.422 159.304 501.422 159.121C501.422 159.03 502.428 158.847 503.709 158.756C504.989 158.664 505.995 158.756 505.995 158.847Z" fill="black"/>
<path d="M514.96 157.203C514.96 157.294 514.045 157.66 512.764 157.934C511.484 158.208 510.478 158.299 510.478 158.117C510.478 158.025 511.484 157.66 512.673 157.386C513.953 157.203 514.96 157.02 514.96 157.203Z" fill="black"/>
<path d="M523.466 153.823C523.557 153.915 522.643 154.463 521.453 155.011C520.264 155.559 519.35 155.833 519.258 155.742C519.167 155.65 520.081 155.102 521.271 154.554C522.46 154.006 523.374 153.732 523.466 153.823Z" fill="black"/>
<path d="M531.057 148.708C531.149 148.799 530.417 149.53 529.411 150.352C528.405 151.083 527.49 151.631 527.399 151.448C527.307 151.357 528.13 150.718 529.136 149.895C530.143 149.256 530.966 148.617 531.057 148.708Z" fill="black"/>
<path d="M537.278 142.04C537.369 142.131 536.912 143.044 536.088 143.958C535.265 144.963 534.533 145.602 534.351 145.511C534.259 145.419 534.899 144.597 535.631 143.684C536.454 142.77 537.186 141.948 537.278 142.04Z" fill="black"/>
<path d="M541.577 134.001C541.668 134.001 541.485 135.098 540.937 136.194C540.388 137.381 539.839 138.203 539.747 138.112C539.656 138.021 540.022 137.107 540.571 135.92C541.028 134.915 541.394 134.001 541.577 134.001Z" fill="black"/>
<path d="M543.223 125.05C543.314 125.05 543.497 126.055 543.314 127.333C543.223 128.612 542.857 129.617 542.765 129.526C542.674 129.526 542.765 128.521 542.857 127.242C543.04 126.146 543.131 125.05 543.223 125.05Z" fill="black"/>
<path d="M541.942 116.098C542.033 116.098 542.491 117.012 542.765 118.29C543.04 119.569 543.04 120.574 542.948 120.574C542.857 120.574 542.582 119.569 542.308 118.382C542.034 117.103 541.759 116.098 541.942 116.098Z" fill="black"/>
<path d="M537.918 107.877C538.01 107.786 538.742 108.608 539.382 109.704C540.022 110.8 540.388 111.805 540.205 111.805C540.114 111.896 539.565 110.983 538.924 109.887C538.376 108.882 537.827 107.968 537.918 107.877Z" fill="black"/>
<path d="M531.607 101.392C531.698 101.3 532.613 101.757 533.527 102.671C534.533 103.493 535.082 104.315 534.991 104.406C534.899 104.498 534.076 103.858 533.162 103.036C532.338 102.123 531.515 101.483 531.607 101.392Z" fill="black"/>
<path d="M523.283 97.6467C523.283 97.5554 524.381 97.6467 525.57 98.0121C526.759 98.3775 527.674 98.9255 527.582 99.1082C527.491 99.1996 526.576 98.9255 525.387 98.4688C524.289 98.1034 523.283 97.8294 523.283 97.6467Z" fill="black"/>
<path d="M514.228 97.8293C514.228 97.738 515.142 97.3726 516.423 97.1899C517.703 97.0072 518.709 97.0986 518.709 97.2813C518.709 97.3726 517.703 97.5553 516.423 97.6466C515.325 97.8293 514.319 97.9207 514.228 97.8293Z" fill="black"/>
<path d="M506.361 102.214C506.27 102.123 506.91 101.301 507.916 100.479C508.922 99.6565 509.929 99.2912 510.02 99.4738C510.111 99.5652 509.197 100.113 508.282 100.935C507.184 101.666 506.453 102.306 506.361 102.214Z" fill="black"/>
<path d="M502.703 110.435C502.611 110.435 502.52 109.339 502.794 108.151C503.069 106.872 503.617 105.959 503.709 106.05C503.8 106.142 503.526 107.055 503.252 108.242C503.069 109.43 502.886 110.435 502.703 110.435Z" fill="black"/>
<path d="M504.532 119.295C504.441 119.386 503.801 118.473 503.435 117.286C502.977 116.098 502.886 115.002 503.069 115.002C503.16 115.002 503.526 115.915 503.892 117.103C504.258 118.29 504.624 119.204 504.532 119.295Z" fill="black"/>
<path d="M510.478 126.055C510.387 126.146 509.472 125.689 508.557 124.776C507.551 123.954 507.002 123.04 507.094 122.949C507.185 122.858 507.917 123.589 508.832 124.411C509.838 125.324 510.57 125.963 510.478 126.055Z" fill="black"/>
<path d="M518.801 129.8C518.801 129.891 517.704 129.8 516.515 129.343C515.326 128.978 514.411 128.43 514.502 128.247C514.594 128.156 515.509 128.43 516.698 128.886C517.887 129.343 518.801 129.709 518.801 129.8Z" fill="black"/>
<path d="M527.857 130.622C527.857 130.713 526.85 130.896 525.57 130.896C524.289 130.896 523.283 130.622 523.283 130.53C523.283 130.439 524.289 130.439 525.57 130.439C526.85 130.439 527.857 130.53 527.857 130.622Z" fill="black"/>
<path d="M536.82 128.978C536.82 129.069 535.905 129.526 534.716 129.8C533.527 130.074 532.43 130.165 532.43 130.074C532.43 129.983 533.344 129.617 534.625 129.343C535.814 129.069 536.82 128.887 536.82 128.978Z" fill="black"/>
<path d="M545.144 125.233C545.236 125.324 544.321 125.872 543.223 126.512C542.126 127.06 541.12 127.516 541.12 127.334C541.028 127.242 541.943 126.603 543.04 126.055C544.138 125.507 545.053 125.05 545.144 125.233Z" fill="black"/>
<path d="M552.461 119.752C552.552 119.843 551.82 120.574 550.814 121.396C549.808 122.218 548.985 122.766 548.893 122.675C548.802 122.584 549.534 121.853 550.54 121.031C551.546 120.209 552.369 119.661 552.461 119.752Z" fill="black"/>
<path d="M558.681 113.084C558.773 113.175 558.224 113.997 557.401 115.002C556.577 116.007 555.846 116.646 555.754 116.555C555.663 116.464 556.211 115.642 557.035 114.637C557.858 113.723 558.59 112.993 558.681 113.084Z" fill="black"/>
<path d="M563.711 105.503C563.803 105.594 563.437 106.507 562.705 107.603C562.065 108.7 561.424 109.522 561.333 109.43C561.241 109.339 561.699 108.426 562.339 107.329C562.979 106.233 563.62 105.411 563.711 105.503Z" fill="black"/>
<path d="M567.461 97.0986C567.553 97.0986 567.279 98.1034 566.821 99.2909C566.364 100.478 565.907 101.392 565.724 101.3C565.632 101.209 565.907 100.296 566.364 99.1082C566.821 98.0121 567.279 97.0986 567.461 97.0986Z" fill="black"/>
<path d="M570.023 88.3296C570.114 88.3296 570.023 89.3344 569.657 90.6132C569.383 91.8007 569.017 92.8054 568.834 92.8054C568.742 92.8054 568.834 91.7093 569.2 90.5218C569.474 89.243 569.84 88.3296 570.023 88.3296Z" fill="black"/>
<path d="M571.577 79.3779C571.669 79.3779 571.669 80.3827 571.486 81.6615C571.303 82.9403 571.028 83.9451 570.937 83.8538C570.846 83.8538 570.846 82.849 571.028 81.5702C571.211 80.3827 571.486 79.3779 571.577 79.3779Z" fill="black"/>
<path d="M572.401 70.2437C572.492 70.2437 572.584 71.2484 572.492 72.5273C572.401 73.8061 572.218 74.8109 572.126 74.8109C572.035 74.8109 571.944 73.8061 572.035 72.5273C572.126 71.2484 572.309 70.2437 572.401 70.2437Z" fill="black"/>
<path d="M572.767 61.1094C572.858 61.1094 572.949 62.1142 572.949 63.393C572.949 64.6718 572.766 65.6766 572.675 65.6766C572.584 65.6766 572.492 64.6718 572.492 63.393C572.492 62.2055 572.584 61.1094 572.767 61.1094Z" fill="black"/>
<path d="M572.675 51.9746C572.766 51.9746 572.949 52.9794 572.949 54.2582C572.949 55.537 572.858 56.5418 572.766 56.5418C572.675 56.5418 572.492 55.537 572.492 54.2582C572.4 53.0707 572.492 51.9746 572.675 51.9746Z" fill="black"/>
<path d="M572.492 46.4028C572.584 46.4028 572.767 46.6769 572.767 46.9509C572.767 47.2249 572.675 47.499 572.584 47.499C572.492 47.499 572.31 47.2249 572.31 46.9509C572.31 46.6769 572.401 46.4028 572.492 46.4028Z" fill="black"/>
<path d="M592.656 19.2866L530.455 26.0356L535.008 67.901L597.209 61.152L592.656 19.2866Z" fill="#95165B"/>
<path d="M534.9 67.8684L530.326 25.9416L592.524 19.1821L597.097 61.0176L534.9 67.8684ZM530.418 26.0329L534.991 67.8684L597.097 61.109L592.524 19.2735L530.418 26.0329Z" fill="black"/>
<path d="M592.798 19.8216C592.798 19.8216 592.615 20.0043 592.249 20.461C591.883 20.9177 591.334 21.4658 590.694 22.1966C589.231 23.6581 587.31 25.8503 584.84 28.4079C579.81 33.6145 572.949 40.8307 565.358 48.7776L565.175 48.9603L564.992 48.869C564.809 48.7776 564.717 48.6863 564.535 48.5949C555.205 42.3836 546.698 36.9943 540.57 32.9751C537.552 31.0569 535.082 29.4127 533.344 28.2253C532.521 27.6772 531.881 27.2205 531.423 26.9464C530.966 26.6724 530.783 26.4897 530.783 26.4897C530.783 26.4897 531.058 26.5811 531.515 26.8551C532.064 27.1291 532.704 27.5858 533.527 28.0426C535.357 29.1387 537.826 30.6915 540.845 32.6098C547.064 36.5375 555.571 41.9268 564.992 47.8642C565.175 47.9555 565.358 48.0469 565.449 48.1382H565.083C572.767 40.2826 579.627 33.1578 584.657 27.9512C587.127 25.3936 589.139 23.384 590.603 21.9225C591.243 21.2831 591.792 20.7351 592.249 20.2783C592.615 19.913 592.798 19.7303 592.798 19.8216Z" fill="black"/>
<path d="M535.174 68.3251C535.083 68.2338 539.107 62.0224 544.23 54.3495C549.352 46.768 553.651 40.6479 553.742 40.7393C553.834 40.8306 549.809 47.042 544.687 54.7149C539.565 62.3878 535.357 68.4165 535.174 68.3251Z" fill="black"/>
<path d="M574.413 37.9987C574.504 37.9074 579.81 43.114 586.121 49.5994C592.432 56.0848 597.554 61.4741 597.371 61.5655C597.188 61.6568 592.066 56.4502 585.663 49.9648C579.352 43.4794 574.23 38.1814 574.413 37.9987Z" fill="black"/>
<path d="M308.702 146.15C308.793 146.15 309.068 146.607 309.159 147.247C309.25 147.886 309.25 148.434 309.159 148.434C309.068 148.434 308.793 147.977 308.702 147.338C308.519 146.698 308.519 146.242 308.702 146.15Z" fill="black"/>
<path d="M307.238 137.29C307.33 137.29 307.604 138.295 307.879 139.482C308.062 140.67 308.153 141.766 307.97 141.766C307.879 141.766 307.604 140.761 307.33 139.574C307.147 138.295 307.055 137.29 307.238 137.29Z" fill="black"/>
<path d="M305.867 128.338C305.958 128.338 306.233 129.343 306.416 130.531C306.598 131.809 306.598 132.814 306.507 132.814C306.416 132.814 306.141 131.809 305.958 130.622C305.775 129.343 305.775 128.338 305.867 128.338Z" fill="black"/>
<path d="M304.861 119.387C304.952 119.387 305.226 120.392 305.318 121.579C305.409 122.858 305.409 123.863 305.318 123.863C305.226 123.863 304.952 122.858 304.861 121.67C304.769 120.392 304.769 119.387 304.861 119.387Z" fill="black"/>
<path d="M304.22 110.344C304.312 110.344 304.495 111.349 304.586 112.627C304.677 113.906 304.586 114.911 304.495 114.911C304.403 114.911 304.22 113.906 304.129 112.627C304.037 111.349 304.129 110.344 304.22 110.344Z" fill="black"/>
<path d="M304.128 101.301C304.22 101.301 304.403 102.306 304.311 103.584C304.311 104.863 304.22 105.868 304.037 105.868C303.945 105.868 303.763 104.863 303.854 103.584C303.854 102.306 304.037 101.301 304.128 101.301Z" fill="black"/>
<path d="M304.677 92.349C304.768 92.349 304.86 93.3538 304.768 94.6326C304.677 95.9114 304.494 96.8249 304.311 96.8249C304.22 96.8249 304.128 95.8201 304.22 94.5413C304.402 93.2625 304.585 92.2577 304.677 92.349Z" fill="black"/>
<path d="M306.049 83.397C306.14 83.397 306.14 84.4018 305.866 85.6806C305.683 86.868 305.409 87.8728 305.226 87.8728C305.134 87.8728 305.134 86.868 305.409 85.5892C305.683 84.3104 305.957 83.397 306.049 83.397Z" fill="black"/>
<path d="M308.336 74.6279C308.427 74.6279 308.244 75.6327 307.878 76.8202C307.513 78.0077 307.147 78.9211 306.964 78.9211C306.872 78.9211 307.055 77.9163 307.421 76.7288C307.878 75.5414 308.244 74.6279 308.336 74.6279Z" fill="black"/>
<path d="M311.72 66.3159C311.811 66.4072 311.537 67.3207 310.988 68.5081C310.531 69.6043 309.982 70.5177 309.89 70.5177C309.799 70.4263 310.073 69.5129 310.622 68.3254C311.079 67.138 311.628 66.2245 311.72 66.3159Z" fill="black"/>
<path d="M316.202 58.3691C316.293 58.4605 315.836 59.3739 315.195 60.47C314.555 61.5662 313.915 62.3883 313.823 62.2969C313.732 62.2056 314.098 61.2921 314.83 60.196C315.47 59.1912 316.019 58.3691 316.202 58.3691Z" fill="black"/>
<path d="M321.598 51.1527C321.69 51.2441 321.141 52.0662 320.409 53.0709C319.586 54.0757 318.946 54.7151 318.763 54.7151C318.671 54.6238 319.22 53.8017 319.952 52.7969C320.775 51.7921 321.507 51.0614 321.598 51.1527Z" fill="black"/>
<path d="M328.002 44.8502C328.093 44.9416 327.453 45.6723 326.538 46.5858C325.624 47.4078 324.8 48.0473 324.709 47.9559C324.617 47.8646 325.258 47.1338 326.172 46.2204C327.087 45.3069 327.91 44.7589 328.002 44.8502Z" fill="black"/>
<path d="M335.41 39.6435C335.502 39.7348 334.679 40.3742 333.673 41.0136C332.666 41.653 331.752 42.1098 331.66 42.0184C331.569 41.9271 332.392 41.2877 333.398 40.6483C334.404 40.0088 335.319 39.5521 335.41 39.6435Z" fill="black"/>
<path d="M343.642 35.99C343.642 36.0813 342.819 36.538 341.63 36.9947C340.441 37.4515 339.526 37.7255 339.435 37.6341C339.344 37.5428 340.258 37.0861 341.447 36.6294C342.636 36.0813 343.551 35.8073 343.642 35.99Z" fill="black"/>
<path d="M350.228 34.3455C350.228 34.4369 349.771 34.7109 349.131 34.8022C348.49 34.8936 348.033 34.8936 347.941 34.8022C347.941 34.7109 348.399 34.4369 349.039 34.3455C349.679 34.1628 350.228 34.1628 350.228 34.3455Z" fill="black"/>
<path d="M301.563 0.0230523L285.036 42.7075L348.421 67.1917L364.947 24.5072L301.563 0.0230523Z" fill="#95165B"/>
<path d="M348.49 67.2291L285.012 42.7489L301.567 0L365.045 24.4802L348.49 67.2291ZM285.103 42.7489L348.49 67.2291L364.954 24.5715L301.567 0.0913438L285.103 42.7489Z" fill="black"/>
<path d="M365.046 25.1198C365.046 25.1198 364.772 25.2111 364.223 25.4851C363.582 25.6678 362.851 26.0332 361.845 26.3072C359.741 27.038 356.722 28.1341 353.064 29.4129C345.563 31.9706 335.411 35.4416 324.069 39.3694L323.794 39.4607L323.703 39.2781C323.611 39.0954 323.52 38.9127 323.428 38.73C317.392 28.3168 311.904 18.817 307.879 11.8749C305.958 8.49518 304.312 5.66352 303.214 3.7453C302.665 2.83187 302.299 2.10111 301.934 1.55305C301.659 1.00499 301.476 0.730957 301.568 0.730957C301.568 0.730957 301.751 1.00499 302.025 1.46171C302.391 2.00977 302.848 2.74052 303.397 3.65396C304.586 5.48084 306.233 8.22115 308.245 11.6009C312.269 18.4517 317.849 27.9514 323.977 38.3646C324.069 38.5473 324.16 38.73 324.252 38.9127L323.886 38.8213C335.228 34.9849 345.472 31.6052 352.881 29.0475C356.539 27.8601 359.558 26.8553 361.662 26.1245C362.668 25.8505 363.491 25.5765 364.04 25.3938C364.68 25.2111 365.046 25.1198 365.046 25.1198Z" fill="black"/>
<path d="M285.103 43.2968C285.012 43.1141 292.055 39.095 300.836 34.3451C309.617 29.5039 316.751 25.7588 316.843 25.9415C316.934 26.1242 309.891 30.1433 301.11 34.8932C292.329 39.7344 285.103 43.4795 285.103 43.2968Z" fill="black"/>
<path d="M338.062 33.5233C338.245 33.4319 340.715 41.1048 343.55 50.6046C346.386 60.1043 348.581 67.7772 348.49 67.8686C348.307 67.9599 345.837 60.287 343.002 50.7873C340.075 41.2875 337.879 33.6146 338.062 33.5233Z" fill="black"/>
<path d="M281.993 156.198C282.084 156.198 282.176 156.746 282.176 157.385C282.084 158.025 281.993 158.481 281.81 158.481C281.718 158.481 281.627 157.933 281.627 157.294C281.718 156.654 281.901 156.198 281.993 156.198Z" fill="black"/>
<path d="M282.268 146.881C282.359 146.881 282.542 147.886 282.542 149.164C282.542 150.443 282.45 151.448 282.268 151.448C282.176 151.448 281.993 150.443 281.993 149.164C281.993 147.977 282.085 146.881 282.268 146.881Z" fill="black"/>
<path d="M281.627 137.655C281.719 137.655 281.993 138.66 282.085 139.939C282.176 141.218 282.176 142.222 282.085 142.314C281.993 142.314 281.719 141.309 281.627 140.03C281.445 138.66 281.445 137.655 281.627 137.655Z" fill="black"/>
<path d="M280.072 128.429C280.163 128.429 280.529 129.434 280.712 130.621C280.987 131.9 281.078 132.905 280.895 132.905C280.804 132.905 280.438 131.9 280.255 130.713C280.072 129.525 279.981 128.521 280.072 128.429Z" fill="black"/>
<path d="M277.511 119.478C277.602 119.478 278.059 120.391 278.425 121.67C278.791 122.857 279.066 123.953 278.883 123.953C278.791 123.953 278.334 123.04 277.968 121.761C277.602 120.574 277.419 119.569 277.511 119.478Z" fill="black"/>
<path d="M273.944 110.892C274.035 110.8 274.584 111.714 275.133 112.901C275.682 114.089 275.956 115.093 275.865 115.093C275.773 115.185 275.224 114.271 274.676 113.084C274.218 111.988 273.852 110.983 273.944 110.892Z" fill="black"/>
<path d="M269.371 102.853C269.462 102.762 270.103 103.584 270.834 104.68C271.475 105.776 271.932 106.781 271.841 106.781C271.749 106.872 271.109 106.05 270.469 104.863C269.737 103.858 269.28 102.944 269.371 102.853Z" fill="black"/>
<path d="M263.699 95.5458C263.791 95.4545 264.523 96.1852 265.346 97.19C266.169 98.1948 266.718 99.0168 266.626 99.1082C266.535 99.1995 265.803 98.4688 264.98 97.464C264.157 96.4592 263.608 95.6371 263.699 95.5458Z" fill="black"/>
<path d="M257.022 89.0605C257.114 88.9691 257.937 89.6085 258.943 90.4306C259.858 91.2527 260.59 92.0748 260.498 92.1662C260.407 92.2575 259.583 91.6181 258.577 90.796C257.571 89.9739 256.931 89.1518 257.022 89.0605Z" fill="black"/>
<path d="M249.431 83.6708C249.522 83.5794 250.437 84.0361 251.534 84.7669C252.632 85.4976 253.455 86.137 253.364 86.2284C253.272 86.3197 252.358 85.863 251.26 85.1323C250.162 84.4015 249.339 83.7621 249.431 83.6708Z" fill="black"/>
<path d="M241.107 79.3777C241.199 79.2863 242.114 79.5603 243.303 80.1084C244.492 80.6565 245.406 81.2045 245.315 81.2959C245.223 81.3872 244.309 81.1132 243.12 80.5651C242.022 80.1084 241.107 79.5603 241.107 79.3777Z" fill="black"/>
<path d="M232.326 76.6374C232.326 76.5461 233.424 76.6374 234.613 77.0028C235.893 77.3682 236.808 77.7336 236.808 77.8249C236.808 77.9162 235.71 77.8249 234.521 77.4595C233.241 77.0942 232.235 76.7288 232.326 76.6374Z" fill="black"/>
<path d="M223.088 75.45C223.088 75.3586 224.186 75.2673 225.466 75.3586C226.747 75.45 227.753 75.724 227.753 75.8154C227.753 75.9067 226.655 75.9067 225.375 75.8154C224.094 75.724 223.088 75.5413 223.088 75.45Z" fill="black"/>
<path d="M213.759 76.0894C213.759 75.998 214.765 75.724 216.045 75.5413C217.326 75.3586 218.332 75.3586 218.424 75.5413C218.424 75.6327 217.417 75.9067 216.137 76.0894C214.856 76.1807 213.85 76.1807 213.759 76.0894Z" fill="black"/>
<path d="M204.795 78.4644C204.703 78.3731 205.71 77.9164 206.899 77.551C208.088 77.1856 209.185 76.9116 209.185 77.0943C209.185 77.1856 208.271 77.6423 207.082 78.0077C205.892 78.3731 204.886 78.5558 204.795 78.4644Z" fill="black"/>
<path d="M196.471 82.4835C196.38 82.3921 197.294 81.7527 198.392 81.2047C199.49 80.5653 200.496 80.1999 200.587 80.2912C200.679 80.3826 199.764 81.022 198.666 81.57C197.477 82.2095 196.471 82.5748 196.471 82.4835Z" fill="black"/>
<path d="M188.971 88.0555C188.879 87.9641 189.611 87.2334 190.617 86.4113C191.623 85.5892 192.446 85.0411 192.538 85.1325C192.629 85.2238 191.898 85.9546 190.891 86.7767C189.977 87.5988 189.062 88.1468 188.971 88.0555Z" fill="black"/>
<path d="M182.934 95.0887C182.843 94.9974 183.3 94.0839 184.123 93.0792C184.947 92.0744 185.678 91.3436 185.77 91.435C185.861 91.5263 185.221 92.3484 184.489 93.3532C183.666 94.358 183.026 95.1801 182.934 95.0887Z" fill="black"/>
<path d="M179.55 101.117C179.458 101.026 179.55 100.569 179.824 100.021C180.099 99.4733 180.465 99.0165 180.556 99.1079C180.648 99.1992 180.556 99.6559 180.282 100.204C180.007 100.752 179.641 101.209 179.55 101.117Z" fill="black"/>
<path d="M121.377 155.011C121.377 154.919 121.834 154.737 122.475 154.645C123.115 154.554 123.572 154.645 123.664 154.737C123.664 154.828 123.206 155.011 122.566 155.102C121.926 155.193 121.377 155.193 121.377 155.011Z" fill="black"/>
<path d="M112.321 154.006C112.321 153.914 113.327 154.097 114.608 154.371C115.797 154.645 116.803 154.828 116.803 155.01C116.803 155.102 115.706 155.102 114.516 154.919C113.236 154.554 112.321 154.097 112.321 154.006Z" fill="black"/>
<path d="M104.182 149.987C104.273 149.895 105.188 150.352 106.194 150.992C107.291 151.631 108.115 152.179 108.115 152.27C108.023 152.362 107.108 151.996 106.011 151.357C104.822 150.717 104.09 150.078 104.182 149.987Z" fill="black"/>
<path d="M97.3212 143.867C97.4127 143.775 98.1444 144.506 99.0591 145.328C99.9738 146.242 100.614 146.972 100.523 147.064C100.431 147.155 99.6079 146.516 98.6932 145.694C97.87 144.78 97.2297 143.958 97.3212 143.867Z" fill="black"/>
<path d="M92.0156 136.468C92.1071 136.377 92.7474 137.199 93.4791 138.295C94.2108 139.391 94.6682 140.304 94.5767 140.304C94.4852 140.396 93.845 139.574 93.1132 138.477C92.29 137.473 91.8327 136.559 92.0156 136.468Z" fill="black"/>
<path d="M87.9912 128.156C88.0826 128.156 88.6314 128.978 89.0888 130.165C89.5461 131.353 89.912 132.266 89.729 132.358C89.6376 132.449 89.0888 131.535 88.6314 130.348C88.1741 129.252 87.8997 128.247 87.9912 128.156Z" fill="black"/>
<path d="M85.4302 119.478C85.5216 119.478 85.8875 120.391 86.2534 121.67C86.6192 122.858 86.7107 123.863 86.6192 123.954C86.5278 123.954 86.1619 123.04 85.796 121.762C85.4302 120.483 85.2472 119.478 85.4302 119.478Z" fill="black"/>
<path d="M83.7837 110.435C83.8752 110.435 84.1496 111.44 84.3325 112.627C84.5154 113.906 84.6069 114.911 84.424 114.911C84.3325 114.911 84.0581 113.906 83.8752 112.719C83.6922 111.44 83.6922 110.435 83.7837 110.435Z" fill="black"/>
<path d="M82.9601 101.3C83.0516 101.3 83.326 102.305 83.4175 103.584C83.5089 104.863 83.5089 105.867 83.326 105.867C83.2345 105.867 83.0516 104.863 82.8687 103.584C82.7772 102.305 82.7772 101.3 82.9601 101.3Z" fill="black"/>
<path d="M82.5032 94.4497C82.5947 94.4497 82.7775 94.9064 82.7775 95.5458C82.7775 96.1852 82.6861 96.7333 82.5947 96.7333C82.5032 96.7333 82.3203 96.2766 82.3203 95.6372C82.3203 94.9978 82.4118 94.4497 82.5032 94.4497Z" fill="black"/>
<path d="M116.926 39.0715L40.9092 42.6504L43.3247 93.8379L119.342 90.2591L116.926 39.0715Z" fill="#95165B"/>
<path d="M43.3567 93.902L40.9785 42.6581L117.079 39.0957L119.457 90.3396L43.3567 93.902ZM40.9785 42.6581L43.3567 93.8107L119.366 90.2483L116.988 39.0957L40.9785 42.6581Z" fill="black"/>
<path d="M117.26 39.6431C117.26 39.6431 117.077 39.9171 116.62 40.3738C116.071 40.8305 115.431 41.4699 114.607 42.292C112.778 44.0276 110.217 46.4025 107.016 49.4169C100.521 55.4455 91.6491 63.5752 81.8621 72.7095L81.6792 72.8922L81.4048 72.7095C81.2219 72.6182 81.0389 72.4355 80.856 72.3442C69.8799 64.3972 60.0015 57.1811 52.7756 51.8831C49.2084 49.2342 46.3729 47.1333 44.2691 45.5804C43.3545 44.8497 42.5313 44.3016 41.9825 43.8449C41.4337 43.4795 41.1593 43.2055 41.2507 43.2055C41.3422 43.2055 41.5251 43.3882 42.0739 43.7535C42.6227 44.1189 43.4459 44.667 44.4521 45.3977C46.5558 46.8592 49.4828 48.9601 53.05 51.5178C60.3674 56.7244 70.2458 63.9405 81.3133 71.7961C81.4963 71.9788 81.6792 72.0701 81.8621 72.1615H81.4048C91.2832 63.1184 100.247 54.9888 106.741 49.0515C109.943 46.1285 112.595 43.8449 114.424 42.1093C115.339 41.3786 115.979 40.7392 116.528 40.2825C116.985 39.8258 117.26 39.6431 117.26 39.6431Z" fill="black"/>
<path d="M43.6295 94.4493C43.4466 94.358 48.8431 87.0505 55.7032 78.1901C62.4717 69.3298 68.1427 62.2049 68.3256 62.2963C68.5085 62.3876 63.112 69.6951 56.252 78.5555C49.3919 87.4158 43.721 94.5407 43.6295 94.4493Z" fill="black"/>
<path d="M93.4788 60.4697C93.6618 60.3783 99.6071 67.0464 106.833 75.4501C114.059 83.8537 119.821 90.7045 119.638 90.8872C119.456 90.9785 113.51 84.3104 106.284 75.9068C99.0583 67.5032 93.2959 60.6524 93.4788 60.4697Z" fill="black"/>
<path d="M177.08 220.961C177.263 219.956 176.531 218.951 175.525 218.677L173.513 218.86L166.196 216.302C164.824 215.937 163.451 216.942 163.451 218.312C163.451 220.413 162.537 226.076 160.89 224.34L160.799 224.249C158.421 221.6 155.585 220.321 154.579 220.413C153.573 220.595 153.299 221.874 154.03 222.605C154.122 222.696 154.305 222.879 154.488 222.879C154.579 222.879 154.671 222.97 154.762 222.97C155.677 223.518 156.774 224.615 157.506 225.437C158.238 226.259 158.878 227.172 159.335 228.177C159.793 229.273 160.25 230.278 160.525 231.1L160.616 237.768L157.689 269.099C157.689 269.099 138.39 248.821 138.847 248.638L139.944 280.152L151.652 289.834C156.591 293.944 163.726 294.31 169.122 290.839C173.33 288.098 175.891 283.349 175.8 278.325L175.159 237.859L175.617 232.561L177.08 220.961Z" fill="#FFBE9D"/>
<path d="M68.6915 265.445L47.5626 313.675L30.8242 348.477L18.3846 352.679C18.3846 352.679 8.59766 355.51 8.59766 357.52C8.59766 359.529 11.1587 359.073 11.1587 359.073C11.6161 362.087 15.8236 360.352 18.7505 358.981C21.6774 357.611 28.2631 357.337 28.2631 357.337C26.4337 358.707 27.074 360.9 28.0801 361.63C29.0863 362.361 30.9156 361.448 32.1962 360.169C33.3852 358.89 36.5866 358.251 40.0623 356.972C43.5381 355.693 44.1783 351.035 44.1783 351.035L86.4361 279.878L68.6915 265.445Z" fill="#FFBE9D"/>
<path d="M138.756 282.983L144.061 290.017L155.586 264.532C155.586 264.532 144.427 250.921 140.311 245.167C136.286 239.503 133.176 238.499 133.176 238.499C133.176 238.499 125.767 236.306 122.017 236.398L103.632 237.494L84.9729 245.624C80.3996 247.633 76.4665 250.921 73.7225 255.032L56.3438 283.166L81.2228 293.762L89.5463 341.352C91.1012 348.477 92.5647 355.236 99.1503 358.525L145.25 314.314L139.853 305.819L138.756 282.983Z" fill="#95165B"/>
<g opacity="0.3">
<path opacity="0.3" d="M84.4243 312.122C84.3329 311.665 90.3697 280.7 90.3697 280.7L81.3145 294.219" fill="#272727"/>
</g>
<g opacity="0.2">
<g opacity="0.2">
<path opacity="0.2" d="M100.797 334.775C99.3339 333.588 99.6997 331.03 100.98 329.66C102.261 328.29 104.182 327.651 106.011 327.011C114.792 324.179 123.573 320.16 129.335 313.036C130.158 312.031 130.89 311.026 131.896 310.295C132.902 309.564 134.366 309.199 135.463 309.839C137.201 310.752 137.293 313.31 136.561 315.136C135.646 317.42 133.908 319.338 131.713 320.434" fill="#272727"/>
</g>
</g>
<g opacity="0.2">
<path opacity="0.2" d="M137.749 258.777L142.871 288.373L138.938 283.166L137.749 258.777Z" fill="#272727"/>
</g>
<path d="M186.41 336.602L177.721 366.197L214.582 377.159C215.405 373.596 198.484 360.9 198.484 360.9L204.795 342.174L186.41 336.602Z" fill="#95165B"/>
<g opacity="0.6">
<g opacity="0.6">
<g opacity="0.6">
<g opacity="0.6">
<path opacity="0.6" d="M187.599 355.876C186.867 355.876 186.135 356.515 186.044 357.246C185.952 357.977 186.684 358.799 187.416 358.799C188.148 358.799 189.062 358.068 189.062 357.337C189.062 356.606 188.239 355.693 187.416 355.876" fill="white"/>
</g>
</g>
</g>
</g>
<g opacity="0.6">
<g opacity="0.6">
<g opacity="0.6">
<path opacity="0.6" d="M177.812 366.197L178.819 363.274L213.759 374.875C213.759 374.875 215.223 376.063 214.674 377.159L177.812 366.197Z" fill="white"/>
</g>
</g>
</g>
<path d="M199.124 360.808C199.033 360.991 198.118 360.808 197.112 361.082C196.014 361.356 195.374 361.996 195.191 361.904C195.008 361.813 195.648 360.808 196.929 360.443C198.209 360.169 199.215 360.626 199.124 360.808Z" fill="#272727"/>
<path d="M202.508 363.549C202.508 363.731 201.594 363.823 200.77 364.371C199.947 364.919 199.49 365.741 199.307 365.65C199.124 365.65 199.307 364.553 200.405 363.823C201.502 363.183 202.6 363.366 202.508 363.549Z" fill="#272727"/>
<path d="M203.332 368.847C203.149 368.847 203.149 367.842 203.972 367.02C204.704 366.198 205.71 366.015 205.71 366.198C205.801 366.38 205.07 366.746 204.429 367.476C203.789 368.116 203.515 368.847 203.332 368.847Z" fill="#272727"/>
<path d="M200.13 356.424C200.039 356.606 199.216 356.058 198.209 355.876C197.203 355.602 196.289 355.693 196.197 355.51C196.106 355.328 197.112 354.871 198.301 355.236C199.581 355.419 200.222 356.241 200.13 356.424Z" fill="#272727"/>
<path d="M200.587 351.765C200.587 351.856 199.855 351.765 198.758 351.217C198.209 350.943 197.569 350.578 197.02 350.03C196.746 349.756 196.38 349.482 196.105 349.116C196.014 348.933 195.831 348.751 195.648 348.477C195.465 348.203 195.556 347.746 195.831 347.472C196.105 347.289 196.471 347.198 196.746 347.289C197.02 347.381 197.203 347.472 197.386 347.563C197.752 347.746 198.118 348.02 198.392 348.294C199.032 348.842 199.49 349.39 199.764 349.938C200.404 350.943 200.496 351.765 200.404 351.765C200.313 351.765 200.038 351.126 199.398 350.212C199.032 349.756 198.575 349.299 198.026 348.842C197.752 348.568 197.386 348.385 197.02 348.203C196.654 348.02 196.288 347.929 196.197 348.02C196.105 348.111 196.105 348.111 196.197 348.203C196.288 348.294 196.38 348.477 196.471 348.659C196.746 348.933 197.02 349.207 197.294 349.482C197.843 350.03 198.392 350.395 198.849 350.669C199.855 351.4 200.587 351.674 200.587 351.765Z" fill="#272727"/>
<path d="M200.222 351.948C200.131 351.948 199.948 351.217 200.222 350.03C200.405 349.482 200.588 348.751 201.045 348.111C201.228 347.746 201.503 347.472 201.868 347.107C202.234 346.833 202.6 346.376 203.332 346.559C203.698 346.65 203.881 347.015 203.972 347.289C204.064 347.563 203.972 347.837 203.972 348.02C203.881 348.477 203.789 348.933 203.606 349.299C203.24 350.03 202.783 350.578 202.234 350.943C201.228 351.674 200.405 351.674 200.405 351.582C200.405 351.491 201.137 351.308 201.96 350.578C202.326 350.212 202.783 349.664 203.058 349.025C203.24 348.659 203.332 348.294 203.332 347.929C203.423 347.563 203.332 347.198 203.149 347.198C202.966 347.107 202.6 347.381 202.326 347.655C202.051 347.929 201.777 348.203 201.594 348.477C201.137 349.116 200.862 349.664 200.679 350.212C200.314 351.217 200.314 351.948 200.222 351.948Z" fill="#272727"/>
<path d="M224.277 292.483C225.192 299.334 222.905 307.007 220.436 313.492L204.246 351.4L186.41 348.66C186.41 348.66 182.66 352.77 177.904 354.414C175.8 355.145 168.757 356.515 162.994 352.313C162.994 352.313 154.854 363.64 141.957 367.111C129.06 370.582 109.669 372.409 100.248 357.429L145.067 314.314C145.982 314.497 183.666 289.103 204.063 283.349C203.972 283.349 222.539 279.969 224.277 292.483Z" fill="#272727"/>
<path d="M185.037 348.477C185.037 348.477 185.129 348.386 185.312 348.294C185.495 348.203 185.769 348.112 186.043 347.929C186.684 347.564 187.598 347.107 188.879 346.467C190.068 345.828 191.532 344.915 193.178 343.818C194.733 342.722 196.471 341.261 198.026 339.343C199.581 337.424 200.678 334.958 201.136 332.126C201.593 329.295 201.41 326.189 200.77 322.992C200.038 319.886 198.574 316.598 195.83 314.406C193.086 312.214 189.428 311.117 185.769 310.843C183.94 310.661 182.019 310.752 180.19 310.935C178.36 311.117 176.622 311.483 174.884 311.848C171.409 312.67 168.207 313.858 165.28 315.137C159.335 317.785 154.121 320.526 149.548 322.535C144.975 324.545 141.133 325.732 138.481 326.28C137.84 326.463 137.2 326.554 136.651 326.646C136.102 326.737 135.645 326.829 135.279 326.829C134.913 326.829 134.639 326.92 134.456 326.92C134.273 326.92 134.182 326.92 134.182 326.92C134.182 326.92 134.273 326.92 134.456 326.829C134.639 326.829 134.913 326.737 135.279 326.737C135.645 326.646 136.102 326.646 136.56 326.554C137.109 326.463 137.657 326.372 138.389 326.189C141.042 325.55 144.883 324.362 149.365 322.353C153.847 320.343 159.061 317.511 165.006 314.862C168.024 313.584 171.226 312.305 174.702 311.483C176.439 311.026 178.269 310.752 180.098 310.569C181.927 310.387 183.848 310.387 185.678 310.478C189.428 310.752 193.178 311.939 196.013 314.132C197.385 315.228 198.574 316.689 199.398 318.242C200.221 319.795 200.77 321.439 201.136 322.992C201.867 326.189 201.959 329.386 201.501 332.309C201.044 335.232 199.855 337.79 198.209 339.708C196.654 341.626 194.916 343.088 193.269 344.184C191.623 345.28 190.16 346.102 188.97 346.741C187.781 347.381 186.775 347.838 186.135 348.203C185.861 348.386 185.586 348.477 185.403 348.568C185.129 348.477 185.037 348.477 185.037 348.477Z" fill="black"/>
<path d="M196.197 298.694C196.288 298.786 194.642 301.526 192.447 304.814C190.252 308.103 188.422 310.752 188.331 310.66C188.239 310.569 189.886 307.829 192.081 304.54C194.276 301.252 196.105 298.694 196.197 298.694Z" fill="black"/>
<path d="M183.3 345.462C183.3 345.554 182.02 345.828 180.007 346.284C177.995 346.741 175.251 347.563 172.233 348.568C169.214 349.573 166.653 350.76 164.732 351.582C162.811 352.405 161.714 353.044 161.714 352.953C161.714 352.953 161.988 352.77 162.446 352.496C162.903 352.222 163.726 351.765 164.641 351.308C166.47 350.395 169.123 349.207 172.141 348.111C175.16 347.107 177.904 346.376 179.916 345.919C180.922 345.736 181.745 345.554 182.294 345.462C183.026 345.462 183.3 345.462 183.3 345.462Z" fill="black"/>
<path d="M157.232 196.572C157.232 196.572 163.178 194.745 171.135 185.885C179.093 177.025 182.294 165.789 183.301 165.789C184.307 165.789 188.789 163.323 198.85 181.592C208.911 199.86 205.893 204.519 204.155 204.61C202.417 204.702 190.435 202.327 183.118 203.697C175.8 205.067 166.654 209.634 166.654 209.634L157.232 196.572Z" fill="url(#paint0_linear_4419_40229)"/>
<path d="M145.067 207.808L147.445 211.553L148.543 213.288C150.006 215.572 153.025 216.394 155.403 215.024L168.117 209.543L159.244 192.827L146.713 200.683C144.244 202.236 143.512 205.433 145.067 207.808Z" fill="#333945"/>
<path d="M153.024 213.562L157.781 221.418L159.793 220.687L174.153 230.735L177.355 223.062C177.355 223.062 169.123 220.23 167.385 217.49C165.647 214.749 167.385 213.927 167.385 213.927L163.269 209.908L153.024 213.562Z" fill="#333945"/>
<path d="M198.209 181.957C203.606 191.822 206.167 200.865 204.063 202.053C201.868 203.24 195.739 196.207 190.343 186.25C184.946 176.385 182.385 167.342 184.489 166.155C186.684 164.967 192.812 172.092 198.209 181.957Z" fill="#333945"/>
<path d="M144.335 213.562L147.811 212.192L145.341 208.173L142.78 210.091L144.335 213.562Z" fill="url(#paint1_linear_4419_40229)"/>
<path d="M164.732 211.187L155.768 217.946L154.396 215.754L164.732 211.187Z" fill="url(#paint2_linear_4419_40229)"/>
<path d="M145.341 208.173L147.811 212.192L147.079 212.466L144.976 208.447L145.341 208.173Z" fill="url(#paint3_linear_4419_40229)"/>
<path d="M147.811 208.995C147.903 209.086 149.549 208.264 151.653 207.168C153.665 206.072 155.312 205.067 155.22 204.976C155.129 204.884 153.482 205.706 151.378 206.803C149.366 207.899 147.72 208.903 147.811 208.995Z" fill="url(#paint4_linear_4419_40229)"/>
<path d="M146.53 206.62C146.622 206.711 148.177 205.981 150.006 204.885C151.836 203.788 153.299 202.875 153.208 202.692C153.116 202.601 151.561 203.332 149.732 204.428C147.902 205.524 146.439 206.529 146.53 206.62Z" fill="url(#paint5_linear_4419_40229)"/>
<path d="M149.366 211.461C149.366 211.552 149.824 211.37 150.464 211.096C150.83 211.004 151.196 210.822 151.561 210.639C152.019 210.456 152.385 210.182 152.933 209.908C154.763 208.903 156.226 207.899 156.135 207.807C156.043 207.716 154.58 208.538 152.659 209.543C152.202 209.817 151.744 210.091 151.378 210.274C151.013 210.456 150.647 210.639 150.281 210.822C149.732 211.187 149.366 211.461 149.366 211.461Z" fill="url(#paint6_linear_4419_40229)"/>
<path d="M188.605 180.404C188.605 180.404 193.636 176.75 197.112 183.693C200.496 190.635 195.1 192.188 195.1 192.188C192.539 188.808 190.343 184.88 188.605 180.404Z" fill="url(#paint7_linear_4419_40229)"/>
<path d="M182.386 172.274C182.386 172.274 182.477 172.731 182.66 173.645C182.935 174.467 183.209 175.745 183.666 177.298C183.941 178.029 184.215 178.851 184.581 179.765C184.764 180.221 184.947 180.678 185.13 181.135C185.221 181.409 185.313 181.591 185.404 181.866C185.496 182.14 185.587 182.322 185.77 182.596C186.227 183.51 186.685 184.514 187.233 185.611C187.325 185.885 187.508 186.159 187.599 186.433C187.691 186.707 187.874 186.981 188.057 187.163C188.331 187.712 188.697 188.168 188.971 188.716C189.246 189.264 189.612 189.721 189.886 190.269C190.069 190.543 190.16 190.817 190.343 191C190.526 191.274 190.709 191.457 190.801 191.731C191.441 192.644 192.081 193.558 192.722 194.471C192.904 194.654 192.996 194.928 193.179 195.11C193.362 195.293 193.545 195.476 193.636 195.658C193.911 196.024 194.276 196.389 194.551 196.755C195.191 197.485 195.74 198.125 196.197 198.764C197.295 199.952 198.21 200.774 198.85 201.413C199.49 202.053 199.856 202.327 199.856 202.327C199.856 202.327 199.582 201.961 198.941 201.23C198.301 200.591 197.478 199.586 196.38 198.49C195.923 197.851 195.374 197.211 194.734 196.481C194.459 196.115 194.185 195.75 193.819 195.384C193.636 195.202 193.545 195.019 193.362 194.836C193.179 194.654 193.087 194.38 192.904 194.197C192.356 193.375 191.715 192.461 191.075 191.457C190.892 191.183 190.709 191 190.618 190.726C190.435 190.452 190.343 190.269 190.16 189.995C189.886 189.447 189.52 188.99 189.246 188.442C188.971 187.894 188.606 187.438 188.331 186.889C188.148 186.615 188.057 186.433 187.874 186.159C187.782 185.885 187.599 185.611 187.508 185.428C187.051 184.423 186.502 183.418 186.044 182.505C185.953 182.231 185.77 182.048 185.679 181.774C185.587 181.5 185.496 181.317 185.404 181.043C185.221 180.587 185.038 180.13 184.855 179.673C184.489 178.851 184.215 178.029 183.849 177.298C183.392 175.837 182.935 174.558 182.66 173.736C182.569 172.731 182.386 172.274 182.386 172.274Z" fill="#333945"/>
<path d="M168.757 213.836C169.58 214.11 170.037 214.932 169.854 215.754C169.489 217.307 168.848 219.773 168.299 221.235C168.117 221.692 167.934 222.24 167.659 222.605C167.293 222.97 166.836 223.244 166.287 223.153C165.738 223.062 165.373 222.514 165.281 221.966C165.19 221.418 165.281 220.87 165.373 220.413C165.738 218.951 166.287 216.759 166.836 215.024C167.11 214.11 167.934 213.653 168.757 213.836Z" fill="#FFBE9D"/>
<path d="M171.227 216.394C172.05 216.668 172.507 217.49 172.324 218.312C171.958 219.865 171.318 222.331 170.769 223.793C170.586 224.249 170.403 224.797 170.129 225.163C169.763 225.528 169.306 225.802 168.757 225.711C168.208 225.619 167.842 225.071 167.751 224.523C167.659 223.975 167.751 223.427 167.842 222.971C168.208 221.509 168.757 219.317 169.306 217.581C169.58 216.576 170.403 216.12 171.227 216.394Z" fill="#FFBE9D"/>
<path d="M173.604 217.855C174.336 218.038 174.702 218.769 174.519 219.499C174.153 220.87 173.604 222.97 173.147 224.249C172.964 224.706 172.872 225.071 172.598 225.437C172.324 225.802 171.866 225.985 171.409 225.894C170.952 225.802 170.677 225.345 170.586 224.889C170.494 224.432 170.586 223.975 170.677 223.519C170.952 222.24 171.5 220.413 171.866 218.86C172.141 218.129 172.964 217.673 173.604 217.855Z" fill="#FFBE9D"/>
<path d="M176.349 218.22C177.081 218.403 177.447 219.134 177.264 219.864C176.898 221.235 176.349 223.336 175.892 224.614C175.709 225.071 175.617 225.436 175.251 225.802C174.977 226.167 174.52 226.35 174.062 226.259C173.605 226.167 173.331 225.711 173.239 225.254C173.148 224.797 173.239 224.34 173.331 223.884C173.605 222.605 174.154 220.687 174.611 219.225C174.885 218.403 175.617 217.946 176.349 218.22Z" fill="#FFBE9D"/>
<path d="M167.934 222.605C167.842 222.605 168.116 221.235 168.574 219.682C169.031 218.129 169.58 216.85 169.671 216.942C169.763 216.942 169.488 218.312 169.031 219.865C168.574 221.417 168.025 222.605 167.934 222.605Z" fill="#EB996E"/>
<path d="M173.056 224.706C172.965 224.614 173.331 223.336 173.788 221.783C174.245 220.23 174.611 218.951 174.794 218.951C174.885 218.951 174.794 220.321 174.245 221.966C173.788 223.518 173.148 224.706 173.056 224.706Z" fill="#EB996E"/>
<path d="M170.495 224.341C170.403 224.249 170.769 222.97 171.226 221.418C171.684 219.865 172.05 218.586 172.232 218.586C172.324 218.586 172.232 219.956 171.684 221.6C171.226 223.153 170.678 224.341 170.495 224.341Z" fill="#EB996E"/>
<path d="M216.96 147.064C217.052 147.155 213.301 152.27 208.545 158.39C203.789 164.602 199.856 169.534 199.764 169.443C199.673 169.352 203.423 164.236 208.179 158.116C212.936 151.996 216.869 146.972 216.96 147.064Z" fill="#272727"/>
<path d="M241.565 161.587C241.657 161.679 233.699 165.515 223.912 169.991C214.125 174.558 206.167 178.12 206.076 178.029C205.985 177.938 213.942 174.101 223.729 169.625C233.516 165.058 241.474 161.496 241.565 161.587Z" fill="#272727"/>
<path d="M237.906 191.731C237.906 191.822 232.235 191.457 225.375 190.726C218.423 190.087 212.844 189.447 212.844 189.265C212.844 189.173 218.515 189.539 225.375 190.27C232.326 191 237.906 191.64 237.906 191.731Z" fill="#272727"/>
<path d="M93.6619 208.63L99.8817 243.888C100.979 250.008 106.742 254.119 112.961 253.297C119.456 252.383 123.938 246.446 122.84 240.143L121.834 234.114C121.834 234.114 130.523 231.74 129.608 223.062C129.151 218.86 127.596 210.274 126.041 202.51C124.303 193.832 115.888 188.077 107.016 189.539C97.8694 191.092 91.8326 199.769 93.6619 208.63Z" fill="#FFBE9D"/>
<path d="M126.041 187.62C124.852 186.707 123.023 186.798 122.017 187.894C122.84 186.798 122.382 185.063 121.285 184.241C120.187 183.418 118.632 183.327 117.26 183.693C115.888 184.058 114.699 184.789 113.51 185.519C113.602 184.971 113.327 184.423 112.87 184.058C112.413 183.693 111.864 183.601 111.315 183.601C109.028 183.327 106.742 184.058 104.729 185.063C102.717 186.067 100.43 187.803 98.601 189.173C96.7717 190.635 94.8509 192.553 93.0215 195.111C93.0215 195.111 93.0215 195.111 92.9301 195.202C91.6495 196.389 90.5519 199.86 90.7349 201.505C91.4666 207.807 93.5703 211.37 94.6679 217.307C94.7594 217.672 94.8509 218.129 95.1253 218.403C95.857 219.134 97.1376 218.495 97.8693 217.764C99.5157 215.846 100.156 213.197 100.156 210.73C100.247 208.173 99.8816 205.706 99.973 203.149C99.973 203.057 99.973 203.057 99.973 202.966C99.973 202.327 100.065 201.687 100.156 201.048C100.247 200.682 101.345 197.029 104.821 196.481C108.479 195.841 115.797 199.404 119.364 198.856C122.931 198.308 123.114 195.75 123.114 195.75L125.218 200.043C125.218 200.043 126.041 197.485 125.584 194.654C126.498 193.832 127.139 192.736 127.413 191.548C127.688 190.087 127.23 188.442 126.041 187.62Z" fill="#272727"/>
<path d="M97.138 212.466C96.9551 212.375 90.8268 211.37 91.7414 217.307C92.6561 223.244 98.51 221.144 98.51 220.961C98.4185 220.778 97.138 212.466 97.138 212.466Z" fill="#FFBE9D"/>
<path d="M96.3145 218.951C96.3145 218.951 96.223 219.043 96.0401 219.134C95.8571 219.226 95.5827 219.317 95.2169 219.226C94.5766 219.043 93.8449 218.129 93.6619 217.125C93.5705 216.577 93.5705 216.028 93.7534 215.572C93.8449 215.115 94.1193 214.75 94.3937 214.658C94.6681 214.567 94.9425 214.658 95.0339 214.841C95.1254 215.024 95.1254 215.115 95.1254 215.115C95.1254 215.115 95.2169 215.024 95.1254 214.75C95.1254 214.658 95.0339 214.476 94.851 214.384C94.6681 214.293 94.4851 214.293 94.2107 214.293C93.7534 214.384 93.3875 214.841 93.2961 215.389C93.1131 215.937 93.1131 216.485 93.2046 217.125C93.3875 218.312 94.2107 219.317 95.1254 219.5C95.5827 219.591 95.8571 219.408 96.0401 219.226C96.3145 219.043 96.3145 218.951 96.3145 218.951Z" fill="#EB996E"/>
<defs>
<linearGradient id="paint0_linear_4419_40229" x1="157.232" y1="165.678" x2="200.956" y2="214.157" gradientUnits="userSpaceOnUse">
<stop stop-color="#A0CA3F"/>
<stop offset="1" stop-color="#7B9C30"/>
</linearGradient>
<linearGradient id="paint1_linear_4419_40229" x1="142.78" y1="208.173" x2="148.157" y2="213.192" gradientUnits="userSpaceOnUse">
<stop stop-color="#A0CA3F"/>
<stop offset="1" stop-color="#7B9C30"/>
</linearGradient>
<linearGradient id="paint2_linear_4419_40229" x1="154.396" y1="211.187" x2="160.589" y2="220.656" gradientUnits="userSpaceOnUse">
<stop stop-color="#A0CA3F"/>
<stop offset="1" stop-color="#7B9C30"/>
</linearGradient>
<linearGradient id="paint3_linear_4419_40229" x1="144.976" y1="208.173" x2="148.924" y2="210.781" gradientUnits="userSpaceOnUse">
<stop stop-color="#A0CA3F"/>
<stop offset="1" stop-color="#7B9C30"/>
</linearGradient>
<linearGradient id="paint4_linear_4419_40229" x1="147.808" y1="204.969" x2="151.193" y2="211.194" gradientUnits="userSpaceOnUse">
<stop stop-color="#A0CA3F"/>
<stop offset="1" stop-color="#7B9C30"/>
</linearGradient>
<linearGradient id="paint5_linear_4419_40229" x1="146.526" y1="202.685" x2="149.977" y2="208.535" gradientUnits="userSpaceOnUse">
<stop stop-color="#A0CA3F"/>
<stop offset="1" stop-color="#7B9C30"/>
</linearGradient>
<linearGradient id="paint6_linear_4419_40229" x1="149.366" y1="207.8" x2="152.46" y2="213.486" gradientUnits="userSpaceOnUse">
<stop stop-color="#A0CA3F"/>
<stop offset="1" stop-color="#7B9C30"/>
</linearGradient>
<linearGradient id="paint7_linear_4419_40229" x1="188.605" y1="179.443" x2="200.862" y2="188.697" gradientUnits="userSpaceOnUse">
<stop stop-color="#A0CA3F"/>
<stop offset="1" stop-color="#7B9C30"/>
</linearGradient>
</defs>
</svg>
