<svg width="982" height="633" viewBox="0 0 982 633" fill="none" xmlns="http://www.w3.org/2000/svg">
<g filter="url(#filter0_dd_5546_42508)">
<g clip-path="url(#clip0_5546_42508)">
<rect x="262" y="22" width="689" height="422" rx="4" fill="white"/>
<rect x="262" y="22" width="689" height="422" fill="url(#paint0_linear_5546_42508)"/>
<path d="M287.434 61H286.02L280.651 52.7822V61H279.238V50.3359H280.651L286.035 58.5903V50.3359H287.434V61ZM294.611 61C294.533 60.8438 294.47 60.5654 294.421 60.165C293.791 60.8193 293.039 61.1465 292.165 61.1465C291.384 61.1465 290.742 60.9268 290.239 60.4873C289.741 60.043 289.492 59.4814 289.492 58.8027C289.492 57.9775 289.804 57.3379 290.429 56.8838C291.059 56.4248 291.943 56.1953 293.081 56.1953H294.399V55.5728C294.399 55.0991 294.257 54.7231 293.974 54.4448C293.691 54.1616 293.273 54.02 292.722 54.02C292.238 54.02 291.833 54.1421 291.506 54.3862C291.179 54.6304 291.015 54.9258 291.015 55.2725H289.653C289.653 54.877 289.792 54.4961 290.07 54.1299C290.354 53.7588 290.734 53.4658 291.213 53.251C291.696 53.0361 292.226 52.9287 292.802 52.9287C293.715 52.9287 294.431 53.1582 294.948 53.6172C295.466 54.0713 295.734 54.6987 295.754 55.4995V59.147C295.754 59.8745 295.847 60.4531 296.032 60.8828V61H294.611ZM292.363 59.9673C292.788 59.9673 293.19 59.8574 293.571 59.6377C293.952 59.418 294.228 59.1323 294.399 58.7808V57.1548H293.337C291.677 57.1548 290.847 57.6406 290.847 58.6123C290.847 59.0371 290.988 59.3691 291.271 59.6084C291.555 59.8477 291.918 59.9673 292.363 59.9673ZM299.152 53.0752L299.189 53.9541C299.77 53.2705 300.554 52.9287 301.54 52.9287C302.648 52.9287 303.403 53.3535 303.803 54.2031C304.067 53.8223 304.409 53.5146 304.829 53.2803C305.253 53.0459 305.754 52.9287 306.33 52.9287C308.068 52.9287 308.952 53.8491 308.981 55.6899V61H307.626V55.7705C307.626 55.2041 307.497 54.7817 307.238 54.5034C306.979 54.2202 306.545 54.0786 305.935 54.0786C305.432 54.0786 305.014 54.23 304.682 54.5327C304.35 54.8306 304.157 55.2334 304.104 55.7412V61H302.741V55.8071C302.741 54.6548 302.177 54.0786 301.049 54.0786C300.161 54.0786 299.553 54.457 299.226 55.2139V61H297.871V53.0752H299.152ZM314.321 61.1465C313.247 61.1465 312.373 60.7949 311.699 60.0918C311.025 59.3838 310.688 58.439 310.688 57.2573V57.0083C310.688 56.2222 310.837 55.5215 311.135 54.9062C311.438 54.2861 311.857 53.8027 312.395 53.4561C312.937 53.1045 313.522 52.9287 314.152 52.9287C315.183 52.9287 315.983 53.2681 316.555 53.9468C317.126 54.6255 317.412 55.5972 317.412 56.8618V57.4258H312.043C312.062 58.207 312.29 58.8394 312.724 59.3228C313.164 59.8013 313.72 60.0405 314.394 60.0405C314.873 60.0405 315.278 59.9429 315.61 59.7476C315.942 59.5522 316.232 59.2935 316.481 58.9712L317.309 59.6157C316.645 60.6362 315.649 61.1465 314.321 61.1465ZM314.152 54.042C313.605 54.042 313.146 54.2422 312.775 54.6426C312.404 55.0381 312.175 55.5947 312.087 56.3125H316.057V56.21C316.018 55.5215 315.832 54.9893 315.5 54.6133C315.168 54.2324 314.719 54.042 314.152 54.042Z" fill="#79808D"/>
<path d="M280.651 163.85H285.705V165H279.238V154.336H280.651V163.85ZM291.989 165C291.911 164.844 291.848 164.565 291.799 164.165C291.169 164.819 290.417 165.146 289.543 165.146C288.762 165.146 288.12 164.927 287.617 164.487C287.119 164.043 286.87 163.481 286.87 162.803C286.87 161.978 287.182 161.338 287.807 160.884C288.437 160.425 289.321 160.195 290.458 160.195H291.777V159.573C291.777 159.099 291.635 158.723 291.352 158.445C291.069 158.162 290.651 158.02 290.1 158.02C289.616 158.02 289.211 158.142 288.884 158.386C288.557 158.63 288.393 158.926 288.393 159.272H287.031C287.031 158.877 287.17 158.496 287.448 158.13C287.731 157.759 288.112 157.466 288.591 157.251C289.074 157.036 289.604 156.929 290.18 156.929C291.093 156.929 291.809 157.158 292.326 157.617C292.844 158.071 293.112 158.699 293.132 159.5V163.147C293.132 163.875 293.225 164.453 293.41 164.883V165H291.989ZM289.741 163.967C290.166 163.967 290.568 163.857 290.949 163.638C291.33 163.418 291.606 163.132 291.777 162.781V161.155H290.715C289.055 161.155 288.225 161.641 288.225 162.612C288.225 163.037 288.366 163.369 288.649 163.608C288.933 163.848 289.296 163.967 289.741 163.967ZM296.538 157.075L296.582 158.071C297.187 157.31 297.978 156.929 298.955 156.929C300.629 156.929 301.474 157.874 301.489 159.763V165H300.134V159.756C300.129 159.185 299.997 158.762 299.738 158.489C299.484 158.215 299.086 158.079 298.544 158.079C298.105 158.079 297.719 158.196 297.387 158.43C297.055 158.665 296.796 158.972 296.611 159.353V165H295.256V157.075H296.538ZM303.21 160.972C303.21 159.736 303.496 158.755 304.067 158.027C304.638 157.295 305.395 156.929 306.337 156.929C307.304 156.929 308.059 157.271 308.601 157.954L308.667 157.075H309.904V164.81C309.904 165.835 309.599 166.643 308.989 167.234C308.383 167.825 307.568 168.12 306.542 168.12C305.971 168.12 305.412 167.998 304.865 167.754C304.318 167.51 303.901 167.175 303.613 166.75L304.316 165.938C304.897 166.655 305.607 167.014 306.447 167.014C307.106 167.014 307.619 166.829 307.985 166.458C308.356 166.086 308.542 165.564 308.542 164.89V164.209C308 164.834 307.26 165.146 306.323 165.146C305.395 165.146 304.643 164.773 304.067 164.026C303.496 163.279 303.21 162.261 303.21 160.972ZM304.572 161.125C304.572 162.019 304.755 162.722 305.122 163.235C305.488 163.743 306 163.997 306.66 163.997C307.514 163.997 308.142 163.608 308.542 162.832V159.214C308.127 158.457 307.504 158.079 306.674 158.079C306.015 158.079 305.5 158.335 305.129 158.848C304.758 159.36 304.572 160.12 304.572 161.125ZM316.848 164.216C316.32 164.836 315.546 165.146 314.526 165.146C313.681 165.146 313.037 164.902 312.592 164.414C312.153 163.921 311.931 163.193 311.926 162.231V157.075H313.281V162.195C313.281 163.396 313.769 163.997 314.746 163.997C315.781 163.997 316.469 163.611 316.811 162.839V157.075H318.166V165H316.877L316.848 164.216ZM325.124 165C325.046 164.844 324.982 164.565 324.934 164.165C324.304 164.819 323.552 165.146 322.678 165.146C321.896 165.146 321.254 164.927 320.751 164.487C320.253 164.043 320.004 163.481 320.004 162.803C320.004 161.978 320.317 161.338 320.942 160.884C321.572 160.425 322.456 160.195 323.593 160.195H324.912V159.573C324.912 159.099 324.77 158.723 324.487 158.445C324.204 158.162 323.786 158.02 323.234 158.02C322.751 158.02 322.346 158.142 322.019 158.386C321.691 158.63 321.528 158.926 321.528 159.272H320.166C320.166 158.877 320.305 158.496 320.583 158.13C320.866 157.759 321.247 157.466 321.726 157.251C322.209 157.036 322.739 156.929 323.315 156.929C324.228 156.929 324.943 157.158 325.461 157.617C325.979 158.071 326.247 158.699 326.267 159.5V163.147C326.267 163.875 326.359 164.453 326.545 164.883V165H325.124ZM322.875 163.967C323.3 163.967 323.703 163.857 324.084 163.638C324.465 163.418 324.741 163.132 324.912 162.781V161.155H323.85C322.189 161.155 321.359 161.641 321.359 162.612C321.359 163.037 321.501 163.369 321.784 163.608C322.067 163.848 322.431 163.967 322.875 163.967ZM328.068 160.972C328.068 159.736 328.354 158.755 328.925 158.027C329.497 157.295 330.253 156.929 331.196 156.929C332.163 156.929 332.917 157.271 333.459 157.954L333.525 157.075H334.763V164.81C334.763 165.835 334.458 166.643 333.847 167.234C333.242 167.825 332.426 168.12 331.401 168.12C330.83 168.12 330.271 167.998 329.724 167.754C329.177 167.51 328.759 167.175 328.471 166.75L329.174 165.938C329.755 166.655 330.466 167.014 331.306 167.014C331.965 167.014 332.478 166.829 332.844 166.458C333.215 166.086 333.4 165.564 333.4 164.89V164.209C332.858 164.834 332.119 165.146 331.181 165.146C330.253 165.146 329.501 164.773 328.925 164.026C328.354 163.279 328.068 162.261 328.068 160.972ZM329.431 161.125C329.431 162.019 329.614 162.722 329.98 163.235C330.346 163.743 330.859 163.997 331.518 163.997C332.373 163.997 333 163.608 333.4 162.832V159.214C332.985 158.457 332.363 158.079 331.533 158.079C330.874 158.079 330.358 158.335 329.987 158.848C329.616 159.36 329.431 160.12 329.431 161.125ZM340.102 165.146C339.028 165.146 338.154 164.795 337.48 164.092C336.806 163.384 336.469 162.439 336.469 161.257V161.008C336.469 160.222 336.618 159.521 336.916 158.906C337.219 158.286 337.639 157.803 338.176 157.456C338.718 157.104 339.304 156.929 339.934 156.929C340.964 156.929 341.765 157.268 342.336 157.947C342.907 158.625 343.193 159.597 343.193 160.862V161.426H337.824C337.844 162.207 338.071 162.839 338.505 163.323C338.945 163.801 339.501 164.041 340.175 164.041C340.654 164.041 341.059 163.943 341.391 163.748C341.723 163.552 342.014 163.293 342.263 162.971L343.09 163.616C342.426 164.636 341.43 165.146 340.102 165.146ZM339.934 158.042C339.387 158.042 338.928 158.242 338.557 158.643C338.186 159.038 337.956 159.595 337.868 160.312H341.838V160.21C341.799 159.521 341.613 158.989 341.281 158.613C340.949 158.232 340.5 158.042 339.934 158.042Z" fill="#79808D"/>
<g opacity="0.8" filter="url(#filter1_dd_5546_42508)">
<rect x="272" y="76" width="664" height="50" rx="6" fill="white"/>
<path d="M291.72 106.126H297.853V108H289.373V94.4922H291.72V106.126ZM305.432 108C305.333 107.808 305.247 107.496 305.172 107.063C304.455 107.811 303.577 108.186 302.538 108.186C301.529 108.186 300.707 107.898 300.07 107.323C299.433 106.748 299.114 106.036 299.114 105.189C299.114 104.119 299.51 103.299 300.302 102.73C301.1 102.155 302.238 101.868 303.716 101.868H305.098V101.209C305.098 100.689 304.953 100.275 304.662 99.9658C304.371 99.6504 303.929 99.4927 303.335 99.4927C302.822 99.4927 302.402 99.6226 302.074 99.8823C301.746 100.136 301.582 100.461 301.582 100.856H299.328C299.328 100.306 299.51 99.7926 299.875 99.3164C300.24 98.834 300.735 98.4567 301.359 98.1846C301.99 97.9124 302.692 97.7764 303.465 97.7764C304.64 97.7764 305.577 98.0732 306.276 98.667C306.975 99.2546 307.334 100.083 307.353 101.153V105.681C307.353 106.584 307.479 107.304 307.733 107.842V108H305.432ZM302.955 106.376C303.4 106.376 303.818 106.268 304.208 106.052C304.603 105.835 304.9 105.545 305.098 105.18V103.287H303.883C303.048 103.287 302.42 103.432 302 103.723C301.579 104.014 301.369 104.425 301.369 104.957C301.369 105.39 301.511 105.736 301.795 105.996C302.086 106.25 302.473 106.376 302.955 106.376ZM315.795 107.017C315.133 107.796 314.193 108.186 312.975 108.186C311.886 108.186 311.06 107.867 310.498 107.23C309.941 106.593 309.663 105.671 309.663 104.465V97.9619H311.917V104.438C311.917 105.712 312.446 106.349 313.503 106.349C314.598 106.349 315.337 105.956 315.721 105.17V97.9619H317.975V108H315.851L315.795 107.017ZM325.527 100.021C325.23 99.972 324.924 99.9473 324.608 99.9473C323.576 99.9473 322.88 100.343 322.521 101.135V108H320.267V97.9619H322.419L322.475 99.0845C323.019 98.2124 323.773 97.7764 324.738 97.7764C325.06 97.7764 325.326 97.8197 325.536 97.9062L325.527 100.021ZM332.67 108C332.571 107.808 332.485 107.496 332.411 107.063C331.693 107.811 330.815 108.186 329.776 108.186C328.768 108.186 327.945 107.898 327.308 107.323C326.671 106.748 326.353 106.036 326.353 105.189C326.353 104.119 326.748 103.299 327.54 102.73C328.338 102.155 329.476 101.868 330.954 101.868H332.336V101.209C332.336 100.689 332.191 100.275 331.9 99.9658C331.61 99.6504 331.167 99.4927 330.574 99.4927C330.06 99.4927 329.64 99.6226 329.312 99.8823C328.984 100.136 328.82 100.461 328.82 100.856H326.566C326.566 100.306 326.748 99.7926 327.113 99.3164C327.478 98.834 327.973 98.4567 328.598 98.1846C329.229 97.9124 329.931 97.7764 330.704 97.7764C331.879 97.7764 332.816 98.0732 333.515 98.667C334.214 99.2546 334.572 100.083 334.591 101.153V105.681C334.591 106.584 334.718 107.304 334.971 107.842V108H332.67ZM330.193 106.376C330.639 106.376 331.056 106.268 331.446 106.052C331.842 105.835 332.139 105.545 332.336 105.18V103.287H331.121C330.286 103.287 329.658 103.432 329.238 103.723C328.817 104.014 328.607 104.425 328.607 104.957C328.607 105.39 328.749 105.736 329.034 105.996C329.324 106.25 329.711 106.376 330.193 106.376ZM352.208 103.603C352.072 105.044 351.541 106.169 350.613 106.979C349.685 107.784 348.451 108.186 346.911 108.186C345.835 108.186 344.886 107.932 344.063 107.425C343.247 106.911 342.616 106.185 342.17 105.245C341.725 104.305 341.493 103.213 341.475 101.97V100.708C341.475 99.4339 341.7 98.3114 342.152 97.3403C342.603 96.3693 343.25 95.6209 344.091 95.0952C344.938 94.5695 345.915 94.3066 347.022 94.3066C348.513 94.3066 349.713 94.7118 350.622 95.522C351.531 96.3322 352.06 97.4764 352.208 98.9546H349.871C349.759 97.9836 349.475 97.2847 349.017 96.8579C348.566 96.425 347.901 96.2085 347.022 96.2085C346.002 96.2085 345.216 96.5827 344.666 97.3311C344.122 98.0732 343.843 99.1649 343.831 100.606V101.803C343.831 103.262 344.091 104.376 344.61 105.143C345.136 105.91 345.903 106.293 346.911 106.293C347.833 106.293 348.525 106.086 348.989 105.671C349.453 105.257 349.747 104.567 349.871 103.603H352.208ZM353.674 102.888C353.674 101.905 353.869 101.02 354.259 100.235C354.648 99.4432 355.196 98.8371 355.901 98.4165C356.606 97.9897 357.416 97.7764 358.332 97.7764C359.686 97.7764 360.784 98.2124 361.625 99.0845C362.472 99.9565 362.93 101.113 362.998 102.554L363.007 103.083C363.007 104.073 362.816 104.957 362.432 105.736C362.055 106.516 361.511 107.119 360.799 107.545C360.094 107.972 359.278 108.186 358.35 108.186C356.934 108.186 355.799 107.715 354.945 106.775C354.098 105.829 353.674 104.57 353.674 103V102.888ZM355.929 103.083C355.929 104.116 356.142 104.926 356.569 105.514C356.996 106.095 357.589 106.386 358.35 106.386C359.111 106.386 359.701 106.089 360.122 105.495C360.549 104.901 360.762 104.032 360.762 102.888C360.762 101.874 360.543 101.07 360.104 100.476C359.671 99.8823 359.08 99.5854 358.332 99.5854C357.596 99.5854 357.011 99.8792 356.578 100.467C356.145 101.048 355.929 101.92 355.929 103.083ZM367.312 108H365.058V93.75H367.312V108ZM372.173 108H369.919V97.9619H372.173V108ZM369.78 95.355C369.78 95.0086 369.888 94.721 370.104 94.4922C370.327 94.2633 370.643 94.1489 371.051 94.1489C371.459 94.1489 371.774 94.2633 371.997 94.4922C372.22 94.721 372.331 95.0086 372.331 95.355C372.331 95.6951 372.22 95.9797 371.997 96.2085C371.774 96.4312 371.459 96.5425 371.051 96.5425C370.643 96.5425 370.327 96.4312 370.104 96.2085C369.888 95.9797 369.78 95.6951 369.78 95.355ZM376.729 97.9619L376.793 99.1216C377.536 98.2248 378.51 97.7764 379.716 97.7764C381.806 97.7764 382.87 98.9731 382.907 101.367V108H380.653V101.497C380.653 100.86 380.514 100.389 380.235 100.086C379.963 99.7772 379.515 99.6226 378.89 99.6226C377.981 99.6226 377.304 100.034 376.858 100.856V108H374.604V97.9619H376.729ZM390.839 105.272C390.839 104.87 390.672 104.564 390.338 104.354C390.011 104.144 389.463 103.958 388.696 103.797C387.929 103.637 387.289 103.432 386.776 103.185C385.65 102.641 385.087 101.852 385.087 100.819C385.087 99.9535 385.452 99.2298 386.182 98.6484C386.912 98.0671 387.84 97.7764 388.965 97.7764C390.165 97.7764 391.133 98.0732 391.869 98.667C392.611 99.2607 392.982 100.031 392.982 100.977H390.728C390.728 100.544 390.567 100.185 390.246 99.9009C389.924 99.6102 389.497 99.4648 388.965 99.4648C388.471 99.4648 388.065 99.5793 387.75 99.8081C387.441 100.037 387.286 100.343 387.286 100.727C387.286 101.073 387.431 101.342 387.722 101.534C388.013 101.725 388.6 101.92 389.485 102.118C390.369 102.31 391.062 102.542 391.563 102.814C392.07 103.08 392.444 103.402 392.686 103.779C392.933 104.156 393.057 104.614 393.057 105.152C393.057 106.055 392.682 106.788 391.934 107.351C391.186 107.907 390.205 108.186 388.993 108.186C388.171 108.186 387.438 108.037 386.794 107.74C386.151 107.443 385.65 107.035 385.292 106.516C384.933 105.996 384.753 105.436 384.753 104.836H386.943C386.974 105.368 387.175 105.78 387.546 106.07C387.917 106.355 388.409 106.497 389.021 106.497C389.615 106.497 390.066 106.386 390.375 106.163C390.685 105.934 390.839 105.637 390.839 105.272Z" fill="#333945"/>
</g>
<g opacity="0.8" filter="url(#filter2_dd_5546_42508)">
<rect x="272.123" y="185" width="663.692" height="45" rx="6" fill="white"/>
<path d="M294.904 207.399H290.591V210.927H295.602V212H289.278V202.047H295.533V203.127H290.591V206.326H294.904V207.399ZM298.233 204.604L298.274 205.533C298.84 204.822 299.578 204.467 300.489 204.467C302.052 204.467 302.841 205.349 302.854 207.112V212H301.59V207.105C301.585 206.572 301.462 206.178 301.221 205.923C300.984 205.668 300.612 205.54 300.106 205.54C299.696 205.54 299.336 205.649 299.026 205.868C298.716 206.087 298.475 206.374 298.302 206.729V212H297.037V204.604H298.233ZM304.461 208.24C304.461 207.087 304.728 206.171 305.261 205.492C305.794 204.809 306.5 204.467 307.38 204.467C308.282 204.467 308.986 204.786 309.492 205.424L309.554 204.604H310.709V211.822C310.709 212.779 310.424 213.534 309.854 214.085C309.289 214.636 308.528 214.912 307.571 214.912C307.038 214.912 306.516 214.798 306.006 214.57C305.495 214.342 305.106 214.03 304.837 213.634L305.493 212.875C306.035 213.545 306.699 213.88 307.482 213.88C308.098 213.88 308.576 213.707 308.918 213.36C309.264 213.014 309.438 212.526 309.438 211.897V211.262C308.932 211.845 308.241 212.137 307.366 212.137C306.5 212.137 305.799 211.788 305.261 211.091C304.728 210.394 304.461 209.443 304.461 208.24ZM305.732 208.384C305.732 209.218 305.903 209.874 306.245 210.353C306.587 210.826 307.065 211.063 307.681 211.063C308.478 211.063 309.064 210.701 309.438 209.977V206.6C309.05 205.893 308.469 205.54 307.694 205.54C307.079 205.54 306.598 205.779 306.252 206.258C305.906 206.736 305.732 207.445 305.732 208.384ZM313.997 212H312.732V201.5H313.997V212ZM317.401 212H316.137V204.604H317.401V212ZM316.034 202.642C316.034 202.437 316.096 202.263 316.219 202.122C316.346 201.981 316.533 201.91 316.779 201.91C317.025 201.91 317.212 201.981 317.34 202.122C317.467 202.263 317.531 202.437 317.531 202.642C317.531 202.847 317.467 203.018 317.34 203.154C317.212 203.291 317.025 203.359 316.779 203.359C316.533 203.359 316.346 203.291 316.219 203.154C316.096 203.018 316.034 202.847 316.034 202.642ZM323.738 210.038C323.738 209.696 323.608 209.432 323.349 209.245C323.093 209.054 322.645 208.89 322.002 208.753C321.364 208.616 320.856 208.452 320.478 208.261C320.104 208.069 319.826 207.841 319.644 207.577C319.466 207.313 319.377 206.998 319.377 206.634C319.377 206.028 319.632 205.515 320.143 205.096C320.658 204.676 321.314 204.467 322.111 204.467C322.95 204.467 323.629 204.683 324.148 205.116C324.673 205.549 324.935 206.103 324.935 206.777H323.663C323.663 206.431 323.515 206.132 323.219 205.882C322.927 205.631 322.558 205.506 322.111 205.506C321.651 205.506 321.291 205.606 321.031 205.807C320.771 206.007 320.642 206.269 320.642 206.593C320.642 206.898 320.762 207.128 321.004 207.283C321.245 207.438 321.681 207.586 322.31 207.728C322.943 207.869 323.456 208.037 323.848 208.233C324.24 208.429 324.529 208.666 324.716 208.944C324.907 209.218 325.003 209.553 325.003 209.949C325.003 210.61 324.739 211.141 324.21 211.542C323.681 211.938 322.995 212.137 322.152 212.137C321.56 212.137 321.036 212.032 320.58 211.822C320.124 211.613 319.767 211.321 319.507 210.947C319.252 210.569 319.124 210.161 319.124 209.724H320.389C320.411 210.147 320.58 210.485 320.895 210.735C321.214 210.981 321.633 211.104 322.152 211.104C322.631 211.104 323.014 211.009 323.301 210.817C323.592 210.621 323.738 210.362 323.738 210.038ZM327.915 205.499C328.476 204.811 329.205 204.467 330.103 204.467C331.666 204.467 332.454 205.349 332.468 207.112V212H331.203V207.105C331.199 206.572 331.076 206.178 330.834 205.923C330.597 205.668 330.226 205.54 329.72 205.54C329.31 205.54 328.95 205.649 328.64 205.868C328.33 206.087 328.088 206.374 327.915 206.729V212H326.65V201.5H327.915V205.499Z" fill="#333945"/>
<path d="M911.594 209.044L908.123 205.558L904.652 209.044" stroke="#79808D" stroke-width="1.5" stroke-linecap="round" stroke-linejoin="round"/>
</g>
</g>
</g>
<g filter="url(#filter3_dd_5546_42508)">
<g clip-path="url(#clip1_5546_42508)">
<rect x="275" y="241" width="664" height="352" rx="4" fill="white"/>
<rect x="927" y="251" width="6" height="328" rx="3" fill="#F7F7F7"/>
<rect x="928" y="252" width="4" height="120" rx="2" fill="#C4C4C4"/>
<rect x="286" y="251" width="632" height="54" rx="8" fill="#F7F7F7"/>
<rect x="275" y="241" width="665" height="352" fill="url(#paint1_linear_5546_42508)"/>
<g clip-path="url(#clip2_5546_42508)">
<g clip-path="url(#clip3_5546_42508)">
<rect width="41.25" height="24" transform="translate(297 265)" fill="#FAFAFA"/>
<path fill-rule="evenodd" clip-rule="evenodd" d="M292.5 265H338.25V266.847H292.5V265ZM292.5 268.694H338.25V270.541H292.5V268.694ZM292.5 272.383H338.25V274.234H292.5V272.383ZM292.5 276.077H338.25V277.923H292.5V276.077ZM292.5 279.77H338.25V281.617H292.5V279.77ZM292.5 283.459H338.25V285.306H292.5V283.459ZM292.5 287.153H338.25V289H292.5V287.153Z" fill="#FF2C2C"/>
<path fill-rule="evenodd" clip-rule="evenodd" d="M297 265H314.25V277.75H297V265Z" fill="#0E3694"/>
<path fill-rule="evenodd" clip-rule="evenodd" d="M298.417 265.75L298.577 266.242H299.084L298.675 266.545L298.83 267.042L298.417 266.735L298.008 267.037L298.163 266.545L297.75 266.242H298.266L298.417 265.75ZM301.302 265.75L301.457 266.242H301.969L301.555 266.545L301.711 267.042L301.302 266.735L300.888 267.037L301.044 266.545L300.635 266.242H301.142L301.302 265.75ZM304.182 265.75L304.343 266.242H304.845L304.436 266.545L304.591 267.042L304.178 266.735L303.769 267.037L303.925 266.545L303.511 266.242H304.022L304.182 265.75ZM307.068 265.75L307.223 266.242H307.734L307.321 266.545L307.481 267.042L307.068 266.735L306.654 267.037L306.814 266.545L306.401 266.242H306.907L307.068 265.75ZM309.948 265.75L310.108 266.242H310.615L310.206 266.545L310.362 267.042L309.948 266.735L309.539 267.037L309.695 266.545L309.286 266.242H309.793L309.948 265.75ZM312.833 265.75L312.989 266.242H313.5L313.087 266.545L313.247 267.042L312.833 266.735L312.42 267.037L312.58 266.545L312.166 266.242H312.678L312.833 265.75ZM299.862 266.996L300.017 267.489H300.528L300.115 267.791L300.266 268.284L299.866 267.981L299.453 268.284L299.599 267.791L299.199 267.489H299.706L299.862 266.996ZM302.742 266.996L302.902 267.489H303.409L302.996 267.791L303.156 268.284L302.742 267.981L302.329 268.284L302.489 267.791L302.075 267.489H302.587L302.742 266.996ZM305.627 266.996L305.783 267.489H306.294L305.881 267.791L306.036 268.284L305.627 267.981L305.214 268.284L305.369 267.791L304.96 267.489H305.467L305.627 266.996ZM308.508 266.996L308.668 267.489H309.175L308.761 267.791L308.921 268.284L308.508 267.981L308.099 268.284L308.254 267.791L307.841 267.489H308.357L308.508 266.996ZM311.393 266.996L311.548 267.489H312.06L311.646 267.791L311.802 268.284L311.393 267.981L310.979 268.284L311.135 267.791L310.726 267.489H311.233L311.393 266.996ZM298.417 268.238L298.577 268.74H299.084L298.675 269.042L298.83 269.535L298.417 269.228L298.008 269.535L298.163 269.038L297.75 268.735H298.266L298.417 268.238ZM301.302 268.238L301.457 268.735H301.969L301.555 269.038L301.711 269.53L301.302 269.223L300.888 269.53L301.044 269.033L300.635 268.731H301.142L301.302 268.238ZM304.182 268.238L304.343 268.735H304.845L304.436 269.038L304.591 269.53L304.178 269.223L303.769 269.53L303.925 269.033L303.511 268.731H304.022L304.182 268.238ZM307.068 268.238L307.223 268.735H307.734L307.321 269.038L307.481 269.53L307.068 269.223L306.654 269.53L306.814 269.033L306.401 268.731H306.907L307.068 268.238ZM309.948 268.238L310.108 268.735H310.615L310.206 269.038L310.362 269.53L309.948 269.223L309.539 269.53L309.695 269.033L309.286 268.731H309.793L309.948 268.238ZM312.833 268.238L312.989 268.735H313.5L313.087 269.038L313.247 269.53L312.833 269.223L312.42 269.53L312.58 269.033L312.166 268.731H312.678L312.833 268.238ZM299.862 269.485L300.017 269.977H300.528L300.115 270.28L300.271 270.777L299.862 270.469L299.448 270.772L299.604 270.28L299.195 269.977H299.702L299.862 269.485ZM302.742 269.485L302.902 269.977H303.409L302.996 270.28L303.156 270.777L302.742 270.469L302.329 270.772L302.489 270.28L302.075 269.977H302.587L302.742 269.485ZM305.627 269.485L305.783 269.977H306.294L305.881 270.28L306.036 270.777L305.627 270.469L305.214 270.772L305.369 270.28L304.96 269.977H305.467L305.627 269.485ZM308.508 269.485L308.668 269.977H309.175L308.766 270.28L308.921 270.777L308.508 270.469L308.099 270.772L308.254 270.28L307.841 269.977H308.357L308.508 269.485ZM311.393 269.485L311.548 269.977H312.06L311.646 270.28L311.802 270.777L311.393 270.469L310.979 270.772L311.135 270.28L310.726 269.977H311.233L311.393 269.485ZM298.417 270.731L298.577 271.224H299.084L298.675 271.526L298.83 272.023L298.417 271.716L298.008 272.019L298.163 271.526L297.75 271.224H298.266L298.417 270.731ZM301.302 270.731L301.457 271.224H301.969L301.555 271.526L301.711 272.019L301.302 271.716L300.888 272.019L301.044 271.526L300.635 271.224H301.142L301.302 270.731ZM304.182 270.731L304.343 271.224H304.845L304.436 271.526L304.591 272.023L304.178 271.716L303.769 272.019L303.925 271.526L303.511 271.224H304.022L304.182 270.731ZM307.068 270.731L307.223 271.224H307.734L307.321 271.526L307.481 272.023L307.068 271.716L306.654 272.019L306.814 271.526L306.401 271.224H306.907L307.068 270.731ZM309.948 270.731L310.108 271.224H310.615L310.206 271.526L310.362 272.023L309.948 271.716L309.539 272.019L309.695 271.526L309.286 271.224H309.793L309.948 270.731ZM312.833 270.731L312.989 271.224H313.5L313.087 271.526L313.247 272.023L312.833 271.716L312.42 272.019L312.58 271.526L312.166 271.224H312.678L312.833 270.731ZM299.862 271.978L300.017 272.47H300.528L300.115 272.773L300.271 273.265L299.862 272.958L299.448 273.265L299.604 272.768L299.195 272.466H299.702L299.862 271.978ZM302.742 271.978L302.902 272.47H303.409L302.996 272.773L303.156 273.265L302.742 272.958L302.329 273.265L302.489 272.768L302.075 272.466H302.587L302.742 271.978ZM305.627 271.978L305.783 272.47H306.294L305.881 272.773L306.036 273.265L305.627 272.958L305.214 273.265L305.369 272.768L304.96 272.466H305.467L305.627 271.978ZM308.508 271.978L308.668 272.47H309.175L308.766 272.773L308.921 273.265L308.508 272.958L308.099 273.265L308.254 272.768L307.841 272.466H308.357L308.508 271.978ZM311.393 271.978L311.548 272.47H312.06L311.646 272.773L311.802 273.265L311.393 272.958L310.979 273.265L311.135 272.768L310.726 272.466H311.233L311.393 271.978ZM298.417 273.22L298.577 273.717H299.084L298.675 274.019L298.83 274.507L298.417 274.204L298.008 274.507L298.163 274.015L297.75 273.712H298.266L298.417 273.22ZM301.302 273.22L301.457 273.717H301.969L301.555 274.019L301.715 274.507L301.302 274.204L300.888 274.507L301.048 274.015L300.635 273.712H301.142L301.302 273.22ZM304.182 273.22L304.343 273.717H304.845L304.436 274.019L304.591 274.507L304.178 274.204L303.769 274.507L303.925 274.015L303.511 273.712H304.022L304.182 273.22ZM307.068 273.22L307.223 273.717H307.734L307.321 274.019L307.481 274.507L307.068 274.204L306.654 274.507L306.814 274.015L306.401 273.712H306.907L307.068 273.22ZM309.948 273.22L310.108 273.717H310.615L310.206 274.019L310.362 274.507L309.948 274.204L309.539 274.507L309.695 274.015L309.286 273.712H309.793L309.948 273.22ZM312.833 273.22L312.989 273.717H313.5L313.087 274.019L313.247 274.507L312.833 274.204L312.42 274.507L312.58 274.015L312.166 273.712H312.678L312.833 273.22ZM299.862 274.466L300.017 274.959H300.528L300.115 275.261L300.271 275.758L299.862 275.451L299.448 275.754L299.604 275.261L299.195 274.959H299.702L299.862 274.466ZM302.742 274.466L302.902 274.959H303.409L302.996 275.261L303.156 275.758L302.742 275.451L302.329 275.754L302.489 275.261L302.075 274.959H302.587L302.742 274.466ZM305.627 274.466L305.783 274.959H306.294L305.881 275.261L306.036 275.758L305.627 275.451L305.214 275.754L305.369 275.261L304.96 274.959H305.467L305.627 274.466ZM308.508 274.466L308.668 274.959H309.175L308.766 275.261L308.921 275.758L308.508 275.451L308.099 275.754L308.254 275.261L307.841 274.959H308.357L308.508 274.466ZM311.393 274.466L311.548 274.959H312.06L311.646 275.261L311.802 275.758L311.393 275.451L310.979 275.754L311.135 275.261L310.726 274.959H311.233L311.393 274.466ZM298.417 275.713L298.577 276.205H299.084L298.675 276.508L298.83 277L298.417 276.697L298.008 277L298.163 276.503L297.75 276.201H298.266L298.417 275.713ZM301.302 275.713L301.457 276.205H301.969L301.555 276.508L301.715 277L301.302 276.697L300.888 277L301.048 276.503L300.635 276.201H301.142L301.302 275.713ZM304.182 275.713L304.343 276.205H304.845L304.445 276.508L304.6 277L304.187 276.697L303.778 277L303.934 276.503L303.52 276.201H304.031L304.182 275.713ZM307.068 275.713L307.223 276.205H307.734L307.321 276.508L307.481 277L307.068 276.697L306.654 277L306.814 276.503L306.401 276.201H306.907L307.068 275.713ZM309.948 275.713L310.108 276.205H310.615L310.206 276.508L310.362 277L309.948 276.697L309.539 277L309.695 276.503L309.286 276.201H309.793L309.948 275.713ZM312.833 275.713L312.989 276.205H313.5L313.087 276.508L313.247 277L312.833 276.697L312.42 277L312.58 276.503L312.166 276.201H312.678L312.833 275.713Z" fill="#FAFAFA"/>
</g>
</g>
<g opacity="0.9">
<g clip-path="url(#clip4_5546_42508)">
<g clip-path="url(#clip5_5546_42508)">
<rect width="41.25" height="24" transform="translate(290 321)" fill="#FAFAFA"/>
<path fill-rule="evenodd" clip-rule="evenodd" d="M290 321H331.25V345H290V321Z" fill="#FAFAFA"/>
<path fill-rule="evenodd" clip-rule="evenodd" d="M292 321H306V345H292V321Z" fill="#0E3694"/>
<path fill-rule="evenodd" clip-rule="evenodd" d="M316 321H329.748V345H316V321Z" fill="#FF2C2C"/>
</g>
</g>
</g>
<g opacity="0.8">
<g clip-path="url(#clip6_5546_42508)">
<g clip-path="url(#clip7_5546_42508)">
<rect width="41.25" height="24" transform="translate(299 377)" fill="white"/>
<path d="M299 392.75H340.25V401H299V392.75Z" fill="#FFBE18"/>
<path d="M299 377H340.25V385.25H299V377Z" fill="black"/>
<path d="M299 385.25H340.25V392.75H299V385.25Z" fill="#FF2C2C"/>
</g>
</g>
</g>
<g opacity="0.7">
<g clip-path="url(#clip8_5546_42508)">
<path d="M299 445C299 438.373 304.373 433 311 433C317.627 433 323 438.373 323 445C323 451.627 317.627 457 311 457C304.373 457 299 451.627 299 445Z" fill="white"/>
<rect width="41" height="24" transform="translate(291 433)" fill="white"/>
<path d="M291 433H332V457H291V433Z" fill="#FFBE18"/>
<path d="M291 441.25H332V457H291V441.25Z" fill="white"/>
<path d="M291 448.75H332V457H291V448.75Z" fill="#29971F"/>
<path d="M311.128 448.2C312.884 448.2 314.308 446.767 314.308 445C314.308 443.232 312.884 441.8 311.128 441.8C309.371 441.8 307.947 443.232 307.947 445C307.947 446.767 309.371 448.2 311.128 448.2Z" fill="#0E3694"/>
<path d="M311.128 447.8C312.665 447.8 313.911 446.546 313.911 445C313.911 443.453 312.665 442.2 311.128 442.2C309.591 442.2 308.345 443.453 308.345 445C308.345 446.546 309.591 447.8 311.128 447.8Z" fill="white"/>
<path d="M311.128 445.32C311.303 445.32 311.446 445.176 311.446 445C311.446 444.823 311.303 444.68 311.128 444.68C310.952 444.68 310.81 444.823 310.81 445C310.81 445.176 310.952 445.32 311.128 445.32Z" fill="#0E3694"/>
<path d="M311.144 447.8L311.24 446.12L311.144 445.32L311.049 446.12L311.144 447.8Z" fill="#0E3694"/>
<path d="M310.106 447.601L310.809 446.074L311.013 445.295L310.631 446.003L310.106 447.601Z" fill="#0E3694"/>
<path d="M313.103 446.907L311.99 445.652L311.36 445.154L311.855 445.787L313.103 446.907Z" fill="#0E3694"/>
<path d="M312.253 447.496L311.678 445.917L311.274 445.221L311.502 445.993L312.253 447.496Z" fill="#0E3694"/>
<path d="M308.345 445.016L310.014 445.112L310.81 445.016L310.014 444.92L308.345 445.016Z" fill="#0E3694"/>
<path d="M308.521 443.977L310.039 444.684L310.814 444.889L310.109 444.506L308.521 443.977Z" fill="#0E3694"/>
<path d="M309.167 446.93L310.415 445.81L310.91 445.176L310.281 445.674L309.167 446.93Z" fill="#0E3694"/>
<path d="M308.586 446.061L310.156 445.481L310.848 445.076L310.081 445.306L308.586 446.061Z" fill="#0E3694"/>
<path d="M311.144 442.2L311.048 443.88L311.144 444.68L311.239 443.88L311.144 442.2Z" fill="#0E3694"/>
<path d="M312.153 442.394L311.449 443.921L311.246 444.7L311.628 443.992L312.153 442.394Z" fill="#0E3694"/>
<path d="M309.168 442.948L310.281 444.203L310.911 444.701L310.416 444.068L309.168 442.948Z" fill="#0E3694"/>
<path d="M310.043 442.359L310.618 443.938L311.021 444.634L310.794 443.862L310.043 442.359Z" fill="#0E3694"/>
<path d="M313.911 445.016L312.241 444.92L311.446 445.016L312.241 445.112L313.911 445.016Z" fill="#0E3694"/>
<path d="M313.697 446.037L312.179 445.33L311.404 445.124L312.109 445.508L313.697 446.037Z" fill="#0E3694"/>
<path d="M313.103 442.97L311.855 444.091L311.36 444.724L311.99 444.226L313.103 442.97Z" fill="#0E3694"/>
<path d="M313.695 443.837L312.124 444.416L311.432 444.822L312.2 444.592L313.695 443.837Z" fill="#0E3694"/>
</g>
</g>
<g opacity="0.5">
<g clip-path="url(#clip9_5546_42508)">
<g clip-path="url(#clip10_5546_42508)">
<rect width="41.25" height="24" transform="translate(290 489)" fill="#FAFAFA"/>
<path fill-rule="evenodd" clip-rule="evenodd" d="M291 489H332.25V513H291V489Z" fill="#FAFAFA"/>
<path fill-rule="evenodd" clip-rule="evenodd" d="M293 489H307V513H293V489Z" fill="#29971F"/>
<path fill-rule="evenodd" clip-rule="evenodd" d="M315 489H328.748V513H315V489Z" fill="#FF2C2C"/>
</g>
</g>
</g>
<g opacity="0.4">
<g clip-path="url(#clip11_5546_42508)">
<g clip-path="url(#clip12_5546_42508)">
<rect width="41.25" height="24" transform="translate(294 545)" fill="white"/>
<path fill-rule="evenodd" clip-rule="evenodd" d="M294 545H335.25V569H294V545Z" fill="#FF2C2C"/>
<path fill-rule="evenodd" clip-rule="evenodd" d="M314.585 557C314.585 560.037 311.992 562.5 308.792 562.5C305.592 562.5 303 560.037 303 556.995C303 553.954 305.592 551.5 308.792 551.5C311.992 551.5 314.585 553.963 314.585 557Z" fill="white"/>
<path fill-rule="evenodd" clip-rule="evenodd" d="M314.869 557C314.869 559.431 312.799 561.399 310.24 561.399C307.681 561.399 305.606 559.427 305.606 556.996C305.606 554.564 307.681 552.601 310.24 552.601C312.799 552.601 314.874 554.569 314.874 557H314.869Z" fill="#FF2C2C"/>
<path fill-rule="evenodd" clip-rule="evenodd" d="M315.709 554.431L315.662 556.463L313.701 556.977L315.638 557.642L315.591 559.509L316.849 558.051L318.758 558.693L317.656 557.129L319 555.574L316.934 556.124L315.709 554.427V554.431Z" fill="white"/>
</g>
</g>
</g>
<path d="M354.268 276.97H348.72V281.126H355.205V283H346.373V269.492H355.14V271.385H348.72V275.114H354.268V276.97ZM358.99 272.962L359.055 274.122C359.797 273.225 360.771 272.776 361.978 272.776C364.068 272.776 365.132 273.973 365.169 276.367V283H362.915V276.497C362.915 275.86 362.775 275.389 362.497 275.086C362.225 274.777 361.777 274.623 361.152 274.623C360.243 274.623 359.565 275.034 359.12 275.856V283H356.866V272.962H358.99ZM367.08 277.907C367.08 276.348 367.445 275.105 368.175 274.177C368.911 273.243 369.885 272.776 371.097 272.776C372.241 272.776 373.141 273.175 373.797 273.973L373.899 272.962H375.931V282.694C375.931 284.011 375.519 285.05 374.697 285.811C373.88 286.572 372.776 286.952 371.385 286.952C370.649 286.952 369.928 286.798 369.223 286.488C368.524 286.185 367.992 285.786 367.627 285.292L368.694 283.937C369.387 284.76 370.241 285.171 371.255 285.171C372.003 285.171 372.594 284.967 373.027 284.559C373.46 284.157 373.676 283.563 373.676 282.777V282.1C373.027 282.824 372.161 283.186 371.079 283.186C369.903 283.186 368.942 282.719 368.193 281.785C367.451 280.851 367.08 279.558 367.08 277.907ZM369.325 278.102C369.325 279.11 369.529 279.904 369.938 280.486C370.352 281.061 370.924 281.349 371.654 281.349C372.563 281.349 373.237 280.959 373.676 280.18V275.764C373.25 275.003 372.582 274.623 371.672 274.623C370.93 274.623 370.352 274.916 369.938 275.504C369.529 276.091 369.325 276.957 369.325 278.102ZM380.653 283H378.398V268.75H380.653V283ZM385.514 283H383.26V272.962H385.514V283ZM383.121 270.355C383.121 270.009 383.229 269.721 383.445 269.492C383.668 269.263 383.983 269.149 384.392 269.149C384.8 269.149 385.115 269.263 385.338 269.492C385.561 269.721 385.672 270.009 385.672 270.355C385.672 270.695 385.561 270.98 385.338 271.208C385.115 271.431 384.8 271.542 384.392 271.542C383.983 271.542 383.668 271.431 383.445 271.208C383.229 270.98 383.121 270.695 383.121 270.355ZM393.604 280.272C393.604 279.87 393.437 279.564 393.103 279.354C392.775 279.144 392.228 278.958 391.461 278.797C390.694 278.637 390.054 278.432 389.541 278.185C388.415 277.641 387.852 276.852 387.852 275.819C387.852 274.953 388.217 274.23 388.947 273.648C389.677 273.067 390.604 272.776 391.73 272.776C392.93 272.776 393.898 273.073 394.634 273.667C395.376 274.261 395.747 275.031 395.747 275.977H393.493C393.493 275.544 393.332 275.185 393.01 274.901C392.689 274.61 392.262 274.465 391.73 274.465C391.235 274.465 390.83 274.579 390.515 274.808C390.205 275.037 390.051 275.343 390.051 275.727C390.051 276.073 390.196 276.342 390.487 276.534C390.778 276.725 391.365 276.92 392.25 277.118C393.134 277.31 393.827 277.542 394.328 277.814C394.835 278.08 395.209 278.402 395.45 278.779C395.698 279.156 395.821 279.614 395.821 280.152C395.821 281.055 395.447 281.788 394.699 282.351C393.95 282.907 392.97 283.186 391.758 283.186C390.935 283.186 390.202 283.037 389.559 282.74C388.916 282.443 388.415 282.035 388.056 281.516C387.697 280.996 387.518 280.436 387.518 279.836H389.708C389.738 280.368 389.939 280.78 390.311 281.07C390.682 281.355 391.173 281.497 391.786 281.497C392.379 281.497 392.831 281.386 393.14 281.163C393.449 280.934 393.604 280.637 393.604 280.272ZM400.015 274.057C400.751 273.203 401.681 272.776 402.807 272.776C404.947 272.776 406.033 273.998 406.063 276.441V283H403.809V276.524C403.809 275.832 403.658 275.343 403.354 275.059C403.058 274.768 402.618 274.623 402.037 274.623C401.134 274.623 400.46 275.025 400.015 275.829V283H397.76V268.75H400.015V274.057Z" fill="#333945"/>
<path opacity="0.9" d="M354.018 334.035H348.349V340H346.568V326.492H354.936V327.958H348.349V332.578H354.018V334.035ZM361.412 331.502C361.152 331.459 360.87 331.437 360.567 331.437C359.442 331.437 358.678 331.916 358.276 332.875V340H356.56V329.962H358.229L358.257 331.122C358.82 330.225 359.618 329.776 360.651 329.776C360.985 329.776 361.238 329.82 361.412 329.906V331.502ZM366.978 340.186C365.617 340.186 364.51 339.74 363.657 338.85C362.803 337.953 362.376 336.756 362.376 335.259V334.944C362.376 333.948 362.565 333.061 362.942 332.281C363.326 331.496 363.858 330.883 364.538 330.444C365.225 329.999 365.967 329.776 366.765 329.776C368.07 329.776 369.084 330.206 369.808 331.066C370.531 331.926 370.893 333.156 370.893 334.758V335.473H364.093C364.118 336.462 364.405 337.263 364.956 337.875C365.512 338.482 366.217 338.785 367.071 338.785C367.677 338.785 368.19 338.661 368.611 338.414C369.031 338.166 369.399 337.838 369.715 337.43L370.763 338.247C369.922 339.539 368.66 340.186 366.978 340.186ZM366.765 331.187C366.072 331.187 365.491 331.44 365.021 331.947C364.55 332.448 364.26 333.153 364.148 334.062H369.177V333.933C369.127 333.061 368.892 332.386 368.472 331.91C368.051 331.428 367.482 331.187 366.765 331.187ZM374.511 329.962L374.567 331.224C375.334 330.259 376.336 329.776 377.573 329.776C379.694 329.776 380.764 330.973 380.783 333.367V340H379.066V333.357C379.06 332.634 378.893 332.099 378.565 331.752C378.244 331.406 377.74 331.233 377.053 331.233C376.497 331.233 376.008 331.381 375.587 331.678C375.167 331.975 374.839 332.365 374.604 332.847V340H372.888V329.962H374.511ZM387.397 338.785C388.01 338.785 388.545 338.599 389.002 338.228C389.46 337.857 389.714 337.393 389.763 336.836H391.387C391.356 337.412 391.158 337.959 390.793 338.479C390.428 338.998 389.939 339.412 389.327 339.722C388.721 340.031 388.078 340.186 387.397 340.186C386.031 340.186 384.942 339.731 384.132 338.822C383.328 337.906 382.926 336.657 382.926 335.074V334.786C382.926 333.809 383.105 332.94 383.464 332.179C383.823 331.418 384.336 330.828 385.004 330.407C385.678 329.987 386.473 329.776 387.388 329.776C388.514 329.776 389.448 330.113 390.19 330.788C390.938 331.462 391.337 332.337 391.387 333.413H389.763C389.714 332.764 389.466 332.232 389.021 331.817C388.582 331.397 388.038 331.187 387.388 331.187C386.516 331.187 385.839 331.502 385.356 332.133C384.88 332.757 384.642 333.664 384.642 334.851V335.176C384.642 336.332 384.88 337.223 385.356 337.848C385.833 338.472 386.513 338.785 387.397 338.785ZM395.033 331.177C395.793 330.243 396.783 329.776 398.001 329.776C400.123 329.776 401.193 330.973 401.211 333.367V340H399.495V333.357C399.489 332.634 399.322 332.099 398.994 331.752C398.673 331.406 398.168 331.233 397.482 331.233C396.925 331.233 396.437 331.381 396.016 331.678C395.596 331.975 395.268 332.365 395.033 332.847V340H393.316V325.75H395.033V331.177Z" fill="#333945"/>
<path opacity="0.8" d="M356.541 394.228C356.083 394.884 355.443 395.375 354.621 395.703C353.804 396.025 352.852 396.186 351.763 396.186C350.662 396.186 349.685 395.929 348.832 395.416C347.978 394.896 347.316 394.16 346.846 393.208C346.382 392.255 346.144 391.151 346.132 389.896V388.717C346.132 386.682 346.605 385.105 347.551 383.986C348.504 382.866 349.84 382.307 351.559 382.307C352.969 382.307 354.104 382.668 354.964 383.392C355.824 384.11 356.349 385.13 356.541 386.454H354.76C354.426 384.666 353.362 383.772 351.568 383.772C350.375 383.772 349.469 384.193 348.85 385.034C348.238 385.869 347.929 387.081 347.922 388.671V389.775C347.922 391.29 348.269 392.496 348.961 393.393C349.654 394.284 350.591 394.729 351.772 394.729C352.44 394.729 353.025 394.655 353.526 394.506C354.027 394.358 354.441 394.107 354.769 393.755V390.721H351.643V389.274H356.541V394.228ZM363.416 396.186C362.055 396.186 360.948 395.74 360.094 394.85C359.241 393.953 358.814 392.756 358.814 391.259V390.944C358.814 389.948 359.003 389.061 359.38 388.281C359.763 387.496 360.295 386.883 360.976 386.444C361.662 385.999 362.404 385.776 363.202 385.776C364.507 385.776 365.521 386.206 366.245 387.066C366.969 387.926 367.331 389.156 367.331 390.758V391.473H360.53C360.555 392.462 360.843 393.263 361.393 393.875C361.95 394.482 362.655 394.785 363.508 394.785C364.114 394.785 364.628 394.661 365.048 394.414C365.469 394.166 365.837 393.838 366.152 393.43L367.201 394.247C366.36 395.539 365.098 396.186 363.416 396.186ZM363.202 387.187C362.509 387.187 361.928 387.44 361.458 387.947C360.988 388.448 360.697 389.153 360.586 390.062H365.614V389.933C365.565 389.061 365.33 388.386 364.909 387.91C364.489 387.428 363.92 387.187 363.202 387.187ZM374.177 387.502C373.917 387.459 373.636 387.437 373.333 387.437C372.207 387.437 371.444 387.916 371.042 388.875V396H369.325V385.962H370.995L371.023 387.122C371.586 386.225 372.384 385.776 373.417 385.776C373.75 385.776 374.004 385.82 374.177 385.906V387.502ZM377.378 385.962L377.424 387.075C378.16 386.209 379.153 385.776 380.402 385.776C381.806 385.776 382.762 386.314 383.269 387.391C383.603 386.908 384.036 386.519 384.568 386.222C385.106 385.925 385.74 385.776 386.47 385.776C388.672 385.776 389.791 386.942 389.828 389.274V396H388.112V389.376C388.112 388.659 387.948 388.124 387.62 387.771C387.292 387.412 386.742 387.233 385.969 387.233C385.332 387.233 384.803 387.425 384.382 387.808C383.962 388.185 383.717 388.696 383.649 389.339V396H381.924V389.422C381.924 387.963 381.209 387.233 379.781 387.233C378.655 387.233 377.885 387.712 377.471 388.671V396H375.754V385.962H377.378ZM398.623 396C398.524 395.802 398.444 395.45 398.382 394.942C397.584 395.771 396.632 396.186 395.524 396.186C394.535 396.186 393.722 395.907 393.084 395.351C392.454 394.788 392.138 394.076 392.138 393.217C392.138 392.172 392.534 391.361 393.326 390.786C394.124 390.205 395.243 389.914 396.684 389.914H398.354V389.125C398.354 388.526 398.175 388.049 397.816 387.697C397.457 387.338 396.928 387.159 396.229 387.159C395.617 387.159 395.104 387.313 394.689 387.623C394.275 387.932 394.068 388.306 394.068 388.745H392.342C392.342 388.244 392.519 387.762 392.871 387.298C393.23 386.828 393.712 386.457 394.318 386.185C394.931 385.912 395.602 385.776 396.332 385.776C397.488 385.776 398.394 386.067 399.05 386.648C399.705 387.224 400.046 388.018 400.07 389.033V393.653C400.07 394.574 400.188 395.307 400.423 395.852V396H398.623ZM395.775 394.692C396.313 394.692 396.823 394.553 397.306 394.274C397.788 393.996 398.138 393.634 398.354 393.189V391.129H397.009C394.906 391.129 393.854 391.745 393.854 392.976C393.854 393.514 394.034 393.934 394.393 394.237C394.751 394.54 395.212 394.692 395.775 394.692ZM404.384 385.962L404.44 387.224C405.207 386.259 406.209 385.776 407.446 385.776C409.567 385.776 410.637 386.973 410.656 389.367V396H408.939V389.357C408.933 388.634 408.766 388.099 408.438 387.752C408.117 387.406 407.613 387.233 406.926 387.233C406.37 387.233 405.881 387.381 405.46 387.678C405.04 387.975 404.712 388.365 404.477 388.847V396H402.761V385.962H404.384Z" fill="#333945"/>
<path opacity="0.7" d="M356.949 451H355.159V444.756H348.349V451H346.568V437.492H348.349V443.3H355.159V437.492H356.949V451ZM361.708 451H359.992V440.962H361.708V451ZM359.853 438.299C359.853 438.021 359.937 437.786 360.104 437.594C360.277 437.403 360.53 437.307 360.864 437.307C361.198 437.307 361.452 437.403 361.625 437.594C361.798 437.786 361.885 438.021 361.885 438.299C361.885 438.578 361.798 438.81 361.625 438.995C361.452 439.181 361.198 439.273 360.864 439.273C360.53 439.273 360.277 439.181 360.104 438.995C359.937 438.81 359.853 438.578 359.853 438.299ZM366.087 440.962L366.143 442.224C366.91 441.259 367.912 440.776 369.149 440.776C371.27 440.776 372.34 441.973 372.359 444.367V451H370.643V444.357C370.636 443.634 370.469 443.099 370.142 442.752C369.82 442.406 369.316 442.233 368.629 442.233C368.073 442.233 367.584 442.381 367.164 442.678C366.743 442.975 366.415 443.365 366.18 443.847V451H364.464V440.962H366.087ZM374.53 445.897C374.53 444.357 374.895 443.12 375.625 442.187C376.354 441.246 377.31 440.776 378.491 440.776C379.666 440.776 380.597 441.178 381.284 441.982V436.75H383V451H381.423L381.339 449.924C380.653 450.765 379.697 451.186 378.473 451.186C377.31 451.186 376.361 450.709 375.625 449.757C374.895 448.804 374.53 447.561 374.53 446.027V445.897ZM376.246 446.092C376.246 447.23 376.481 448.121 376.951 448.764C377.421 449.407 378.071 449.729 378.899 449.729C379.988 449.729 380.783 449.24 381.284 448.263V443.652C380.77 442.706 379.982 442.233 378.918 442.233C378.077 442.233 377.421 442.558 376.951 443.207C376.481 443.856 376.246 444.818 376.246 446.092ZM387.537 451H385.82V440.962H387.537V451ZM385.681 438.299C385.681 438.021 385.765 437.786 385.932 437.594C386.105 437.403 386.358 437.307 386.692 437.307C387.026 437.307 387.28 437.403 387.453 437.594C387.626 437.786 387.713 438.021 387.713 438.299C387.713 438.578 387.626 438.81 387.453 438.995C387.28 439.181 387.026 439.273 386.692 439.273C386.358 439.273 386.105 439.181 385.932 438.995C385.765 438.81 385.681 438.578 385.681 438.299Z" fill="#333945"/>
<path opacity="0.5" d="M348.479 507H346.698V493.492H348.479V507ZM353.804 494.531V496.962H355.678V498.289H353.804V504.514C353.804 504.916 353.888 505.219 354.055 505.423C354.222 505.621 354.506 505.72 354.908 505.72C355.106 505.72 355.378 505.683 355.725 505.608V507C355.273 507.124 354.834 507.186 354.407 507.186C353.64 507.186 353.062 506.954 352.672 506.49C352.283 506.026 352.088 505.367 352.088 504.514V498.289H350.26V496.962H352.088V494.531H353.804ZM363.889 507C363.79 506.802 363.709 506.45 363.647 505.942C362.85 506.771 361.897 507.186 360.79 507.186C359.8 507.186 358.987 506.907 358.35 506.351C357.719 505.788 357.404 505.076 357.404 504.217C357.404 503.172 357.8 502.361 358.591 501.786C359.389 501.205 360.509 500.914 361.95 500.914H363.62V500.125C363.62 499.526 363.44 499.049 363.082 498.697C362.723 498.338 362.194 498.159 361.495 498.159C360.883 498.159 360.369 498.313 359.955 498.623C359.541 498.932 359.333 499.306 359.333 499.745H357.608C357.608 499.244 357.784 498.762 358.137 498.298C358.495 497.828 358.978 497.457 359.584 497.185C360.196 496.912 360.867 496.776 361.597 496.776C362.754 496.776 363.66 497.067 364.315 497.648C364.971 498.224 365.311 499.018 365.336 500.033V504.653C365.336 505.574 365.453 506.307 365.688 506.852V507H363.889ZM361.041 505.692C361.579 505.692 362.089 505.553 362.571 505.274C363.054 504.996 363.403 504.634 363.62 504.189V502.129H362.274C360.172 502.129 359.12 502.745 359.12 503.976C359.12 504.514 359.299 504.934 359.658 505.237C360.017 505.54 360.478 505.692 361.041 505.692ZM369.891 507H368.175V492.75H369.891V507ZM374.511 507H372.795V496.962H374.511V507ZM372.656 494.299C372.656 494.021 372.739 493.786 372.906 493.594C373.079 493.403 373.333 493.307 373.667 493.307C374.001 493.307 374.255 493.403 374.428 493.594C374.601 493.786 374.688 494.021 374.688 494.299C374.688 494.578 374.601 494.81 374.428 494.995C374.255 495.181 374.001 495.273 373.667 495.273C373.333 495.273 373.079 495.181 372.906 494.995C372.739 494.81 372.656 494.578 372.656 494.299ZM383.464 507C383.365 506.802 383.285 506.45 383.223 505.942C382.425 506.771 381.472 507.186 380.365 507.186C379.376 507.186 378.562 506.907 377.925 506.351C377.294 505.788 376.979 505.076 376.979 504.217C376.979 503.172 377.375 502.361 378.167 501.786C378.964 501.205 380.084 500.914 381.525 500.914H383.195V500.125C383.195 499.526 383.015 499.049 382.657 498.697C382.298 498.338 381.769 498.159 381.07 498.159C380.458 498.159 379.945 498.313 379.53 498.623C379.116 498.932 378.909 499.306 378.909 499.745H377.183C377.183 499.244 377.359 498.762 377.712 498.298C378.071 497.828 378.553 497.457 379.159 497.185C379.771 496.912 380.443 496.776 381.172 496.776C382.329 496.776 383.235 497.067 383.891 497.648C384.546 498.224 384.886 499.018 384.911 500.033V504.653C384.911 505.574 385.029 506.307 385.264 506.852V507H383.464ZM380.616 505.692C381.154 505.692 381.664 505.553 382.146 505.274C382.629 504.996 382.978 504.634 383.195 504.189V502.129H381.85C379.747 502.129 378.695 502.745 378.695 503.976C378.695 504.514 378.875 504.934 379.233 505.237C379.592 505.54 380.053 505.692 380.616 505.692ZM389.225 496.962L389.281 498.224C390.048 497.259 391.05 496.776 392.287 496.776C394.408 496.776 395.478 497.973 395.497 500.367V507H393.78V500.357C393.774 499.634 393.607 499.099 393.279 498.752C392.958 498.406 392.454 498.233 391.767 498.233C391.21 498.233 390.722 498.381 390.301 498.678C389.881 498.975 389.553 499.365 389.318 499.847V507H387.602V496.962H389.225Z" fill="#333945"/>
<path opacity="0.4" d="M355.901 550.958H351.559V563H349.787V550.958H345.455V549.492H355.901V550.958ZM362.942 562.007C362.274 562.793 361.294 563.186 360.001 563.186C358.931 563.186 358.115 562.876 357.552 562.258C356.996 561.633 356.714 560.712 356.708 559.493V552.962H358.424V559.447C358.424 560.968 359.043 561.729 360.28 561.729C361.591 561.729 362.463 561.24 362.896 560.263V552.962H364.612V563H362.979L362.942 562.007ZM372.081 554.502C371.821 554.459 371.539 554.437 371.236 554.437C370.111 554.437 369.347 554.916 368.945 555.875V563H367.229V552.962H368.898L368.926 554.122C369.489 553.225 370.287 552.776 371.32 552.776C371.654 552.776 371.907 552.82 372.081 552.906V554.502ZM376.469 558.352L375.393 559.475V563H373.676V548.75H375.393V557.369L376.311 556.265L379.438 552.962H381.525L377.619 557.155L381.979 563H379.966L376.469 558.352ZM385.162 563H383.445V552.962H385.162V563ZM383.306 550.299C383.306 550.021 383.39 549.786 383.557 549.594C383.73 549.403 383.983 549.307 384.317 549.307C384.651 549.307 384.905 549.403 385.078 549.594C385.251 549.786 385.338 550.021 385.338 550.299C385.338 550.578 385.251 550.81 385.078 550.995C384.905 551.181 384.651 551.273 384.317 551.273C383.983 551.273 383.73 551.181 383.557 550.995C383.39 550.81 383.306 550.578 383.306 550.299ZM393.762 560.337C393.762 559.874 393.585 559.515 393.233 559.261C392.887 559.001 392.277 558.779 391.405 558.593C390.539 558.408 389.85 558.185 389.336 557.925C388.829 557.666 388.452 557.356 388.205 556.998C387.963 556.639 387.843 556.212 387.843 555.717C387.843 554.895 388.189 554.199 388.882 553.63C389.581 553.061 390.471 552.776 391.554 552.776C392.692 552.776 393.613 553.07 394.318 553.658C395.03 554.245 395.385 554.997 395.385 555.912H393.66C393.66 555.442 393.459 555.037 393.057 554.697C392.661 554.357 392.16 554.187 391.554 554.187C390.929 554.187 390.44 554.323 390.088 554.595C389.735 554.867 389.559 555.222 389.559 555.662C389.559 556.076 389.723 556.388 390.051 556.599C390.379 556.809 390.969 557.01 391.823 557.202C392.682 557.393 393.378 557.622 393.91 557.888C394.442 558.154 394.835 558.476 395.088 558.853C395.348 559.224 395.478 559.679 395.478 560.217C395.478 561.114 395.119 561.834 394.402 562.378C393.684 562.917 392.754 563.186 391.609 563.186C390.805 563.186 390.094 563.043 389.476 562.759C388.857 562.474 388.372 562.078 388.019 561.571C387.673 561.058 387.5 560.504 387.5 559.911H389.216C389.247 560.486 389.476 560.944 389.902 561.284C390.335 561.618 390.904 561.785 391.609 561.785C392.259 561.785 392.778 561.655 393.168 561.395C393.564 561.129 393.762 560.777 393.762 560.337ZM399.43 554.177C400.191 553.243 401.181 552.776 402.399 552.776C404.52 552.776 405.59 553.973 405.609 556.367V563H403.893V556.357C403.886 555.634 403.719 555.099 403.392 554.752C403.07 554.406 402.566 554.233 401.879 554.233C401.323 554.233 400.834 554.381 400.414 554.678C399.993 554.975 399.665 555.365 399.43 555.847V563H397.714V548.75H399.43V554.177Z" fill="#333945"/>
</g>
</g>
<path d="M923 224.5L955.5 237L947 243.5L959 255.5L953.5 261L941.5 249L936 257L923 224.5Z" fill="white"/>
<path d="M960.468 254.672L949.722 243.926L957.389 239.497C957.988 239.151 958.337 238.493 958.287 237.803C958.237 237.113 957.797 236.512 957.155 236.256L922.967 222.619C922.297 222.351 921.532 222.509 921.021 223.019C920.511 223.53 920.353 224.295 920.621 224.965L934.256 259.156C934.512 259.799 935.113 260.239 935.803 260.288C936.494 260.339 937.151 259.99 937.497 259.39L941.925 251.724L952.671 262.471C953.009 262.809 953.469 263 953.948 263C954.427 263 954.886 262.809 955.225 262.471L960.468 257.226C961.174 256.521 961.174 255.378 960.468 254.672ZM953.948 258.64L942.815 247.507C942.474 247.165 942.014 246.977 941.538 246.977C941.46 246.977 941.381 246.983 941.303 246.993C940.746 247.066 940.255 247.394 939.975 247.88L936.232 254.361L925.532 227.531L952.359 238.232L945.878 241.975C945.392 242.256 945.064 242.747 944.991 243.304C944.918 243.86 945.107 244.419 945.505 244.816L956.638 255.95L953.948 258.64Z" fill="#555A64"/>
<path d="M914.929 214.373C914.223 213.669 913.08 213.669 912.375 214.373C911.669 215.079 911.669 216.222 912.375 216.927L916.387 220.94C916.74 221.292 917.202 221.469 917.664 221.469C918.126 221.469 918.588 221.292 918.941 220.94C919.646 220.235 919.646 219.091 918.941 218.386L914.929 214.373Z" fill="#555A64"/>
<path d="M916.288 226.857C916.288 225.86 915.48 225.052 914.482 225.052H908.808C907.811 225.052 907.002 225.86 907.002 226.857C907.002 227.854 907.811 228.663 908.808 228.663H914.482C915.48 228.663 916.288 227.854 916.288 226.857Z" fill="#555A64"/>
<path d="M915.557 232.431L911.544 236.444C910.838 237.149 910.838 238.292 911.544 238.998C911.896 239.35 912.358 239.527 912.821 239.527C913.283 239.527 913.745 239.35 914.097 238.998L918.11 234.985C918.816 234.28 918.816 233.136 918.11 232.431C917.405 231.726 916.262 231.726 915.557 232.431Z" fill="#555A64"/>
<path d="M924.858 218.287C925.855 218.287 926.664 217.478 926.664 216.481V210.806C926.664 209.809 925.856 209 924.858 209C923.861 209 923.053 209.809 923.053 210.806V216.481C923.053 217.478 923.861 218.287 924.858 218.287Z" fill="#555A64"/>
<path d="M931.707 220.637C932.17 220.637 932.632 220.461 932.984 220.109L936.996 216.096C937.702 215.391 937.702 214.247 936.996 213.542C936.291 212.837 935.148 212.837 934.443 213.542L930.43 217.555C929.725 218.26 929.725 219.403 930.43 220.109C930.783 220.461 931.245 220.637 931.707 220.637Z" fill="#555A64"/>
<g clip-path="url(#clip13_5546_42508)">
<path d="M33.1943 531.403C33.1943 531.403 32.7574 551.545 36.6178 552.141C37.1436 552.23 56.3415 553.831 56.3415 553.831L80.8899 555.758C80.8899 555.758 81.2178 549.856 74.1308 548.01C67.0439 546.163 55.4711 540.127 51.9083 530.352C48.2179 519.991 33.1943 531.403 33.1943 531.403Z" fill="#AF5919"/>
<path d="M165.32 543.523C165.32 543.523 167.538 565.11 171.74 565.232C172.314 565.233 193.061 564.438 193.061 564.438L219.539 563.228C219.539 563.228 219.123 556.902 211.315 555.852C203.507 554.801 190.333 549.908 185.256 539.894C179.886 529.379 165.32 543.523 165.32 543.523Z" fill="#AF5919"/>
<path d="M132.971 322.989C132.971 322.989 123.16 363.302 93.155 433.878C63.1536 504.411 57.2853 535.548 57.2853 535.548L31.6613 532.688C31.6613 532.688 38.0546 453.407 52.1254 417.839C66.1963 382.272 65.4652 286.538 65.4652 286.538L132.971 322.989Z" fill="black"/>
<path d="M147.707 286.543C147.707 286.543 178.855 365.458 183.317 426.217C187.78 486.977 190.59 542.448 190.59 542.448C190.59 542.448 181.032 545.06 163.563 545.041C163.563 545.041 141.699 455.532 140.419 433.597C139.191 411.619 59.1819 317.51 67.8565 296.714C76.5271 275.965 147.707 286.543 147.707 286.543Z" fill="#1C1C1C"/>
<path d="M105.666 135.882C105.666 135.882 63.6106 169.734 60.4482 184.855C57.2857 199.977 75.9561 225.641 75.9561 225.641L105.666 135.882Z" fill="#ED7D2B"/>
<path d="M112.337 136.788L126.248 147.606L147.829 145.452C147.689 143.724 146.872 136.506 146.136 130.01C146.074 129.624 146.059 129.241 145.996 128.854C145.369 123.321 144.82 118.556 144.82 118.556L125.7 108.197L118.563 104.345C118.555 104.44 118.614 110.449 118.636 111.309C118.701 126.754 112.337 136.788 112.337 136.788Z" fill="#FFB27D"/>
<path d="M143.265 134.482C142.853 134.256 118.297 124.765 115.512 125.432C112.679 126.095 110.657 131.259 110.657 131.259L151.068 143.966C151.02 143.962 148.305 137.106 143.265 134.482Z" fill="#761349"/>
<path d="M61.4152 297.019C64.0773 316.786 134.933 325.001 154.691 308.92C156.952 307.112 157.802 297.749 158.073 285.097C158.609 260.41 156.742 222.985 158.121 204.09C158.809 194.951 158.324 185.522 157.339 176.908C155.276 158.527 151.024 143.915 151.024 143.915C151.024 143.915 117.237 129.869 110.613 131.207C78.5522 137.8 58.749 277.301 61.4152 297.019Z" fill="#941759"/>
<path d="M158.069 285.144C158.605 260.458 161.18 219.792 162.611 200.853C163.299 191.715 158.325 185.522 157.387 176.912L136.839 171.482C136.788 171.525 109.432 252.813 158.069 285.144Z" fill="#761349"/>
<path d="M123.118 252.842C123.118 252.842 148.545 234.292 158.498 222.04L164.813 227.108C164.813 227.108 143.523 256.592 125.003 263.249C106.435 269.903 123.118 252.842 123.118 252.842Z" fill="#323232"/>
<path d="M120.09 111.671C123.833 119.378 139.541 127.11 146.137 130.01C146.074 129.623 146.059 129.241 145.997 128.854C145.37 123.32 144.821 118.555 144.821 118.555L125.701 108.197C121.29 107.723 118.543 108.489 120.09 111.671Z" fill="#FCA56B"/>
<path d="M151.707 116.954C151.707 116.954 120.29 128.891 113.164 109.267C105.987 89.6859 97.1263 78.014 116.85 69.6015C136.578 61.1417 143.235 67.24 147.227 73.1575C151.212 79.1697 159.675 113.348 151.707 116.954Z" fill="#FFB27D"/>
<path d="M145.849 71.3713C145.849 71.3713 145.284 94.7208 140.366 94.0135C135.496 93.3103 131.038 92.833 132.212 99.7957C133.339 106.754 140.532 114.423 125.748 116.588C110.963 118.752 87.2216 81.8828 90.8284 74.4243C101.299 52.7814 161.283 44.8641 145.849 71.3713Z" fill="#353535"/>
<path d="M84.5462 215.894C84.5462 215.894 80.8984 216.01 80.2739 219.388C79.6535 222.718 73.8462 263.679 75.8437 264.946C77.7937 266.209 86.4308 266.52 87.0102 265.903C87.5421 265.281 93.3098 220.314 92.2579 217.508C92.262 217.46 88.2183 215.494 84.5462 215.894Z" fill="#163560"/>
<path d="M159.593 269.597C159.593 269.597 164.266 273.714 164.971 277.777C166.126 284.405 164.518 290.319 157.94 292.233C155.535 292.933 155.677 287.369 154.125 284.806C152.57 282.29 146.506 280.436 148.244 276.916C149.981 273.395 153.345 266.536 153.345 266.536L159.593 269.597Z" fill="#FFB27D"/>
<path d="M151.142 271.017C151.142 271.017 146.829 274.984 146.21 277.742C145.543 280.497 145.036 284.742 144.783 286.579C144.53 288.416 145.35 290.011 147.269 287.173C149.235 284.339 151.048 280.492 152.189 280.59C153.329 280.687 151.142 271.017 151.142 271.017Z" fill="#FFB27D"/>
<path d="M135.096 137.642C135.096 137.642 159.432 144.111 176.146 173.611C192.813 203.107 198.365 221.548 194.037 231.28C189.704 241.059 169.642 270.744 165.765 274.653C162.463 277.991 153.788 277.01 148.297 274.061C148.297 274.061 163.297 228.598 159.308 223.205C157.589 220.914 134.881 198.239 130.177 207.891C122.3 223.847 135.096 137.642 135.096 137.642Z" fill="#941759"/>
<path d="M155.378 148.958C155.378 148.958 151.951 141.469 142.475 139.227C132.998 136.985 126.248 147.606 126.248 147.606L133.192 150.917C133.192 150.917 138.523 142.891 142.704 143.25C147.979 143.702 152.054 145.862 155.378 148.958Z" fill="#323232"/>
<path d="M136.914 181.781C136.914 181.781 126.948 180.784 114.142 179.401C91.6639 176.951 60.4828 173.278 59.8169 171.553C58.8004 168.893 62.9037 140.557 70.7757 139.183C71.4572 139.05 72.4197 138.99 73.6157 138.997C86.1665 138.881 123.99 144.362 132.537 147.953C141.876 151.803 136.914 181.781 136.914 181.781Z" fill="#323232"/>
<path d="M114.142 179.401C91.6634 176.951 60.4823 173.279 59.8164 171.554C58.7998 168.893 62.9031 140.557 70.7752 139.183C71.4566 139.051 72.4191 138.99 73.6152 138.997C88.2928 140.875 104.461 143.785 109.681 145.995C118.371 149.599 114.696 175.732 114.142 179.401Z" fill="#585858"/>
<path d="M136.914 181.781C136.914 181.781 60.3992 167.553 46.6224 170.804C32.8891 174.107 25.1226 264.746 28.769 271.348C32.4155 277.951 107.758 290.221 118.781 287.829C129.803 285.438 136.914 181.781 136.914 181.781Z" fill="#585858"/>
<path d="M114.28 177.793C114.28 177.793 103.65 177.835 102.007 185.271C100.417 192.664 85.9057 283.249 91.7812 286.183C97.6091 289.113 122.878 290.277 124.473 288.984C126.068 287.691 140.058 188.103 136.914 181.781C136.914 181.781 124.915 177.132 114.28 177.793Z" fill="#323232"/>
<path d="M68.5575 148.857C68.5575 148.857 65.0043 161.276 68.0218 163.488C71.0392 165.7 78.6924 166.88 80.8311 164.824C82.9264 162.716 83.5961 150.431 83.5961 150.431L68.5575 148.857Z" fill="#323232"/>
<path d="M68.5579 148.857C68.5579 148.857 69.2131 154.059 75.1921 154.667C81.2146 155.326 83.549 150.427 83.549 150.427C83.549 150.427 75.6923 146.037 68.5579 148.857Z" fill="#404040"/>
<path d="M74.2691 152.587C74.3218 151.972 74.885 151.543 75.5027 151.596C76.1204 151.649 76.551 152.21 76.4983 152.825C76.4456 153.44 75.8824 153.868 75.2647 153.816C74.647 153.763 74.2164 153.202 74.2691 152.587Z" fill="#81A332"/>
<path d="M91.1376 152.365C91.1376 152.365 86.7929 164.525 89.6516 166.914C92.5103 169.304 100.119 171.004 102.345 169.05C104.57 167.097 106.004 154.83 106.004 154.83L91.1376 152.365Z" fill="#323232"/>
<path d="M91.1381 152.364C91.1381 152.364 91.4565 157.586 97.3991 158.619C103.342 159.652 106.001 154.877 106.001 154.877C106.001 154.877 98.4735 149.991 91.1381 152.364Z" fill="#404040"/>
<path d="M96.6267 156.456C96.7269 155.845 97.2901 155.417 97.9038 155.517C98.5175 155.618 98.9481 156.179 98.8479 156.79C98.7476 157.401 98.1844 157.829 97.5708 157.729C96.9571 157.628 96.5265 157.067 96.6267 156.456Z" fill="#81A332"/>
<path d="M44.232 181.369C44.232 181.369 39.9005 192.816 41.4902 196.05C43.1274 199.288 85.3342 205.001 88.2575 202.726C91.1808 200.451 92.7637 187.005 92.7637 187.005L44.232 181.369Z" fill="#323232"/>
<path d="M44.2327 181.369C44.2327 181.369 49.4055 189.151 64.0245 190.594C78.6436 192.037 92.7645 187.005 92.7645 187.005C92.7645 187.005 59.071 178.018 44.2327 181.369Z" fill="#404040"/>
<path d="M63.1555 188.995C63.8378 189.053 64.4381 188.55 64.4964 187.871C64.5546 187.192 64.0486 186.594 63.3663 186.535C62.684 186.477 62.0837 186.98 62.0255 187.659C61.9673 188.338 62.4732 188.937 63.1555 188.995Z" fill="#81A332"/>
<path d="M78.6935 214.916C78.6935 214.916 43.7991 210.449 41.6302 211.74C39.4613 213.031 34.5827 261.029 35.9521 263.482C37.3216 265.934 72.6245 270.103 72.6245 270.103L78.6935 214.916Z" fill="#404040"/>
</g>
<defs>
<filter id="filter0_dd_5546_42508" x="231" y="0" width="751" height="484" filterUnits="userSpaceOnUse" color-interpolation-filters="sRGB">
<feFlood flood-opacity="0" result="BackgroundImageFix"/>
<feColorMatrix in="SourceAlpha" type="matrix" values="0 0 0 0 0 0 0 0 0 0 0 0 0 0 0 0 0 0 127 0" result="hardAlpha"/>
<feOffset dy="1.12694"/>
<feGaussianBlur stdDeviation="1.94084"/>
<feColorMatrix type="matrix" values="0 0 0 0 0 0 0 0 0 0 0 0 0 0 0 0 0 0 0.035 0"/>
<feBlend mode="normal" in2="BackgroundImageFix" result="effect1_dropShadow_5546_42508"/>
<feColorMatrix in="SourceAlpha" type="matrix" values="0 0 0 0 0 0 0 0 0 0 0 0 0 0 0 0 0 0 127 0" result="hardAlpha"/>
<feOffset dy="9"/>
<feGaussianBlur stdDeviation="15.5"/>
<feColorMatrix type="matrix" values="0 0 0 0 0 0 0 0 0 0 0 0 0 0 0 0 0 0 0.07 0"/>
<feBlend mode="normal" in2="effect1_dropShadow_5546_42508" result="effect2_dropShadow_5546_42508"/>
<feBlend mode="normal" in="SourceGraphic" in2="effect2_dropShadow_5546_42508" result="shape"/>
</filter>
<filter id="filter1_dd_5546_42508" x="241" y="54" width="726" height="112" filterUnits="userSpaceOnUse" color-interpolation-filters="sRGB">
<feFlood flood-opacity="0" result="BackgroundImageFix"/>
<feColorMatrix in="SourceAlpha" type="matrix" values="0 0 0 0 0 0 0 0 0 0 0 0 0 0 0 0 0 0 127 0" result="hardAlpha"/>
<feOffset dy="1.12694"/>
<feGaussianBlur stdDeviation="1.94084"/>
<feColorMatrix type="matrix" values="0 0 0 0 0 0 0 0 0 0 0 0 0 0 0 0 0 0 0.035 0"/>
<feBlend mode="normal" in2="BackgroundImageFix" result="effect1_dropShadow_5546_42508"/>
<feColorMatrix in="SourceAlpha" type="matrix" values="0 0 0 0 0 0 0 0 0 0 0 0 0 0 0 0 0 0 127 0" result="hardAlpha"/>
<feOffset dy="9"/>
<feGaussianBlur stdDeviation="15.5"/>
<feColorMatrix type="matrix" values="0 0 0 0 0 0 0 0 0 0 0 0 0 0 0 0 0 0 0.07 0"/>
<feBlend mode="normal" in2="effect1_dropShadow_5546_42508" result="effect2_dropShadow_5546_42508"/>
<feBlend mode="normal" in="SourceGraphic" in2="effect2_dropShadow_5546_42508" result="shape"/>
</filter>
<filter id="filter2_dd_5546_42508" x="241.123" y="163" width="725.692" height="107" filterUnits="userSpaceOnUse" color-interpolation-filters="sRGB">
<feFlood flood-opacity="0" result="BackgroundImageFix"/>
<feColorMatrix in="SourceAlpha" type="matrix" values="0 0 0 0 0 0 0 0 0 0 0 0 0 0 0 0 0 0 127 0" result="hardAlpha"/>
<feOffset dy="1.12694"/>
<feGaussianBlur stdDeviation="1.94084"/>
<feColorMatrix type="matrix" values="0 0 0 0 0 0 0 0 0 0 0 0 0 0 0 0 0 0 0.035 0"/>
<feBlend mode="normal" in2="BackgroundImageFix" result="effect1_dropShadow_5546_42508"/>
<feColorMatrix in="SourceAlpha" type="matrix" values="0 0 0 0 0 0 0 0 0 0 0 0 0 0 0 0 0 0 127 0" result="hardAlpha"/>
<feOffset dy="9"/>
<feGaussianBlur stdDeviation="15.5"/>
<feColorMatrix type="matrix" values="0 0 0 0 0 0 0 0 0 0 0 0 0 0 0 0 0 0 0.07 0"/>
<feBlend mode="normal" in2="effect1_dropShadow_5546_42508" result="effect2_dropShadow_5546_42508"/>
<feBlend mode="normal" in="SourceGraphic" in2="effect2_dropShadow_5546_42508" result="shape"/>
</filter>
<filter id="filter3_dd_5546_42508" x="244" y="219" width="726" height="414" filterUnits="userSpaceOnUse" color-interpolation-filters="sRGB">
<feFlood flood-opacity="0" result="BackgroundImageFix"/>
<feColorMatrix in="SourceAlpha" type="matrix" values="0 0 0 0 0 0 0 0 0 0 0 0 0 0 0 0 0 0 127 0" result="hardAlpha"/>
<feOffset dy="1.12694"/>
<feGaussianBlur stdDeviation="1.94084"/>
<feColorMatrix type="matrix" values="0 0 0 0 0 0 0 0 0 0 0 0 0 0 0 0 0 0 0.035 0"/>
<feBlend mode="normal" in2="BackgroundImageFix" result="effect1_dropShadow_5546_42508"/>
<feColorMatrix in="SourceAlpha" type="matrix" values="0 0 0 0 0 0 0 0 0 0 0 0 0 0 0 0 0 0 127 0" result="hardAlpha"/>
<feOffset dy="9"/>
<feGaussianBlur stdDeviation="15.5"/>
<feColorMatrix type="matrix" values="0 0 0 0 0 0 0 0 0 0 0 0 0 0 0 0 0 0 0.07 0"/>
<feBlend mode="normal" in2="effect1_dropShadow_5546_42508" result="effect2_dropShadow_5546_42508"/>
<feBlend mode="normal" in="SourceGraphic" in2="effect2_dropShadow_5546_42508" result="shape"/>
</filter>
<linearGradient id="paint0_linear_5546_42508" x1="1067.99" y1="474.621" x2="688.037" y2="-8.34409" gradientUnits="userSpaceOnUse">
<stop stop-color="#F2FBDD"/>
<stop offset="1" stop-color="#F2FBDD" stop-opacity="0"/>
</linearGradient>
<linearGradient id="paint1_linear_5546_42508" x1="1052.91" y1="618.542" x2="749.674" y2="172.532" gradientUnits="userSpaceOnUse">
<stop stop-color="#F2FBDD"/>
<stop offset="1" stop-color="#F2FBDD" stop-opacity="0"/>
</linearGradient>
<clipPath id="clip0_5546_42508">
<rect x="262" y="22" width="689" height="422" rx="4" fill="white"/>
</clipPath>
<clipPath id="clip1_5546_42508">
<rect x="275" y="241" width="664" height="352" rx="4" fill="white"/>
</clipPath>
<clipPath id="clip2_5546_42508">
<path d="M299 277C299 270.373 304.373 265 311 265C317.627 265 323 270.373 323 277C323 283.627 317.627 289 311 289C304.373 289 299 283.627 299 277Z" fill="white"/>
</clipPath>
<clipPath id="clip3_5546_42508">
<rect width="41.25" height="24" fill="white" transform="translate(297 265)"/>
</clipPath>
<clipPath id="clip4_5546_42508">
<path d="M299 333C299 326.373 304.373 321 311 321C317.627 321 323 326.373 323 333C323 339.627 317.627 345 311 345C304.373 345 299 339.627 299 333Z" fill="white"/>
</clipPath>
<clipPath id="clip5_5546_42508">
<rect width="41.25" height="24" fill="white" transform="translate(290 321)"/>
</clipPath>
<clipPath id="clip6_5546_42508">
<path d="M299 389C299 382.373 304.373 377 311 377C317.627 377 323 382.373 323 389C323 395.627 317.627 401 311 401C304.373 401 299 395.627 299 389Z" fill="white"/>
</clipPath>
<clipPath id="clip7_5546_42508">
<rect width="41.25" height="24" fill="white" transform="translate(299 377)"/>
</clipPath>
<clipPath id="clip8_5546_42508">
<path d="M299 445C299 438.373 304.373 433 311 433C317.627 433 323 438.373 323 445C323 451.627 317.627 457 311 457C304.373 457 299 451.627 299 445Z" fill="white"/>
</clipPath>
<clipPath id="clip9_5546_42508">
<path d="M299 501C299 494.373 304.373 489 311 489C317.627 489 323 494.373 323 501C323 507.627 317.627 513 311 513C304.373 513 299 507.627 299 501Z" fill="white"/>
</clipPath>
<clipPath id="clip10_5546_42508">
<rect width="41.25" height="24" fill="white" transform="translate(290 489)"/>
</clipPath>
<clipPath id="clip11_5546_42508">
<path d="M299 557C299 550.373 304.373 545 311 545C317.627 545 323 550.373 323 557C323 563.627 317.627 569 311 569C304.373 569 299 563.627 299 557Z" fill="white"/>
</clipPath>
<clipPath id="clip12_5546_42508">
<rect width="41.25" height="24" fill="white" transform="translate(294 545)"/>
</clipPath>
<clipPath id="clip13_5546_42508">
<rect width="217.519" height="524.792" fill="white" transform="translate(45.5029 47) rotate(4.89749)"/>
</clipPath>
</defs>
</svg>
