<svg width="982" height="633" fill="none" xmlns="http://www.w3.org/2000/svg"><g filter="url(#filter0_dd_5546_42508)"><g clip-path="url(#clip0_5546_42508)"><rect x="262" y="22" width="689" height="422" rx="4" fill="#fff"/><path fill="url(#paint0_linear_5546_42508)" d="M262 22h689v422H262z"/><path d="M287.434 61h-1.414l-5.369-8.218V61h-1.413V50.336h1.413l5.384 8.254v-8.254h1.399V61zm7.177 0c-.078-.156-.141-.435-.19-.835-.63.654-1.382.982-2.256.982-.781 0-1.423-.22-1.926-.66-.498-.444-.747-1.006-.747-1.684 0-.825.312-1.465.937-1.92.63-.458 1.514-.688 2.652-.688h1.318v-.622c0-.474-.142-.85-.425-1.128-.283-.283-.701-.425-1.252-.425-.484 0-.889.122-1.216.366-.327.244-.491.54-.491.886h-1.362c0-.395.139-.776.417-1.142a2.897 2.897 0 011.143-.879 3.866 3.866 0 011.589-.322c.913 0 1.629.23 2.146.688.518.454.786 1.082.806 1.883v3.647c0 .727.093 1.306.278 1.736V61h-1.421zm-2.248-1.033c.425 0 .827-.11 1.208-.33.381-.219.657-.505.828-.856v-1.626h-1.062c-1.66 0-2.49.486-2.49 1.457 0 .425.141.757.424.996.284.24.647.36 1.092.36zm6.789-6.892l.037.88c.581-.684 1.365-1.026 2.351-1.026 1.108 0 1.863.424 2.263 1.274.264-.38.606-.688 1.026-.923.424-.234.925-.351 1.501-.351 1.738 0 2.622.92 2.651 2.76V61h-1.355v-5.23c0-.566-.129-.988-.388-1.267-.259-.283-.693-.424-1.303-.424-.503 0-.921.151-1.253.454-.332.298-.525.7-.578 1.208V61h-1.363v-5.193c0-1.152-.564-1.728-1.692-1.728-.888 0-1.496.378-1.823 1.135V61h-1.355v-7.925h1.281zm15.169 8.072c-1.074 0-1.948-.352-2.622-1.055-.674-.708-1.011-1.653-1.011-2.835v-.249c0-.786.149-1.486.447-2.102.303-.62.722-1.103 1.26-1.45a3.166 3.166 0 011.757-.527c1.031 0 1.831.34 2.403 1.018.571.678.857 1.65.857 2.915v.564h-5.369c.019.781.247 1.413.681 1.897.44.478.996.718 1.67.718.479 0 .884-.098 1.216-.293.332-.196.622-.454.871-.777l.828.645c-.664 1.02-1.66 1.53-2.988 1.53zm-.169-7.105c-.547 0-1.006.2-1.377.6-.371.396-.6.953-.688 1.67h3.97v-.102c-.039-.688-.225-1.22-.557-1.597-.332-.38-.781-.571-1.348-.571zM280.651 163.85h5.054V165h-6.467v-10.664h1.413v9.514zm11.338 1.15c-.078-.156-.141-.435-.19-.835-.63.654-1.382.981-2.256.981-.781 0-1.423-.219-1.926-.659-.498-.444-.747-1.006-.747-1.684 0-.825.312-1.465.937-1.919.63-.459 1.514-.689 2.651-.689h1.319v-.622c0-.474-.142-.85-.425-1.128-.283-.283-.701-.425-1.252-.425-.484 0-.889.122-1.216.366-.327.244-.491.54-.491.886h-1.362c0-.395.139-.776.417-1.142a2.893 2.893 0 011.143-.879 3.864 3.864 0 011.589-.322c.913 0 1.629.229 2.146.688.518.454.786 1.082.806 1.883v3.647c0 .728.093 1.306.278 1.736V165h-1.421zm-2.248-1.033c.425 0 .827-.11 1.208-.329.381-.22.657-.506.828-.857v-1.626h-1.062c-1.66 0-2.49.486-2.49 1.457 0 .425.141.757.424.996.284.24.647.359 1.092.359zm6.797-6.892l.044.996c.605-.761 1.396-1.142 2.373-1.142 1.674 0 2.519.945 2.534 2.834V165h-1.355v-5.244c-.005-.571-.137-.994-.396-1.267-.254-.274-.652-.41-1.194-.41-.439 0-.825.117-1.157.351a2.386 2.386 0 00-.776.923V165h-1.355v-7.925h1.282zm6.672 3.897c0-1.236.286-2.217.857-2.945.571-.732 1.328-1.098 2.27-1.098.967 0 1.722.342 2.264 1.025l.066-.879h1.237v7.735c0 1.025-.305 1.833-.915 2.424-.606.591-1.421.886-2.447.886-.571 0-1.13-.122-1.677-.366-.547-.244-.964-.579-1.252-1.004l.703-.812c.581.717 1.291 1.076 2.131 1.076.659 0 1.172-.185 1.538-.556.371-.372.557-.894.557-1.568v-.681c-.542.625-1.282.937-2.219.937-.928 0-1.68-.373-2.256-1.12-.571-.747-.857-1.765-.857-3.054zm1.362.153c0 .894.183 1.597.55 2.11.366.508.878.762 1.538.762.854 0 1.482-.389 1.882-1.165v-3.618c-.415-.757-1.038-1.135-1.868-1.135-.659 0-1.174.256-1.545.769-.371.512-.557 1.272-.557 2.277zm12.276 3.091c-.528.62-1.302.93-2.322.93-.845 0-1.489-.244-1.934-.732-.439-.493-.661-1.221-.666-2.183v-5.156h1.355v5.12c0 1.201.488 1.802 1.465 1.802 1.035 0 1.723-.386 2.065-1.158v-5.764h1.355V165h-1.289l-.029-.784zm8.276.784c-.078-.156-.142-.435-.19-.835-.63.654-1.382.981-2.256.981-.782 0-1.424-.219-1.927-.659-.498-.444-.747-1.006-.747-1.684 0-.825.313-1.465.938-1.919.63-.459 1.514-.689 2.651-.689h1.319v-.622c0-.474-.142-.85-.425-1.128-.283-.283-.701-.425-1.253-.425-.483 0-.888.122-1.215.366-.328.244-.491.54-.491.886h-1.362c0-.395.139-.776.417-1.142a2.893 2.893 0 011.143-.879 3.864 3.864 0 011.589-.322c.913 0 1.628.229 2.146.688.518.454.786 1.082.806 1.883v3.647c0 .728.092 1.306.278 1.736V165h-1.421zm-2.249-1.033c.425 0 .828-.11 1.209-.329.381-.22.657-.506.828-.857v-1.626h-1.062c-1.661 0-2.491.486-2.491 1.457 0 .425.142.757.425.996.283.24.647.359 1.091.359zm5.193-2.995c0-1.236.286-2.217.857-2.945.572-.732 1.328-1.098 2.271-1.098.967 0 1.721.342 2.263 1.025l.066-.879h1.238v7.735c0 1.025-.305 1.833-.916 2.424-.605.591-1.421.886-2.446.886-.571 0-1.13-.122-1.677-.366-.547-.244-.965-.579-1.253-1.004l.703-.812c.581.717 1.292 1.076 2.132 1.076.659 0 1.172-.185 1.538-.556.371-.372.556-.894.556-1.568v-.681c-.542.625-1.281.937-2.219.937-.928 0-1.68-.373-2.256-1.12-.571-.747-.857-1.765-.857-3.054zm1.363.153c0 .894.183 1.597.549 2.11.366.508.879.762 1.538.762.855 0 1.482-.389 1.882-1.165v-3.618c-.415-.757-1.037-1.135-1.867-1.135-.659 0-1.175.256-1.546.769-.371.512-.556 1.272-.556 2.277zm10.671 4.021c-1.074 0-1.948-.351-2.622-1.054-.674-.708-1.011-1.653-1.011-2.835v-.249c0-.786.149-1.487.447-2.102a3.523 3.523 0 011.26-1.45 3.166 3.166 0 011.758-.527c1.03 0 1.831.339 2.402 1.018.571.678.857 1.65.857 2.915v.564h-5.369c.02.781.247 1.413.681 1.897.44.478.996.718 1.67.718.479 0 .884-.098 1.216-.293.332-.196.623-.455.872-.777l.827.645c-.664 1.02-1.66 1.53-2.988 1.53zm-.168-7.104a1.8 1.8 0 00-1.377.601c-.371.395-.601.952-.689 1.669h3.97v-.102c-.039-.689-.225-1.221-.557-1.597-.332-.381-.781-.571-1.347-.571z" fill="#79808D"/><g opacity=".8" filter="url(#filter1_dd_5546_42508)"><rect x="272" y="76" width="664" height="50" rx="6" fill="#fff"/><path d="M291.72 106.126h6.133V108h-8.48V94.492h2.347v11.634zM305.432 108c-.099-.192-.185-.504-.26-.937-.717.748-1.595 1.123-2.634 1.123-1.009 0-1.831-.288-2.468-.863s-.956-1.287-.956-2.134c0-1.07.396-1.89 1.188-2.459.798-.575 1.936-.862 3.414-.862h1.382v-.659c0-.52-.145-.934-.436-1.243-.291-.316-.733-.473-1.327-.473-.513 0-.933.13-1.261.39-.328.253-.492.578-.492.973h-2.254c0-.55.182-1.063.547-1.54.365-.482.86-.86 1.484-1.131.631-.273 1.333-.409 2.106-.409 1.175 0 2.112.297 2.811.891.699.588 1.058 1.416 1.077 2.486v4.528c0 .903.126 1.623.38 2.161V108h-2.301zm-2.477-1.624c.445 0 .863-.108 1.253-.324a2.17 2.17 0 00.89-.872v-1.893h-1.215c-.835 0-1.463.145-1.883.436-.421.291-.631.702-.631 1.234 0 .433.142.779.426 1.039.291.254.678.38 1.16.38zm12.84.641c-.662.779-1.602 1.169-2.82 1.169-1.089 0-1.915-.319-2.477-.956-.557-.637-.835-1.559-.835-2.765v-6.503h2.254v6.476c0 1.274.529 1.911 1.586 1.911 1.095 0 1.834-.393 2.218-1.179v-7.208h2.254V108h-2.124l-.056-.983zm9.732-6.996a5.634 5.634 0 00-.919-.074c-1.032 0-1.728.396-2.087 1.188V108h-2.254V97.962h2.152l.056 1.123c.544-.873 1.298-1.309 2.263-1.309.322 0 .588.044.798.13l-.009 2.115zM332.67 108c-.099-.192-.185-.504-.259-.937-.718.748-1.596 1.123-2.635 1.123-1.008 0-1.831-.288-2.468-.863s-.955-1.287-.955-2.134c0-1.07.395-1.89 1.187-2.459.798-.575 1.936-.862 3.414-.862h1.382v-.659c0-.52-.145-.934-.436-1.243-.29-.316-.733-.473-1.326-.473-.514 0-.934.13-1.262.39-.328.253-.492.578-.492.973h-2.254c0-.55.182-1.063.547-1.54.365-.482.86-.86 1.485-1.131.631-.273 1.333-.409 2.106-.409 1.175 0 2.112.297 2.811.891.699.588 1.057 1.416 1.076 2.486v4.528c0 .903.127 1.623.38 2.161V108h-2.301zm-2.477-1.624c.446 0 .863-.108 1.253-.324.396-.217.693-.507.89-.872v-1.893h-1.215c-.835 0-1.463.145-1.883.436-.421.291-.631.702-.631 1.234 0 .433.142.779.427 1.039.29.254.677.38 1.159.38zm22.015-2.773c-.136 1.441-.667 2.566-1.595 3.376-.928.805-2.162 1.207-3.702 1.207-1.076 0-2.025-.254-2.848-.761-.816-.514-1.447-1.24-1.893-2.18-.445-.94-.677-2.032-.695-3.275v-1.262c0-1.274.225-2.397.677-3.368.451-.97 1.098-1.72 1.939-2.245.847-.525 1.824-.788 2.931-.788 1.491 0 2.691.405 3.6 1.215.909.81 1.438 1.954 1.586 3.433h-2.337c-.112-.971-.396-1.67-.854-2.097-.451-.433-1.116-.65-1.995-.65-1.02 0-1.806.375-2.356 1.123-.544.742-.823 1.834-.835 3.275v1.197c0 1.459.26 2.573.779 3.34.526.767 1.293 1.15 2.301 1.15.922 0 1.614-.207 2.078-.622.464-.414.758-1.104.882-2.068h2.337zm1.466-.715c0-.983.195-1.868.585-2.653.389-.792.937-1.398 1.642-1.819.705-.426 1.515-.64 2.431-.64 1.354 0 2.452.436 3.293 1.309.847.872 1.305 2.028 1.373 3.469l.009.529c0 .99-.191 1.874-.575 2.653a4.165 4.165 0 01-1.633 1.809c-.705.427-1.521.641-2.449.641-1.416 0-2.551-.471-3.405-1.411-.847-.946-1.271-2.205-1.271-3.775v-.112zm2.255.195c0 1.033.213 1.843.64 2.431.427.581 1.02.872 1.781.872.761 0 1.351-.297 1.772-.891.427-.594.64-1.463.64-2.607 0-1.014-.219-1.818-.658-2.412-.433-.594-1.024-.89-1.772-.89-.736 0-1.321.293-1.754.881-.433.581-.649 1.453-.649 2.616zM367.312 108h-2.254V93.75h2.254V108zm4.861 0h-2.254V97.962h2.254V108zm-2.393-12.645c0-.346.108-.634.324-.863.223-.229.539-.343.947-.343.408 0 .723.114.946.343.223.229.334.517.334.863 0 .34-.111.625-.334.853-.223.223-.538.335-.946.335-.408 0-.724-.112-.947-.335a1.195 1.195 0 01-.324-.853zm6.949 2.607l.064 1.16c.743-.897 1.717-1.346 2.923-1.346 2.09 0 3.154 1.197 3.191 3.591V108h-2.254v-6.503c0-.637-.139-1.108-.418-1.411-.272-.309-.72-.463-1.345-.463-.909 0-1.586.411-2.032 1.233V108h-2.254V97.962h2.125zm14.11 7.31c0-.402-.167-.708-.501-.918-.327-.21-.875-.396-1.642-.557-.767-.16-1.407-.365-1.92-.612-1.126-.544-1.689-1.333-1.689-2.366 0-.865.365-1.59 1.095-2.17.73-.582 1.658-.873 2.783-.873 1.2 0 2.168.297 2.904.891.742.594 1.113 1.364 1.113 2.31h-2.254c0-.433-.161-.792-.482-1.076-.322-.29-.749-.436-1.281-.436-.494 0-.9.114-1.215.343a1.086 1.086 0 00-.464.919c0 .346.145.615.436.807.291.191.878.386 1.763.584.884.192 1.577.424 2.078.696.507.266.881.588 1.123.965.247.377.371.835.371 1.373 0 .903-.375 1.636-1.123 2.199-.748.556-1.729.835-2.941.835-.822 0-1.555-.149-2.199-.446-.643-.297-1.144-.705-1.502-1.224a2.901 2.901 0 01-.539-1.68h2.19c.031.532.232.944.603 1.234.371.285.863.427 1.475.427.594 0 1.045-.111 1.354-.334.31-.229.464-.526.464-.891z" fill="#333945"/></g><g opacity=".8" filter="url(#filter2_dd_5546_42508)"><rect x="272.123" y="185" width="663.692" height="45" rx="6" fill="#fff"/><path d="M294.904 207.399h-4.313v3.528h5.011V212h-6.324v-9.953h6.255v1.08h-4.942v3.199h4.313v1.073zm3.329-2.795l.041.929c.566-.711 1.304-1.066 2.215-1.066 1.563 0 2.352.882 2.365 2.645V212h-1.264v-4.895c-.005-.533-.128-.927-.369-1.182-.237-.255-.609-.383-1.115-.383-.41 0-.77.109-1.08.328-.31.219-.551.506-.724.861V212h-1.265v-7.396h1.196zm6.228 3.636c0-1.153.267-2.069.8-2.748.533-.683 1.239-1.025 2.119-1.025.902 0 1.606.319 2.112.957l.062-.82h1.155v7.218c0 .957-.285 1.712-.855 2.263-.565.551-1.326.827-2.283.827a3.8 3.8 0 01-1.565-.342c-.511-.228-.9-.54-1.169-.936l.656-.759c.542.67 1.206 1.005 1.989 1.005.616 0 1.094-.173 1.436-.52.346-.346.52-.834.52-1.463v-.635c-.506.583-1.197.875-2.072.875-.866 0-1.567-.349-2.105-1.046-.533-.697-.8-1.648-.8-2.851zm1.271.144c0 .834.171 1.49.513 1.969.342.473.82.71 1.436.71.797 0 1.383-.362 1.757-1.086V206.6c-.388-.707-.969-1.06-1.744-1.06-.615 0-1.096.239-1.442.718-.346.478-.52 1.187-.52 2.126zm8.265 3.616h-1.265v-10.5h1.265V212zm3.404 0h-1.264v-7.396h1.264V212zm-1.367-9.358c0-.205.062-.379.185-.52.127-.141.314-.212.56-.212.246 0 .433.071.561.212a.75.75 0 01.191.52.722.722 0 01-.191.512c-.128.137-.315.205-.561.205-.246 0-.433-.068-.56-.205a.735.735 0 01-.185-.512zm7.704 7.396c0-.342-.13-.606-.389-.793-.256-.191-.704-.355-1.347-.492-.638-.137-1.146-.301-1.524-.492-.374-.192-.652-.42-.834-.684a1.648 1.648 0 01-.267-.943c0-.606.255-1.119.766-1.538.515-.42 1.171-.629 1.968-.629.839 0 1.518.216 2.037.649.525.433.787.987.787 1.661h-1.272c0-.346-.148-.645-.444-.895-.292-.251-.661-.376-1.108-.376-.46 0-.82.1-1.08.301a.944.944 0 00-.389.786c0 .305.12.535.362.69.241.155.677.303 1.306.445.633.141 1.146.309 1.538.505.392.196.681.433.868.711.191.274.287.609.287 1.005 0 .661-.264 1.192-.793 1.593-.529.396-1.215.595-2.058.595-.592 0-1.116-.105-1.572-.315a2.584 2.584 0 01-1.073-.875 2.146 2.146 0 01-.383-1.223h1.265c.022.423.191.761.506 1.011.319.246.738.369 1.257.369.479 0 .862-.095 1.149-.287.291-.196.437-.455.437-.779zm4.177-4.539c.561-.688 1.29-1.032 2.188-1.032 1.563 0 2.351.882 2.365 2.645V212h-1.265v-4.895c-.004-.533-.127-.927-.369-1.182-.237-.255-.608-.383-1.114-.383-.41 0-.77.109-1.08.328a2.23 2.23 0 00-.725.861V212h-1.265v-10.5h1.265v3.999z" fill="#333945"/><path d="M911.594 209.044l-3.471-3.486-3.471 3.486" stroke="#79808D" stroke-width="1.5" stroke-linecap="round" stroke-linejoin="round"/></g></g></g><g filter="url(#filter3_dd_5546_42508)"><g clip-path="url(#clip1_5546_42508)"><rect x="275" y="241" width="664" height="352" rx="4" fill="#fff"/><rect x="927" y="251" width="6" height="328" rx="3" fill="#F7F7F7"/><rect x="928" y="252" width="4" height="120" rx="2" fill="#C4C4C4"/><rect x="286" y="251" width="632" height="54" rx="8" fill="#F7F7F7"/><path fill="url(#paint1_linear_5546_42508)" d="M275 241h665v352H275z"/><g clip-path="url(#clip2_5546_42508)"><g clip-path="url(#clip3_5546_42508)"><path fill="#FAFAFA" d="M297 265h41.25v24H297z"/><path fill-rule="evenodd" clip-rule="evenodd" d="M292.5 265h45.75v1.847H292.5V265zm0 3.694h45.75v1.847H292.5v-1.847zm0 3.689h45.75v1.851H292.5v-1.851zm0 3.694h45.75v1.846H292.5v-1.846zm0 3.693h45.75v1.847H292.5v-1.847zm0 3.689h45.75v1.847H292.5v-1.847zm0 3.694h45.75V289H292.5v-1.847z" fill="#FF2C2C"/><path fill-rule="evenodd" clip-rule="evenodd" d="M297 265h17.25v12.75H297V265z" fill="#0E3694"/><path fill-rule="evenodd" clip-rule="evenodd" d="M298.417 265.75l.16.492h.507l-.409.303.155.497-.413-.307-.409.302.155-.492-.413-.303h.516l.151-.492zm2.885 0l.155.492h.512l-.414.303.156.497-.409-.307-.414.302.156-.492-.409-.303h.507l.16-.492zm2.88 0l.161.492h.502l-.409.303.155.497-.413-.307-.409.302.156-.492-.414-.303h.511l.16-.492zm2.886 0l.155.492h.511l-.413.303.16.497-.413-.307-.414.302.16-.492-.413-.303h.506l.161-.492zm2.88 0l.16.492h.507l-.409.303.156.497-.414-.307-.409.302.156-.492-.409-.303h.507l.155-.492zm2.885 0l.156.492h.511l-.413.303.16.497-.414-.307-.413.302.16-.492-.414-.303h.512l.155-.492zm-12.971 1.246l.155.493h.511l-.413.302.151.493-.4-.303-.413.303.146-.493-.4-.302h.507l.156-.493zm2.88 0l.16.493h.507l-.413.302.16.493-.414-.303-.413.303.16-.493-.414-.302h.512l.155-.493zm2.885 0l.156.493h.511l-.413.302.155.493-.409-.303-.413.303.155-.493-.409-.302h.507l.16-.493zm2.881 0l.16.493h.507l-.414.302.16.493-.413-.303-.409.303.155-.493-.413-.302h.516l.151-.493zm2.885 0l.155.493h.512l-.414.302.156.493-.409-.303-.414.303.156-.493-.409-.302h.507l.16-.493zm-12.976 1.242l.16.502h.507l-.409.302.155.493-.413-.307-.409.307.155-.497-.413-.303h.516l.151-.497zm2.885 0l.155.497h.512l-.414.303.156.492-.409-.307-.414.307.156-.497-.409-.302h.507l.16-.493zm2.88 0l.161.497h.502l-.409.303.155.492-.413-.307-.409.307.156-.497-.414-.302h.511l.16-.493zm2.886 0l.155.497h.511l-.413.303.16.492-.413-.307-.414.307.16-.497-.413-.302h.506l.161-.493zm2.88 0l.16.497h.507l-.409.303.156.492-.414-.307-.409.307.156-.497-.409-.302h.507l.155-.493zm2.885 0l.156.497h.511l-.413.303.16.492-.414-.307-.413.307.16-.497-.414-.302h.512l.155-.493zm-12.971 1.247l.155.492h.511l-.413.303.156.497-.409-.308-.414.303.156-.492-.409-.303h.507l.16-.492zm2.88 0l.16.492h.507l-.413.303.16.497-.414-.308-.413.303.16-.492-.414-.303h.512l.155-.492zm2.885 0l.156.492h.511l-.413.303.155.497-.409-.308-.413.303.155-.492-.409-.303h.507l.16-.492zm2.881 0l.16.492h.507l-.409.303.155.497-.413-.308-.409.303.155-.492-.413-.303h.516l.151-.492zm2.885 0l.155.492h.512l-.414.303.156.497-.409-.308-.414.303.156-.492-.409-.303h.507l.16-.492zm-12.976 1.246l.16.493h.507l-.409.302.155.497-.413-.307-.409.303.155-.493-.413-.302h.516l.151-.493zm2.885 0l.155.493h.512l-.414.302.156.493-.409-.303-.414.303.156-.493-.409-.302h.507l.16-.493zm2.88 0l.161.493h.502l-.409.302.155.497-.413-.307-.409.303.156-.493-.414-.302h.511l.16-.493zm2.886 0l.155.493h.511l-.413.302.16.497-.413-.307-.414.303.16-.493-.413-.302h.506l.161-.493zm2.88 0l.16.493h.507l-.409.302.156.497-.414-.307-.409.303.156-.493-.409-.302h.507l.155-.493zm2.885 0l.156.493h.511l-.413.302.16.497-.414-.307-.413.303.16-.493-.414-.302h.512l.155-.493zm-12.971 1.247l.155.492h.511l-.413.303.156.492-.409-.307-.414.307.156-.497-.409-.302h.507l.16-.488zm2.88 0l.16.492h.507l-.413.303.16.492-.414-.307-.413.307.16-.497-.414-.302h.512l.155-.488zm2.885 0l.156.492h.511l-.413.303.155.492-.409-.307-.413.307.155-.497-.409-.302h.507l.16-.488zm2.881 0l.16.492h.507l-.409.303.155.492-.413-.307-.409.307.155-.497-.413-.302h.516l.151-.488zm2.885 0l.155.492h.512l-.414.303.156.492-.409-.307-.414.307.156-.497-.409-.302h.507l.16-.488zm-12.976 1.242l.16.497h.507l-.409.302.155.488-.413-.303-.409.303.155-.492-.413-.303h.516l.151-.492zm2.885 0l.155.497h.512l-.414.302.16.488-.413-.303-.414.303.16-.492-.413-.303h.507l.16-.492zm2.88 0l.161.497h.502l-.409.302.155.488-.413-.303-.409.303.156-.492-.414-.303h.511l.16-.492zm2.886 0l.155.497h.511l-.413.302.16.488-.413-.303-.414.303.16-.492-.413-.303h.506l.161-.492zm2.88 0l.16.497h.507l-.409.302.156.488-.414-.303-.409.303.156-.492-.409-.303h.507l.155-.492zm2.885 0l.156.497h.511l-.413.302.16.488-.414-.303-.413.303.16-.492-.414-.303h.512l.155-.492zm-12.971 1.246l.155.493h.511l-.413.302.156.497-.409-.307-.414.303.156-.493-.409-.302h.507l.16-.493zm2.88 0l.16.493h.507l-.413.302.16.497-.414-.307-.413.303.16-.493-.414-.302h.512l.155-.493zm2.885 0l.156.493h.511l-.413.302.155.497-.409-.307-.413.303.155-.493-.409-.302h.507l.16-.493zm2.881 0l.16.493h.507l-.409.302.155.497-.413-.307-.409.303.155-.493-.413-.302h.516l.151-.493zm2.885 0l.155.493h.512l-.414.302.156.497-.409-.307-.414.303.156-.493-.409-.302h.507l.16-.493zm-12.976 1.247l.16.492h.507l-.409.303.155.492-.413-.303-.409.303.155-.497-.413-.302h.516l.151-.488zm2.885 0l.155.492h.512l-.414.303.16.492-.413-.303-.414.303.16-.497-.413-.302h.507l.16-.488zm2.88 0l.161.492h.502l-.4.303.155.492-.413-.303-.409.303.156-.497-.414-.302h.511l.151-.488zm2.886 0l.155.492h.511l-.413.303.16.492-.413-.303-.414.303.16-.497-.413-.302h.506l.161-.488zm2.88 0l.16.492h.507l-.409.303.156.492-.414-.303-.409.303.156-.497-.409-.302h.507l.155-.488zm2.885 0l.156.492h.511l-.413.303.16.492-.414-.303-.413.303.16-.497-.414-.302h.512l.155-.488z" fill="#FAFAFA"/></g></g><g clip-path="url(#clip4_5546_42508)"><g clip-path="url(#clip5_5546_42508)" opacity=".9"><path fill="#FAFAFA" d="M290 321h41.25v24H290z"/><path fill-rule="evenodd" clip-rule="evenodd" d="M290 321h41.25v24H290v-24z" fill="#FAFAFA"/><path fill-rule="evenodd" clip-rule="evenodd" d="M292 321h14v24h-14v-24z" fill="#0E3694"/><path fill-rule="evenodd" clip-rule="evenodd" d="M316 321h13.748v24H316v-24z" fill="#FF2C2C"/></g></g><g clip-path="url(#clip6_5546_42508)"><g clip-path="url(#clip7_5546_42508)" opacity=".8"><path fill="#fff" d="M299 377h41.25v24H299z"/><path d="M299 392.75h41.25V401H299v-8.25z" fill="#FFBE18"/><path d="M299 377h41.25v8.25H299V377z" fill="#000"/><path d="M299 385.25h41.25v7.5H299v-7.5z" fill="#FF2C2C"/></g></g><g clip-path="url(#clip8_5546_42508)" opacity=".7"><path d="M299 445c0-6.627 5.373-12 12-12s12 5.373 12 12-5.373 12-12 12-12-5.373-12-12z" fill="#fff"/><path fill="#fff" d="M291 433h41v24h-41z"/><path d="M291 433h41v24h-41v-24z" fill="#FFBE18"/><path d="M291 441.25h41V457h-41v-15.75z" fill="#fff"/><path d="M291 448.75h41V457h-41v-8.25z" fill="#29971F"/><path d="M311.128 448.2c1.756 0 3.18-1.433 3.18-3.2a3.19 3.19 0 00-3.18-3.2 3.19 3.19 0 00-3.181 3.2 3.19 3.19 0 003.181 3.2z" fill="#0E3694"/><path d="M311.128 447.8a2.792 2.792 0 002.783-2.8c0-1.547-1.246-2.8-2.783-2.8a2.791 2.791 0 00-2.783 2.8c0 1.546 1.246 2.8 2.783 2.8z" fill="#fff"/><path d="M311.128 445.32a.32.32 0 000-.64.319.319 0 00-.318.32c0 .176.142.32.318.32zm.016 2.48l.096-1.68-.096-.8-.095.8.095 1.68z" fill="#0E3694"/><path d="M310.106 447.601l.703-1.527.204-.779-.382.708-.525 1.598zm2.997-.694l-1.113-1.255-.63-.498.495.633 1.248 1.12zm-.85.589l-.575-1.579-.404-.696.228.772.751 1.503zm-3.908-2.48l1.669.096.796-.096-.796-.096-1.669.096zm.176-1.039l1.518.707.775.205-.705-.383-1.588-.529zm.646 2.953l1.248-1.12.495-.634-.629.498-1.114 1.256zm-.581-.869l1.57-.58.692-.405-.767.23-1.495.755zm2.558-3.861l-.096 1.68.096.8.095-.8-.095-1.68zm1.009.194l-.704 1.527-.203.779.382-.708.525-1.598zm-2.985.554l1.113 1.255.63.498-.495-.633-1.248-1.12zm.875-.589l.575 1.579.403.696-.227-.772-.751-1.503zm3.868 2.657l-1.67-.096-.795.096.795.096 1.67-.096zm-.214 1.021l-1.518-.707-.775-.206.705.384 1.588.529zm-.594-3.067l-1.248 1.121-.495.633.63-.498 1.113-1.256zm.592.867l-1.571.579-.692.406.768-.23 1.495-.755z" fill="#0E3694"/></g><g clip-path="url(#clip9_5546_42508)"><g clip-path="url(#clip10_5546_42508)" opacity=".5"><path fill="#FAFAFA" d="M290 489h41.25v24H290z"/><path fill-rule="evenodd" clip-rule="evenodd" d="M291 489h41.25v24H291v-24z" fill="#FAFAFA"/><path fill-rule="evenodd" clip-rule="evenodd" d="M293 489h14v24h-14v-24z" fill="#29971F"/><path fill-rule="evenodd" clip-rule="evenodd" d="M315 489h13.748v24H315v-24z" fill="#FF2C2C"/></g></g><g clip-path="url(#clip11_5546_42508)"><g clip-path="url(#clip12_5546_42508)" opacity=".4"><path fill="#fff" d="M294 545h41.25v24H294z"/><path fill-rule="evenodd" clip-rule="evenodd" d="M294 545h41.25v24H294v-24z" fill="#FF2C2C"/><path fill-rule="evenodd" clip-rule="evenodd" d="M314.585 557c0 3.037-2.593 5.5-5.793 5.5S303 560.037 303 556.995c0-3.041 2.592-5.495 5.792-5.495 3.2 0 5.793 2.463 5.793 5.5z" fill="#fff"/><path fill-rule="evenodd" clip-rule="evenodd" d="M314.869 557c0 2.431-2.07 4.399-4.629 4.399-2.559 0-4.634-1.972-4.634-4.403 0-2.432 2.075-4.395 4.634-4.395s4.634 1.968 4.634 4.399h-.005z" fill="#FF2C2C"/><path fill-rule="evenodd" clip-rule="evenodd" d="M315.709 554.431l-.047 2.032-1.961.514 1.937.665-.047 1.867 1.258-1.458 1.909.642-1.102-1.564 1.344-1.555-2.066.55-1.225-1.697v.004z" fill="#fff"/></g></g><path d="M354.268 276.97h-5.548v4.156h6.485V283h-8.832v-13.508h8.767v1.893h-6.42v3.729h5.548v1.856zm4.722-4.008l.065 1.16c.742-.897 1.716-1.346 2.923-1.346 2.09 0 3.154 1.197 3.191 3.591V283h-2.254v-6.503c0-.637-.14-1.108-.418-1.411-.272-.309-.72-.463-1.345-.463-.909 0-1.587.411-2.032 1.233V283h-2.254v-10.038h2.124zm8.09 4.945c0-1.559.365-2.802 1.095-3.73.736-.934 1.71-1.401 2.922-1.401 1.144 0 2.044.399 2.7 1.197l.102-1.011h2.032v9.732c0 1.317-.412 2.356-1.234 3.117-.817.761-1.921 1.141-3.312 1.141a5.322 5.322 0 01-2.162-.464c-.699-.303-1.231-.702-1.596-1.196l1.067-1.355c.693.823 1.547 1.234 2.561 1.234.748 0 1.339-.204 1.772-.612.433-.402.649-.996.649-1.782v-.677c-.649.724-1.515 1.086-2.597 1.086-1.176 0-2.137-.467-2.886-1.401-.742-.934-1.113-2.227-1.113-3.878zm2.245.195c0 1.008.204 1.802.613 2.384.414.575.986.863 1.716.863.909 0 1.583-.39 2.022-1.169v-4.416c-.426-.761-1.094-1.141-2.004-1.141-.742 0-1.32.293-1.734.881-.409.587-.613 1.453-.613 2.598zM380.653 283h-2.255v-14.25h2.255V283zm4.861 0h-2.254v-10.038h2.254V283zm-2.393-12.645c0-.346.108-.634.324-.863.223-.229.538-.343.947-.343.408 0 .723.114.946.343.223.229.334.517.334.863 0 .34-.111.625-.334.853-.223.223-.538.334-.946.334-.409 0-.724-.111-.947-.334a1.193 1.193 0 01-.324-.853zm10.483 9.917c0-.402-.167-.708-.501-.918-.328-.21-.875-.396-1.642-.557-.767-.16-1.407-.365-1.92-.612-1.126-.544-1.689-1.333-1.689-2.366 0-.866.365-1.589 1.095-2.171.73-.581 1.657-.872 2.783-.872 1.2 0 2.168.297 2.904.891.742.594 1.113 1.364 1.113 2.31h-2.254c0-.433-.161-.792-.483-1.076-.321-.291-.748-.436-1.28-.436-.495 0-.9.114-1.215.343-.31.229-.464.535-.464.919 0 .346.145.615.436.807.291.191.878.386 1.763.584.884.192 1.577.424 2.078.696.507.266.881.588 1.122.965.248.377.371.835.371 1.373 0 .903-.374 1.636-1.122 2.199-.749.556-1.729.835-2.941.835-.823 0-1.556-.149-2.199-.446-.643-.297-1.144-.705-1.503-1.224a2.9 2.9 0 01-.538-1.68h2.19c.03.532.231.944.603 1.234.371.285.862.427 1.475.427.593 0 1.045-.111 1.354-.334.309-.229.464-.526.464-.891zm6.411-6.215c.736-.854 1.666-1.281 2.792-1.281 2.14 0 3.226 1.222 3.256 3.665V283h-2.254v-6.476c0-.692-.151-1.181-.455-1.465-.296-.291-.736-.436-1.317-.436-.903 0-1.577.402-2.022 1.206V283h-2.255v-14.25h2.255v5.307z" fill="#333945"/><path opacity=".9" d="M354.018 334.035h-5.669V340h-1.781v-13.508h8.368v1.466h-6.587v4.62h5.669v1.457zm7.394-2.533a5.188 5.188 0 00-.845-.065c-1.125 0-1.889.479-2.291 1.438V340h-1.716v-10.038h1.669l.028 1.16c.563-.897 1.361-1.346 2.394-1.346.334 0 .587.044.761.13v1.596zm5.566 8.684c-1.361 0-2.468-.446-3.321-1.336-.854-.897-1.281-2.094-1.281-3.591v-.315c0-.996.189-1.883.566-2.663.384-.785.916-1.398 1.596-1.837a4.019 4.019 0 012.227-.668c1.305 0 2.319.43 3.043 1.29.723.86 1.085 2.09 1.085 3.692v.715h-6.8c.025.989.312 1.79.863 2.402.556.607 1.261.91 2.115.91.606 0 1.119-.124 1.54-.371a3.9 3.9 0 001.104-.984l1.048.817c-.841 1.292-2.103 1.939-3.785 1.939zm-.213-8.999c-.693 0-1.274.253-1.744.76-.471.501-.761 1.206-.873 2.115h5.029v-.129c-.05-.872-.285-1.547-.705-2.023-.421-.482-.99-.723-1.707-.723zm7.746-1.225l.056 1.262c.767-.965 1.769-1.448 3.006-1.448 2.121 0 3.191 1.197 3.21 3.591V340h-1.717v-6.643c-.006-.723-.173-1.258-.501-1.605-.321-.346-.825-.519-1.512-.519-.556 0-1.045.148-1.466.445-.42.297-.748.687-.983 1.169V340h-1.716v-10.038h1.623zm12.886 8.823a2.47 2.47 0 001.605-.557c.458-.371.712-.835.761-1.392h1.624c-.031.576-.229 1.123-.594 1.643a3.917 3.917 0 01-1.466 1.243 4.19 4.19 0 01-1.93.464c-1.366 0-2.455-.455-3.265-1.364-.804-.916-1.206-2.165-1.206-3.748v-.288c0-.977.179-1.846.538-2.607.359-.761.872-1.351 1.54-1.772.674-.42 1.469-.631 2.384-.631 1.126 0 2.06.337 2.802 1.012.748.674 1.147 1.549 1.197 2.625h-1.624c-.049-.649-.297-1.181-.742-1.596-.439-.42-.983-.63-1.633-.63-.872 0-1.549.315-2.032.946-.476.624-.714 1.531-.714 2.718v.325c0 1.156.238 2.047.714 2.672.477.624 1.157.937 2.041.937zm7.636-7.608c.76-.934 1.75-1.401 2.968-1.401 2.122 0 3.192 1.197 3.21 3.591V340h-1.716v-6.643c-.006-.723-.173-1.258-.501-1.605-.321-.346-.826-.519-1.512-.519-.557 0-1.045.148-1.466.445-.42.297-.748.687-.983 1.169V340h-1.717v-14.25h1.717v5.427z" fill="#333945"/><path opacity=".8" d="M356.541 394.228c-.458.656-1.098 1.147-1.92 1.475-.817.322-1.769.483-2.858.483-1.101 0-2.078-.257-2.931-.77-.854-.52-1.516-1.256-1.986-2.208-.464-.953-.702-2.057-.714-3.312v-1.179c0-2.035.473-3.612 1.419-4.731.953-1.12 2.289-1.679 4.008-1.679 1.41 0 2.545.361 3.405 1.085.86.718 1.385 1.738 1.577 3.062h-1.781c-.334-1.788-1.398-2.682-3.192-2.682-1.193 0-2.099.421-2.718 1.262-.612.835-.921 2.047-.928 3.637v1.104c0 1.515.347 2.721 1.039 3.618.693.891 1.63 1.336 2.811 1.336.668 0 1.253-.074 1.754-.223a2.71 2.71 0 001.243-.751v-3.034h-3.126v-1.447h4.898v4.954zm6.875 1.958c-1.361 0-2.468-.446-3.322-1.336-.853-.897-1.28-2.094-1.28-3.591v-.315c0-.996.189-1.883.566-2.663.383-.785.915-1.398 1.596-1.837a4.013 4.013 0 012.226-.668c1.305 0 2.319.43 3.043 1.29.724.86 1.086 2.09 1.086 3.692v.715h-6.801c.025.989.313 1.79.863 2.402.557.607 1.262.91 2.115.91.606 0 1.12-.124 1.54-.371a3.872 3.872 0 001.104-.984l1.049.817c-.841 1.292-2.103 1.939-3.785 1.939zm-.214-8.999c-.693 0-1.274.253-1.744.76-.47.501-.761 1.206-.872 2.115h5.028v-.129c-.049-.872-.284-1.547-.705-2.023-.42-.482-.989-.723-1.707-.723zm10.975.315a5.175 5.175 0 00-.844-.065c-1.126 0-1.889.479-2.291 1.438V396h-1.717v-10.038h1.67l.028 1.16c.563-.897 1.361-1.346 2.394-1.346.333 0 .587.044.76.13v1.596zm3.201-1.54l.046 1.113c.736-.866 1.729-1.299 2.978-1.299 1.404 0 2.36.538 2.867 1.615a3.81 3.81 0 011.299-1.169c.538-.297 1.172-.446 1.902-.446 2.202 0 3.321 1.166 3.358 3.498V396h-1.716v-6.624c0-.717-.164-1.252-.492-1.605-.328-.359-.878-.538-1.651-.538-.637 0-1.166.192-1.587.575-.42.377-.665.888-.733 1.531V396h-1.725v-6.578c0-1.459-.715-2.189-2.143-2.189-1.126 0-1.896.479-2.31 1.438V396h-1.717v-10.038h1.624zM398.623 396c-.099-.198-.179-.55-.241-1.058-.798.829-1.75 1.244-2.858 1.244-.989 0-1.802-.279-2.44-.835-.63-.563-.946-1.275-.946-2.134 0-1.045.396-1.856 1.188-2.431.798-.581 1.917-.872 3.358-.872h1.67v-.789c0-.599-.179-1.076-.538-1.428-.359-.359-.888-.538-1.587-.538-.612 0-1.125.154-1.54.464-.414.309-.621.683-.621 1.122h-1.726c0-.501.177-.983.529-1.447.359-.47.841-.841 1.447-1.113a4.893 4.893 0 012.014-.409c1.156 0 2.062.291 2.718.872.655.576.996 1.37 1.02 2.385v4.62c0 .921.118 1.654.353 2.199V396h-1.8zm-2.848-1.308c.538 0 1.048-.139 1.531-.418.482-.278.832-.64 1.048-1.085v-2.06h-1.345c-2.103 0-3.155.616-3.155 1.847 0 .538.18.958.539 1.261.358.303.819.455 1.382.455zm8.609-8.73l.056 1.262c.767-.965 1.769-1.448 3.006-1.448 2.121 0 3.191 1.197 3.21 3.591V396h-1.717v-6.643c-.006-.723-.173-1.258-.501-1.605-.321-.346-.825-.519-1.512-.519-.556 0-1.045.148-1.466.445-.42.297-.748.687-.983 1.169V396h-1.716v-10.038h1.623z" fill="#333945"/><path opacity=".7" d="M356.949 451h-1.79v-6.244h-6.81V451h-1.781v-13.508h1.781v5.808h6.81v-5.808h1.79V451zm4.759 0h-1.716v-10.038h1.716V451zm-1.855-12.701c0-.278.084-.513.251-.705.173-.191.426-.287.76-.287s.588.096.761.287c.173.192.26.427.26.705a.98.98 0 01-.26.696c-.173.186-.427.278-.761.278s-.587-.092-.76-.278a1 1 0 01-.251-.696zm6.234 2.663l.056 1.262c.767-.965 1.769-1.448 3.006-1.448 2.121 0 3.191 1.197 3.21 3.591V451h-1.716v-6.643c-.007-.723-.174-1.258-.501-1.605-.322-.346-.826-.519-1.513-.519-.556 0-1.045.148-1.465.445a3.026 3.026 0 00-.984 1.169V451h-1.716v-10.038h1.623zm8.443 4.935c0-1.54.365-2.777 1.095-3.71.729-.941 1.685-1.411 2.866-1.411 1.175 0 2.106.402 2.793 1.206v-5.232H383V451h-1.577l-.084-1.076c-.686.841-1.642 1.262-2.866 1.262-1.163 0-2.112-.477-2.848-1.429-.73-.953-1.095-2.196-1.095-3.73v-.13zm1.716.195c0 1.138.235 2.029.705 2.672.47.643 1.12.965 1.948.965 1.089 0 1.884-.489 2.385-1.466v-4.611c-.514-.946-1.302-1.419-2.366-1.419-.841 0-1.497.325-1.967.974s-.705 1.611-.705 2.885zM387.537 451h-1.717v-10.038h1.717V451zm-1.856-12.701c0-.278.084-.513.251-.705.173-.191.426-.287.76-.287s.588.096.761.287c.173.192.26.427.26.705a.98.98 0 01-.26.696c-.173.186-.427.278-.761.278s-.587-.092-.76-.278a1 1 0 01-.251-.696z" fill="#333945"/><path opacity=".5" d="M348.479 507h-1.781v-13.508h1.781V507zm5.325-12.469v2.431h1.874v1.327h-1.874v6.225c0 .402.084.705.251.909.167.198.451.297.853.297.198 0 .47-.037.817-.112V507a4.97 4.97 0 01-1.318.186c-.767 0-1.345-.232-1.735-.696-.389-.464-.584-1.123-.584-1.976v-6.225h-1.828v-1.327h1.828v-2.431h1.716zM363.889 507c-.099-.198-.18-.55-.242-1.058-.797.829-1.75 1.244-2.857 1.244-.99 0-1.803-.279-2.44-.835-.631-.563-.946-1.275-.946-2.134 0-1.045.396-1.856 1.187-2.431.798-.581 1.918-.872 3.359-.872h1.67v-.789c0-.599-.18-1.076-.538-1.428-.359-.359-.888-.538-1.587-.538-.612 0-1.126.154-1.54.464-.414.309-.622.683-.622 1.122h-1.725c0-.501.176-.983.529-1.447.358-.47.841-.841 1.447-1.113a4.885 4.885 0 012.013-.409c1.157 0 2.063.291 2.718.872.656.576.996 1.37 1.021 2.385v4.62c0 .921.117 1.654.352 2.199V507h-1.799zm-2.848-1.308c.538 0 1.048-.139 1.53-.418.483-.278.832-.64 1.049-1.085v-2.06h-1.346c-2.102 0-3.154.616-3.154 1.847 0 .538.179.958.538 1.261.359.303.82.455 1.383.455zm8.85 1.308h-1.716v-14.25h1.716V507zm4.62 0h-1.716v-10.038h1.716V507zm-1.855-12.701c0-.278.083-.513.25-.705.173-.191.427-.287.761-.287s.588.096.761.287c.173.192.26.427.26.705a.98.98 0 01-.26.696c-.173.186-.427.278-.761.278s-.588-.092-.761-.278a1 1 0 01-.25-.696zM383.464 507c-.099-.198-.179-.55-.241-1.058-.798.829-1.751 1.244-2.858 1.244-.989 0-1.803-.279-2.44-.835-.631-.563-.946-1.275-.946-2.134 0-1.045.396-1.856 1.188-2.431.797-.581 1.917-.872 3.358-.872h1.67v-.789c0-.599-.18-1.076-.538-1.428-.359-.359-.888-.538-1.587-.538-.612 0-1.125.154-1.54.464-.414.309-.621.683-.621 1.122h-1.726c0-.501.176-.983.529-1.447.359-.47.841-.841 1.447-1.113a4.888 4.888 0 012.013-.409c1.157 0 2.063.291 2.719.872.655.576.995 1.37 1.02 2.385v4.62c0 .921.118 1.654.353 2.199V507h-1.8zm-2.848-1.308c.538 0 1.048-.139 1.53-.418.483-.278.832-.64 1.049-1.085v-2.06h-1.345c-2.103 0-3.155.616-3.155 1.847 0 .538.18.958.538 1.261.359.303.82.455 1.383.455zm8.609-8.73l.056 1.262c.767-.965 1.769-1.448 3.006-1.448 2.121 0 3.191 1.197 3.21 3.591V507h-1.717v-6.643c-.006-.723-.173-1.258-.501-1.605-.321-.346-.825-.519-1.512-.519-.557 0-1.045.148-1.466.445-.42.297-.748.687-.983 1.169V507h-1.716v-10.038h1.623z" fill="#333945"/><path opacity=".4" d="M355.901 550.958h-4.342V563h-1.772v-12.042h-4.332v-1.466h10.446v1.466zm7.041 11.049c-.668.786-1.648 1.179-2.941 1.179-1.07 0-1.886-.31-2.449-.928-.556-.625-.838-1.546-.844-2.765v-6.531h1.716v6.485c0 1.521.619 2.282 1.856 2.282 1.311 0 2.183-.489 2.616-1.466v-7.301h1.716V563h-1.633l-.037-.993zm9.139-7.505a5.188 5.188 0 00-.845-.065c-1.125 0-1.889.479-2.291 1.438V563h-1.716v-10.038h1.669l.028 1.16c.563-.897 1.361-1.346 2.394-1.346.334 0 .587.044.761.13v1.596zm4.388 3.85l-1.076 1.123V563h-1.717v-14.25h1.717v8.619l.918-1.104 3.127-3.303h2.087l-3.906 4.193 4.36 5.845h-2.013l-3.497-4.648zm8.693 4.648h-1.717v-10.038h1.717V563zm-1.856-12.701c0-.278.084-.513.251-.705.173-.191.426-.287.76-.287s.588.096.761.287c.173.192.26.427.26.705a.98.98 0 01-.26.696c-.173.186-.427.278-.761.278s-.587-.092-.76-.278a1 1 0 01-.251-.696zm10.456 10.038c0-.463-.177-.822-.529-1.076-.346-.26-.956-.482-1.828-.668-.866-.185-1.555-.408-2.069-.668-.507-.259-.884-.569-1.131-.927-.242-.359-.362-.786-.362-1.281 0-.822.346-1.518 1.039-2.087.699-.569 1.589-.854 2.672-.854 1.138 0 2.059.294 2.764.882.712.587 1.067 1.339 1.067 2.254h-1.725c0-.47-.201-.875-.603-1.215-.396-.34-.897-.51-1.503-.51-.625 0-1.114.136-1.466.408a1.283 1.283 0 00-.529 1.067c0 .414.164.726.492.937.328.21.918.411 1.772.603.859.191 1.555.42 2.087.686.532.266.925.588 1.178.965.26.371.39.826.39 1.364 0 .897-.359 1.617-1.076 2.161-.718.539-1.648.808-2.793.808-.804 0-1.515-.143-2.133-.427-.619-.285-1.104-.681-1.457-1.188a2.914 2.914 0 01-.519-1.66h1.716c.031.575.26 1.033.686 1.373.433.334 1.002.501 1.707.501.65 0 1.169-.13 1.559-.39.396-.266.594-.618.594-1.058zm5.668-6.16c.761-.934 1.751-1.401 2.969-1.401 2.121 0 3.191 1.197 3.21 3.591V563h-1.716v-6.643c-.007-.723-.174-1.258-.501-1.605-.322-.346-.826-.519-1.513-.519-.556 0-1.045.148-1.465.445a3.026 3.026 0 00-.984 1.169V563h-1.716v-14.25h1.716v5.427z" fill="#333945"/></g></g><path d="M923 224.5l32.5 12.5-8.5 6.5 12 12-5.5 5.5-12-12-5.5 8-13-32.5z" fill="#fff"/><path d="M960.468 254.672l-10.746-10.746 7.667-4.429a1.806 1.806 0 00-.234-3.241l-34.188-13.637a1.806 1.806 0 00-2.346 2.346l13.635 34.191a1.803 1.803 0 001.547 1.132 1.801 1.801 0 001.694-.898l4.428-7.666 10.746 10.747a1.808 1.808 0 002.554 0l5.243-5.245a1.805 1.805 0 000-2.554zm-6.52 3.968l-11.133-11.133a1.802 1.802 0 00-2.84.373l-3.743 6.481-10.7-26.83 26.827 10.701-6.481 3.743a1.806 1.806 0 00-.373 2.841l11.133 11.134-2.69 2.69zm-39.019-44.267a1.808 1.808 0 00-2.554 0 1.805 1.805 0 000 2.554l4.012 4.013a1.804 1.804 0 002.554 0 1.806 1.806 0 000-2.554l-4.012-4.013zm1.359 12.484c0-.997-.808-1.805-1.806-1.805h-5.674a1.806 1.806 0 100 3.611h5.674c.998 0 1.806-.809 1.806-1.806zm-.731 5.574l-4.013 4.013a1.805 1.805 0 102.553 2.554l4.013-4.013a1.805 1.805 0 10-2.553-2.554zm9.301-14.144c.997 0 1.806-.809 1.806-1.806v-5.675a1.806 1.806 0 10-3.611 0v5.675c0 .997.808 1.806 1.805 1.806zm6.849 2.35a1.8 1.8 0 001.277-.528l4.012-4.013a1.805 1.805 0 10-2.553-2.554l-4.013 4.013a1.806 1.806 0 001.277 3.082z" fill="#555A64"/><g clip-path="url(#clip13_5546_42508)"><path d="M33.194 531.403s-.437 20.142 3.424 20.738c.526.089 19.724 1.69 19.724 1.69l24.548 1.927s.328-5.902-6.76-7.748c-7.086-1.847-18.659-7.883-22.222-17.658-3.69-10.361-18.714 1.051-18.714 1.051zm132.126 12.12s2.218 21.587 6.42 21.709c.574.001 21.321-.794 21.321-.794l26.478-1.21s-.416-6.326-8.224-7.376c-7.808-1.051-20.982-5.944-26.059-15.958-5.37-10.515-19.936 3.629-19.936 3.629z" fill="#AF5919"/><path d="M132.971 322.989s-9.811 40.313-39.816 110.889c-30.001 70.533-35.87 101.67-35.87 101.67l-25.624-2.86s6.394-79.281 20.464-114.849c14.071-35.567 13.34-131.301 13.34-131.301l67.506 36.451z" fill="#000"/><path d="M147.707 286.543s31.148 78.915 35.61 139.674c4.463 60.76 7.273 116.231 7.273 116.231s-9.558 2.612-27.027 2.593c0 0-21.864-89.509-23.144-111.444-1.228-21.978-81.237-116.087-72.563-136.883 8.671-20.749 79.851-10.171 79.851-10.171z" fill="#1C1C1C"/><path d="M105.666 135.882s-42.055 33.852-45.218 48.973c-3.162 15.122 15.508 40.786 15.508 40.786l29.71-89.759z" fill="#ED7D2B"/><path d="M112.337 136.788l13.911 10.818 21.581-2.154c-.14-1.728-.957-8.946-1.693-15.442-.062-.386-.077-.769-.14-1.156-.627-5.533-1.176-10.298-1.176-10.298l-19.12-10.359-7.137-3.852c-.008.095.051 6.104.073 6.964.065 15.445-6.299 25.479-6.299 25.479z" fill="#FFB27D"/><path d="M143.265 134.482c-.412-.226-24.968-9.717-27.753-9.05-2.833.663-4.855 5.827-4.855 5.827l40.411 12.707c-.048-.004-2.763-6.86-7.803-9.484z" fill="#761349"/><path d="M61.415 297.019c2.662 19.767 73.518 27.982 93.276 11.901 2.261-1.808 3.111-11.171 3.382-23.823.536-24.687-1.331-62.112.048-81.007.688-9.139.203-18.568-.782-27.182-2.063-18.381-6.315-32.993-6.315-32.993s-33.787-14.046-40.411-12.708c-32.06 6.593-51.864 146.094-49.198 165.812z" fill="#941759"/><path d="M158.069 285.144c.536-24.686 3.111-65.352 4.542-84.291.688-9.138-4.286-15.331-5.224-23.941l-20.548-5.43c-.051.043-27.407 81.331 21.23 113.662z" fill="#761349"/><path d="M123.118 252.842s25.427-18.55 35.38-30.802l6.315 5.068s-21.29 29.484-39.81 36.141c-18.568 6.654-1.885-10.407-1.885-10.407z" fill="#323232"/><path d="M120.09 111.671c3.743 7.707 19.451 15.439 26.047 18.339-.063-.387-.078-.769-.14-1.156-.627-5.534-1.176-10.299-1.176-10.299l-19.12-10.358c-4.411-.474-7.158.292-5.611 3.474z" fill="#FCA56B"/><path d="M151.707 116.954s-31.417 11.937-38.543-7.687c-7.177-19.581-16.038-31.253 3.686-39.665 19.728-8.46 26.385-2.362 30.377 3.555 3.985 6.013 12.448 40.191 4.48 43.797z" fill="#FFB27D"/><path d="M145.849 71.371s-.565 23.35-5.483 22.642c-4.87-.703-9.328-1.18-8.154 5.783 1.127 6.958 8.32 14.627-6.464 16.792-14.785 2.164-38.526-34.705-34.92-42.164 10.471-21.643 70.455-29.56 55.021-3.053z" fill="#353535"/><path d="M84.546 215.894s-3.648.116-4.272 3.494c-.62 3.33-6.428 44.291-4.43 45.558 1.95 1.263 10.587 1.574 11.166.957.532-.622 6.3-45.589 5.248-48.395.004-.048-4.04-2.014-7.712-1.614z" fill="#163560"/><path d="M159.593 269.597s4.673 4.117 5.378 8.18c1.155 6.628-.453 12.542-7.031 14.456-2.405.7-2.263-4.864-3.815-7.427-1.555-2.516-7.619-4.37-5.881-7.89 1.737-3.521 5.101-10.38 5.101-10.38l6.248 3.061z" fill="#FFB27D"/><path d="M151.142 271.017s-4.313 3.967-4.932 6.725c-.667 2.755-1.174 7-1.427 8.837-.253 1.837.567 3.432 2.486.594 1.966-2.834 3.779-6.681 4.92-6.583 1.14.097-1.047-9.573-1.047-9.573z" fill="#FFB27D"/><path d="M135.096 137.642s24.336 6.469 41.05 35.969c16.667 29.496 22.219 47.937 17.891 57.669-4.333 9.779-24.395 39.464-28.272 43.373-3.302 3.338-11.977 2.357-17.468-.592 0 0 15-45.463 11.011-50.856-1.719-2.291-24.427-24.966-29.131-15.314-7.877 15.956 4.919-70.249 4.919-70.249z" fill="#941759"/><path d="M155.378 148.958s-3.427-7.489-12.903-9.731c-9.477-2.242-16.227 8.379-16.227 8.379l6.944 3.311s5.331-8.026 9.512-7.667c5.275.452 9.35 2.612 12.674 5.708z" fill="#323232"/><path d="M136.914 181.781s-9.966-.997-22.772-2.38c-22.478-2.45-53.66-6.123-54.325-7.848-1.017-2.66 3.087-30.996 10.959-32.37.681-.133 1.644-.193 2.84-.186 12.55-.116 50.374 5.365 58.921 8.956 9.339 3.85 4.377 33.828 4.377 33.828z" fill="#323232"/><path d="M114.142 179.401c-22.479-2.45-53.66-6.122-54.326-7.847-1.016-2.661 3.087-30.997 10.96-32.371.68-.132 1.643-.193 2.84-.186 14.677 1.878 30.845 4.788 36.065 6.998 8.69 3.604 5.015 29.737 4.461 33.406z" fill="#585858"/><path d="M136.914 181.781s-76.515-14.228-90.292-10.977c-13.733 3.303-21.5 93.942-17.853 100.544 3.647 6.603 78.989 18.873 90.012 16.481 11.022-2.391 18.133-106.048 18.133-106.048z" fill="#585858"/><path d="M114.28 177.793s-10.63.042-12.273 7.478c-1.59 7.393-16.101 97.978-10.226 100.912 5.828 2.93 31.097 4.094 32.692 2.801 1.595-1.293 15.585-100.881 12.441-107.203 0 0-11.999-4.649-22.634-3.988zm-45.722-28.936s-3.554 12.419-.536 14.631c3.017 2.212 10.67 3.392 12.81 1.336 2.094-2.108 2.764-14.393 2.764-14.393l-15.038-1.574z" fill="#323232"/><path d="M68.558 148.857s.655 5.202 6.634 5.81c6.023.659 8.357-4.24 8.357-4.24s-7.857-4.39-14.991-1.57z" fill="#404040"/><path d="M74.27 152.587c.052-.615.615-1.044 1.233-.991.617.053 1.048.614.995 1.229-.052.615-.616 1.043-1.233.991-.618-.053-1.049-.614-.996-1.229z" fill="#81A332"/><path d="M91.138 152.365s-4.345 12.16-1.486 14.549c2.858 2.39 10.467 4.09 12.693 2.136 2.225-1.953 3.659-14.22 3.659-14.22l-14.866-2.465z" fill="#323232"/><path d="M91.138 152.364s.319 5.222 6.261 6.255c5.943 1.033 8.602-3.742 8.602-3.742s-7.528-4.886-14.863-2.513z" fill="#404040"/><path d="M96.627 156.456a1.12 1.12 0 011.277-.939c.614.101 1.044.662.944 1.273a1.12 1.12 0 01-1.277.939c-.614-.101-1.044-.662-.944-1.273z" fill="#81A332"/><path d="M44.232 181.369s-4.331 11.447-2.742 14.681c1.637 3.238 43.844 8.951 46.767 6.676 2.924-2.275 4.507-15.721 4.507-15.721l-48.532-5.636z" fill="#323232"/><path d="M44.233 181.369s5.173 7.782 19.792 9.225c14.619 1.443 28.74-3.589 28.74-3.589s-33.694-8.987-48.532-5.636z" fill="#404040"/><path d="M63.156 188.995a1.238 1.238 0 001.34-1.124 1.238 1.238 0 00-1.13-1.336 1.238 1.238 0 00-1.34 1.124 1.237 1.237 0 001.13 1.336z" fill="#81A332"/><path d="M78.694 214.916s-34.895-4.467-37.064-3.176c-2.169 1.291-7.047 49.289-5.678 51.742 1.37 2.452 36.672 6.621 36.672 6.621l6.07-55.187z" fill="#404040"/></g><defs><clipPath id="clip0_5546_42508"><rect x="262" y="22" width="689" height="422" rx="4" fill="#fff"/></clipPath><clipPath id="clip1_5546_42508"><rect x="275" y="241" width="664" height="352" rx="4" fill="#fff"/></clipPath><clipPath id="clip2_5546_42508"><path d="M299 277c0-6.627 5.373-12 12-12s12 5.373 12 12-5.373 12-12 12-12-5.373-12-12z" fill="#fff"/></clipPath><clipPath id="clip3_5546_42508"><path fill="#fff" transform="translate(297 265)" d="M0 0h41.25v24H0z"/></clipPath><clipPath id="clip4_5546_42508"><path d="M299 333c0-6.627 5.373-12 12-12s12 5.373 12 12-5.373 12-12 12-12-5.373-12-12z" fill="#fff"/></clipPath><clipPath id="clip5_5546_42508"><path fill="#fff" transform="translate(290 321)" d="M0 0h41.25v24H0z"/></clipPath><clipPath id="clip6_5546_42508"><path d="M299 389c0-6.627 5.373-12 12-12s12 5.373 12 12-5.373 12-12 12-12-5.373-12-12z" fill="#fff"/></clipPath><clipPath id="clip7_5546_42508"><path fill="#fff" transform="translate(299 377)" d="M0 0h41.25v24H0z"/></clipPath><clipPath id="clip8_5546_42508"><path d="M299 445c0-6.627 5.373-12 12-12s12 5.373 12 12-5.373 12-12 12-12-5.373-12-12z" fill="#fff"/></clipPath><clipPath id="clip9_5546_42508"><path d="M299 501c0-6.627 5.373-12 12-12s12 5.373 12 12-5.373 12-12 12-12-5.373-12-12z" fill="#fff"/></clipPath><clipPath id="clip10_5546_42508"><path fill="#fff" transform="translate(290 489)" d="M0 0h41.25v24H0z"/></clipPath><clipPath id="clip11_5546_42508"><path d="M299 557c0-6.627 5.373-12 12-12s12 5.373 12 12-5.373 12-12 12-12-5.373-12-12z" fill="#fff"/></clipPath><clipPath id="clip12_5546_42508"><path fill="#fff" transform="translate(294 545)" d="M0 0h41.25v24H0z"/></clipPath><clipPath id="clip13_5546_42508"><path fill="#fff" transform="rotate(4.897 -526.767 555.515)" d="M0 0h217.519v524.792H0z"/></clipPath><filter id="filter0_dd_5546_42508" x="231" y="0" width="751" height="484" filterUnits="userSpaceOnUse" color-interpolation-filters="sRGB"><feFlood flood-opacity="0" result="BackgroundImageFix"/><feColorMatrix in="SourceAlpha" values="0 0 0 0 0 0 0 0 0 0 0 0 0 0 0 0 0 0 127 0" result="hardAlpha"/><feOffset dy="1.127"/><feGaussianBlur stdDeviation="1.941"/><feColorMatrix values="0 0 0 0 0 0 0 0 0 0 0 0 0 0 0 0 0 0 0.035 0"/><feBlend in2="BackgroundImageFix" result="effect1_dropShadow_5546_42508"/><feColorMatrix in="SourceAlpha" values="0 0 0 0 0 0 0 0 0 0 0 0 0 0 0 0 0 0 127 0" result="hardAlpha"/><feOffset dy="9"/><feGaussianBlur stdDeviation="15.5"/><feColorMatrix values="0 0 0 0 0 0 0 0 0 0 0 0 0 0 0 0 0 0 0.07 0"/><feBlend in2="effect1_dropShadow_5546_42508" result="effect2_dropShadow_5546_42508"/><feBlend in="SourceGraphic" in2="effect2_dropShadow_5546_42508" result="shape"/></filter><filter id="filter1_dd_5546_42508" x="241" y="54" width="726" height="112" filterUnits="userSpaceOnUse" color-interpolation-filters="sRGB"><feFlood flood-opacity="0" result="BackgroundImageFix"/><feColorMatrix in="SourceAlpha" values="0 0 0 0 0 0 0 0 0 0 0 0 0 0 0 0 0 0 127 0" result="hardAlpha"/><feOffset dy="1.127"/><feGaussianBlur stdDeviation="1.941"/><feColorMatrix values="0 0 0 0 0 0 0 0 0 0 0 0 0 0 0 0 0 0 0.035 0"/><feBlend in2="BackgroundImageFix" result="effect1_dropShadow_5546_42508"/><feColorMatrix in="SourceAlpha" values="0 0 0 0 0 0 0 0 0 0 0 0 0 0 0 0 0 0 127 0" result="hardAlpha"/><feOffset dy="9"/><feGaussianBlur stdDeviation="15.5"/><feColorMatrix values="0 0 0 0 0 0 0 0 0 0 0 0 0 0 0 0 0 0 0.07 0"/><feBlend in2="effect1_dropShadow_5546_42508" result="effect2_dropShadow_5546_42508"/><feBlend in="SourceGraphic" in2="effect2_dropShadow_5546_42508" result="shape"/></filter><filter id="filter2_dd_5546_42508" x="241.123" y="163" width="725.692" height="107" filterUnits="userSpaceOnUse" color-interpolation-filters="sRGB"><feFlood flood-opacity="0" result="BackgroundImageFix"/><feColorMatrix in="SourceAlpha" values="0 0 0 0 0 0 0 0 0 0 0 0 0 0 0 0 0 0 127 0" result="hardAlpha"/><feOffset dy="1.127"/><feGaussianBlur stdDeviation="1.941"/><feColorMatrix values="0 0 0 0 0 0 0 0 0 0 0 0 0 0 0 0 0 0 0.035 0"/><feBlend in2="BackgroundImageFix" result="effect1_dropShadow_5546_42508"/><feColorMatrix in="SourceAlpha" values="0 0 0 0 0 0 0 0 0 0 0 0 0 0 0 0 0 0 127 0" result="hardAlpha"/><feOffset dy="9"/><feGaussianBlur stdDeviation="15.5"/><feColorMatrix values="0 0 0 0 0 0 0 0 0 0 0 0 0 0 0 0 0 0 0.07 0"/><feBlend in2="effect1_dropShadow_5546_42508" result="effect2_dropShadow_5546_42508"/><feBlend in="SourceGraphic" in2="effect2_dropShadow_5546_42508" result="shape"/></filter><filter id="filter3_dd_5546_42508" x="244" y="219" width="726" height="414" filterUnits="userSpaceOnUse" color-interpolation-filters="sRGB"><feFlood flood-opacity="0" result="BackgroundImageFix"/><feColorMatrix in="SourceAlpha" values="0 0 0 0 0 0 0 0 0 0 0 0 0 0 0 0 0 0 127 0" result="hardAlpha"/><feOffset dy="1.127"/><feGaussianBlur stdDeviation="1.941"/><feColorMatrix values="0 0 0 0 0 0 0 0 0 0 0 0 0 0 0 0 0 0 0.035 0"/><feBlend in2="BackgroundImageFix" result="effect1_dropShadow_5546_42508"/><feColorMatrix in="SourceAlpha" values="0 0 0 0 0 0 0 0 0 0 0 0 0 0 0 0 0 0 127 0" result="hardAlpha"/><feOffset dy="9"/><feGaussianBlur stdDeviation="15.5"/><feColorMatrix values="0 0 0 0 0 0 0 0 0 0 0 0 0 0 0 0 0 0 0.07 0"/><feBlend in2="effect1_dropShadow_5546_42508" result="effect2_dropShadow_5546_42508"/><feBlend in="SourceGraphic" in2="effect2_dropShadow_5546_42508" result="shape"/></filter><linearGradient id="paint0_linear_5546_42508" x1="1067.99" y1="474.621" x2="688.037" y2="-8.344" gradientUnits="userSpaceOnUse"><stop stop-color="#F2FBDD"/><stop offset="1" stop-color="#F2FBDD" stop-opacity="0"/></linearGradient><linearGradient id="paint1_linear_5546_42508" x1="1052.91" y1="618.542" x2="749.674" y2="172.532" gradientUnits="userSpaceOnUse"><stop stop-color="#F2FBDD"/><stop offset="1" stop-color="#F2FBDD" stop-opacity="0"/></linearGradient></defs></svg>