<svg width="611" height="382" fill="none" xmlns="http://www.w3.org/2000/svg"><path d="M228.056 364.097c-7.131-10.962-20.568-20.096-36.748-25.211-16.317-5.116-52.653-2.741-52.653-2.741l-95.433-.091c1.92 5.572 8.227 19.913 12.752 24.754 4.662 4.841 11.517 8.86 19.744 10.413 10.147 1.919 20.842-.091 31.4-.548 18.511-.822 36.611 3.197 54.436 6.577 17.825 3.38 36.747 6.303 54.71 3.471 5.073-.822 10.42-2.375 13.026-5.481 2.742-3.288 1.097-7.581-1.234-11.143z" fill="#000" fill-opacity=".12"/><path d="M532.093 159.408l-81.323 18.564 12.53 54.767 81.324-18.564-12.531-54.767z" fill="#F5F5F5"/><path d="M532.522 159.943s-.183.366-.549.914c-.458.639-1.098 1.461-1.83 2.466-1.646 2.192-3.933 5.298-6.768 9.134-5.854 7.673-13.812 18.269-22.684 29.961l-.183.274-.274-.091c-.183-.091-.458-.183-.641-.365a25276.398 25276.398 0 00-34.3-16.625c-4.299-2.101-7.866-3.836-10.336-5.115-1.189-.548-2.103-1.096-2.835-1.462-.64-.365-1.006-.548-.915-.548 0 0 .366.091 1.006.366.732.365 1.647.73 2.836 1.278 2.561 1.188 6.128 2.832 10.427 4.933 8.872 4.202 20.946 10.048 34.392 16.442.274.091.457.182.64.365l-.457.092c8.872-11.601 16.921-22.106 22.866-29.87 2.927-3.745 5.306-6.759 6.952-8.952.823-1.004 1.463-1.826 1.921-2.375.457-.548.732-.822.732-.822z" fill="#E0E0E0"/><path d="M463.738 233.292c-.183-.091 4.207-8.951 9.787-19.913 5.579-10.87 10.336-19.639 10.519-19.547.182.091-4.208 8.951-9.787 19.913-5.671 10.87-10.336 19.639-10.519 19.547zm47.197-46.22c.091-.182 7.866 5.938 17.287 13.519 9.421 7.673 16.922 13.976 16.83 14.159-.091.182-7.866-5.938-17.287-13.519-9.421-7.673-17.013-14.067-16.83-14.159z" fill="#E0E0E0"/><path d="M169.8 10.64l-7.448 32.22 47.949 11.059 7.448-32.22-47.949-11.06z" fill="#F5F5F5"/><path d="M217.783 22.014s-.183.09-.549.365c-.366.183-.915.548-1.646.822-1.464.73-3.476 1.827-5.946 3.106-5.122 2.557-12.073 6.12-19.757 10.048l-.183.09-.091-.182c-.091-.091-.183-.182-.274-.365-5.397-6.85-10.336-13.062-13.903-17.63-1.738-2.283-3.202-4.11-4.208-5.389-.457-.64-.823-1.096-1.097-1.461-.275-.366-.366-.548-.366-.548l.457.456c.274.366.732.822 1.189 1.462a240.027 240.027 0 004.299 5.298c3.567 4.567 8.506 10.687 13.994 17.538.092.091.183.274.275.365l-.275-.091c7.684-3.928 14.727-7.399 19.757-9.957 2.47-1.278 4.574-2.283 6.037-2.923.64-.365 1.189-.548 1.647-.822.457-.091.64-.182.64-.182z" fill="#E0E0E0"/><path d="M162.445 43.206c-.092-.092 4.573-3.654 10.335-8.039 5.763-4.293 10.519-7.764 10.611-7.673.091.092-4.574 3.654-10.336 8.039-5.854 4.384-10.61 7.855-10.61 7.673zm36.953-12.332c.091-.091 2.652 5.116 5.671 11.6 3.018 6.486 5.396 11.784 5.305 11.784-.092.092-2.653-5.115-5.671-11.6-3.11-6.486-5.488-11.784-5.305-11.784z" fill="#E0E0E0"/><path d="M473.702 18.632l-35.044 15.04 10.146 23.585 35.043-15.041-10.145-23.584z" fill="#F5F5F5"/><path d="M473.892 18.817s-.092.183-.183.457l-.641 1.278c-.548 1.097-1.372 2.74-2.286 4.659-2.013 3.928-4.665 9.317-7.684 15.346l-.091.091h-.091c-.092 0-.183-.091-.366-.091a3638.805 3638.805 0 00-16.739-4.659c-2.104-.64-3.841-1.096-5.03-1.461-.549-.183-1.007-.274-1.372-.366-.275-.091-.458-.182-.458-.182s.183 0 .458.091c.365.091.823.183 1.372.365 1.28.366 3.018.822 5.122 1.37 4.299 1.188 10.244 2.74 16.83 4.568.091 0 .183.091.365.091l-.182.091a5987.267 5987.267 0 017.774-15.254c1.006-1.918 1.83-3.471 2.378-4.567l.641-1.279c.091-.365.091-.548.183-.548z" fill="#E0E0E0"/><path d="M449.012 57.455c-.091 0 1.19-4.384 2.744-9.773 1.647-5.39 3.019-9.683 3.11-9.683.092 0-1.189 4.384-2.744 9.774-1.646 5.39-3.018 9.682-3.11 9.682zm17.379-24.663c.092-.09 4.025 2.01 8.873 4.659 4.847 2.649 8.78 4.932 8.689 4.932-.092.092-4.025-2.009-8.872-4.658-4.848-2.649-8.781-4.841-8.69-4.933z" fill="#E0E0E0"/><path d="M501.331 257.407a28.98 28.98 0 00-12.349-4.293c-2.012-.183-4.207-.183-5.853 1.096-.366.274-.641.639-.641 1.096.092.274.366.548.549.731 5.031 3.836 12.714 4.384 18.294 1.37zm-.275-.274c-2.835-2.192-5.671-4.385-8.049-7.034-2.378-2.648-4.299-5.754-5.03-9.225-.183-1.096-.275-2.284.365-3.106 6.403 4.933 11.434 11.327 12.714 19.365z" fill="#AFDD44"/><path d="M501.239 257.407c-.457-3.471-.64-7.033.183-10.504.823-3.471 2.653-6.668 5.58-8.678 1.097 2.558.64 5.572-.183 8.221-1.189 4.111-3.11 8.13-5.58 11.692m6.311 10.413c-3.842.457-7.134 2.467-9.97 5.024a18.659 18.659 0 00-5.671 9.774c3.75-.274 6.86-2.832 9.147-5.755 2.287-3.014 3.933-6.211 6.494-9.043zm1.373 1.827c-3.019-7.49-1.921-16.625 2.835-23.11 2.104 7.673 1.281 16.351-2.835 23.11zm8.231 9.865c-3.475-.183-6.951.639-9.969 2.283-3.019 1.736-5.488 4.294-7.043 7.399-.183.457-.366.914-.092 1.37.274.366.732.366 1.098.366 3.384-.183 6.311-2.192 8.781-4.476 2.469-2.375 4.573-5.024 7.225-6.942zm-.274-.548c-1.738-5.663-1.921-11.875-.275-17.63.641-2.283 1.647-4.658 3.751-5.754.183-.092.365-.183.548-.092.183.092.275.275.366.457.732 1.553 1.006 3.289.915 5.024-.092 1.736-.457 3.38-.823 5.115-.641 3.106-1.006 6.486-2.744 9.135-.366.639-.732 1.37-1.098 2.009-.366.731-.366.914-.64 1.462m21.861 3.471c-1.646-6.12.092-13.61 4.025-18.634.274-.366.64-.731 1.097-.731.732.091.915 1.005.824 1.735-.275 6.303-2.379 12.514-5.946 17.63zm2.012 1.37c7.5 1.919 16.098.092 22.318-4.567-3.659-1.827-8.049-2.375-12.074-1.461-4.116.913-7.774 2.74-10.244 6.028zm1.646-4.111c4.208-6.85 12.257-11.326 20.215-11.692-.915 3.289-3.568 5.755-6.586 7.308-3.018 1.553-6.403 2.192-9.696 2.832-1.372.274-3.109.548-3.933 1.552zm-3.201-19.912c1.098-3.928 2.287-7.765 2.561-11.875.275-4.019-.274-8.221-2.378-11.692-3.933 7.581-4.299 16.442-.366 23.932m13.354-6.942c4.573-8.312 13.903-14.98 23.416-15.894-3.659 9.043-13.629 16.077-23.416 15.894z" fill="#AFDD44"/><path d="M549.442 255.215c6.86 1.005 12.623 5.389 19.026 8.038 1.372.548 2.835 1.005 4.298.822 1.464-.183 2.927-1.187 3.202-2.649.274-1.187-.275-2.466-1.098-3.38-.823-.913-2.012-1.461-3.11-1.918-6.951-2.923-14.451-2.923-21.769-1.187m-4.482 5.115c1.555.457 2.104 1.279 3.293 2.284 4.116 3.562 9.146 6.12 14.451 7.399.549.091 1.281.182 1.555-.274.275-.457-.091-1.005-.365-1.371-2.196-2.74-5.397-4.658-8.69-5.937-3.293-1.279-6.22-2.74-10.153-2.375m-4.573-28.682c5.58 5.206 13.354 7.855 20.946 7.125.366 0 .732-.092.915-.366.549-.548-.092-1.461-.732-1.918-6.037-4.75-13.537-6.759-21.129-4.841z" fill="#AFDD44"/><path d="M546.333 229.182c7.317-5.481 17.379-7.125 26.159-4.294-3.292 3.198-7.866 5.024-12.439 5.481-4.573.457-9.238-.091-13.72-1.187zm-2.104-13.245c-.64-6.12-.183-10.961-.64-17.173 0-.457-.183-1.096-.64-1.279-.641-.274-1.19.548-1.372 1.188-1.83 5.663-.824 12.24 2.652 17.081" fill="#AFDD44"/><path d="M543.771 216.576c4.208-2.557 7.318-5.937 10.153-9.865 2.013-2.74 3.75-6.029 3.293-9.408-2.835-.092-5.488 1.461-7.317 3.653-1.83 2.101-2.927 4.842-3.75 7.491-.824 2.74-1.372 5.48-2.379 8.129zm10.062-2.74a81.805 81.805 0 0025.062-14.798c-3.019-1.187-6.403-.456-9.421.731-6.86 2.741-12.44 7.399-15.733 13.976m-7.135 6.211c4.665.548 9.33.822 13.903.091 4.482-.731 8.781-2.557 12.989-4.293.366-.183.732-.365.915-.639.182-.366-.001-.822-.275-1.097-.274-.274-.732-.365-1.097-.548-4.574-1.278-9.513-.639-13.995.823-4.573 1.461-8.324 3.288-12.44 5.663zm-26.433 11.418c-3.202-6.394-2.927-13.793-.183-20.37 1.92 2.923 2.195 6.668 1.829 10.14-.366 3.471-1.372 7.033-1.463 10.504m-12.805-6.668c-7.866-.183-15.733 3.197-21.129 8.951 3.933.64 7.957-.365 11.525-2.1 3.567-1.736 6.768-4.202 9.878-6.669m-8.69-3.014c-3.841-.274-7.591-.822-11.25.366-3.75 1.096-7.043 3.745-8.598 7.307 3.567.365 7.226-.457 10.61-2.009 3.202-1.553 6.22-3.563 9.238-5.664z" fill="#AFDD44"/><path d="M511.667 222.331c-3.476-2.283-7.043-4.567-11.068-5.48-4.024-.914-8.689-.274-11.525 2.831 3.293 1.918 7.226 2.101 11.068 2.101 3.75 0 8.415-.091 11.982 1.188" fill="#AFDD44"/><path d="M511.667 222.514c-5.946-5.846-8.141-16.259-5.763-24.206 4.665 7.033 6.769 15.711 5.763 24.206zm16.28-16.533c1.098-2.558 1.921-5.298 2.927-7.947s2.287-5.207 4.116-7.308c1.921-2.101 4.482-3.654 7.318-3.836-1.738 8.038-7.135 15.163-14.269 19.182m-3.018 3.38c-1.83-2.558-4.025-6.029-6.494-7.856-2.47-1.918-5.763-3.014-8.873-2.284 3.202 5.481 9.056 9.409 15.367 10.14zm.64-3.198c-1.189-3.105-2.47-6.211-2.927-9.499-.457-3.289-.183-6.76 1.464-9.591 3.292 6.12 4.299 12.696 1.646 19.182m2.195-19.182c1.829-6.121 7.409-10.596 13.446-12.606.731-.274 1.555-.457 2.378-.365.823.091 1.555.639 1.738 1.461.183 1.005-.641 2.01-1.464 2.649-4.665 3.928-10.244 7.034-16.098 8.861zm.091-5.024c.275-3.928.458-7.947 1.738-11.601 1.281-3.745 3.75-7.216 7.317-8.86.641 3.927-1.097 7.947-3.292 11.326-2.104 3.38-4.665 6.668-5.946 10.414m0 1.461c-1.555-4.476-1.646-10.048-4.299-13.976-1.829-2.74-4.847-4.567-6.402-7.399-1.098 2.649-.732 5.755.366 8.404 1.097 2.649 2.927 4.933 4.939 7.033 1.921 2.101 3.567 3.654 5.396 5.938z" fill="#AFDD44"/><path d="M528.039 315.593c-.091 0-.183-29.595-.274-66.133 0-36.537.091-66.133.183-66.133.091 0 .182 29.596.274 66.133 0 36.538-.092 66.133-.183 66.133z" fill="#000"/><path d="M553.924 226.898s-.366.183-1.098.457c-.823.274-1.829.639-3.109 1.005-2.562.913-6.129 2.192-9.97 3.745-3.842 1.644-7.409 2.923-9.513 4.75-1.006.913-1.646 1.827-1.921 2.557-.274.731-.366 1.096-.366 1.096v-.274c0-.182.092-.456.183-.822a6.918 6.918 0 011.83-2.649c1.006-.913 2.469-1.827 4.116-2.557 1.646-.731 3.475-1.553 5.396-2.375 3.842-1.553 7.409-2.832 10.062-3.654 1.28-.365 2.378-.731 3.109-.913.824-.366 1.281-.457 1.281-.366z" fill="#000"/><path d="M562.43 206.072s-.091.091-.274.365l-.915.914c-.914.822-2.103 1.918-3.567 3.197-3.11 2.74-7.226 6.394-11.799 10.504-4.573 4.111-8.598 8.038-11.342 10.961-1.372 1.462-2.47 2.741-3.201 3.563a6.655 6.655 0 00-.824 1.005c-.182.182-.274.365-.365.365 0 0 .091-.183.274-.365.183-.274.457-.548.823-1.005.732-.914 1.738-2.101 3.11-3.654 2.744-3.014 6.677-6.942 11.342-11.053 4.665-4.11 8.872-7.764 11.891-10.413 1.463-1.279 2.744-2.375 3.658-3.105a6.69 6.69 0 011.006-.823c0-.365.183-.456.183-.456zm-21.586 19.091c-.091-.092.823-2.284 1.83-5.116 1.006-2.831 1.463-5.206 1.554-5.206.092 0-.182 2.466-1.097 5.298a23.436 23.436 0 01-1.464 3.562c-.548 1.005-.823 1.462-.823 1.462zm-12.804 17.903s-.275-.274-.732-.822c-.457-.64-1.098-1.37-1.829-2.375-1.555-2.01-3.659-4.659-6.037-7.673-2.379-3.014-4.574-5.663-6.129-7.581-.731-.914-1.372-1.736-1.829-2.284-.457-.548-.64-.822-.64-.914l.731.731c.458.548 1.19 1.279 2.013 2.192 1.646 1.919 3.841 4.568 6.22 7.491 2.378 3.014 4.481 5.754 5.945 7.764.732 1.005 1.28 1.827 1.738 2.375.366.822.549 1.096.549 1.096z" fill="#000"/><path d="M522.368 235.85c-.091.091-1.555-1.735-2.378-4.476-.549-1.918-.64-3.653-.549-4.476h.183a2.903 2.903 0 01-.183.549v-.549h.183c.091.823.183 2.467.732 4.385.823 2.558 2.103 4.476 2.012 4.567zm-7.317-9.226c-.092.092-.549-.548-1.647-1.004-1.097-.457-2.744-.548-4.573-.366-1.83.092-3.476.457-4.665.731-1.189.274-1.921.548-1.921.457 0-.092.64-.366 1.829-.731a24.754 24.754 0 014.665-.913c1.83-.183 3.567 0 4.757.548 1.189.548 1.555 1.278 1.555 1.278zm-1.738-2.284c0 .092-1.006-.365-2.561-.913s-3.842-1.096-6.311-1.279c-2.561-.183-4.848 0-6.495.366-1.646.274-2.652.639-2.652.548 0 0 .274-.092.64-.274.458-.183 1.098-.366 1.921-.549 1.646-.365 4.025-.639 6.586-.456 2.561.182 4.847.822 6.402 1.461.824.274 1.372.64 1.83.822.366.092.64.274.64.274zm14.634-9.408c-.092 0-.915-2.831-1.829-6.485-.915-3.563-1.555-6.486-1.464-6.577.092 0 .915 2.832 1.83 6.486 1.006 3.562 1.646 6.576 1.463 6.576z" fill="#000"/><path d="M528.131 214.932c-.092 0-.64-1.918-2.012-3.837-1.372-2.009-3.11-3.014-3.019-3.105 0 0 .457.091 1.189.639.64.457 1.464 1.279 2.195 2.284 1.372 1.918 1.738 4.019 1.647 4.019zm-.092 84.859c-.092 0-.092-.731-.458-2.01-.365-1.279-.914-3.014-2.012-5.115-2.012-4.202-5.762-9.5-10.519-14.798-2.378-2.649-4.664-5.206-6.585-7.581-1.921-2.375-3.567-4.75-4.665-6.76a29.041 29.041 0 01-2.378-5.024c-.183-.639-.366-1.096-.458-1.461-.091-.366-.091-.548-.091-.548s.274.639.732 1.918c.457 1.187 1.28 2.923 2.469 4.932 1.189 2.01 2.836 4.294 4.757 6.669 1.92 2.374 4.207 4.932 6.585 7.581 4.757 5.298 8.507 10.687 10.427 14.98 1.007 2.101 1.555 3.928 1.83 5.207.183.639.274 1.096.274 1.462.092.365.092.548.092.548zm23.416-26.399s-.457.274-1.189.731a23.185 23.185 0 00-3.201 2.101 38.25 38.25 0 00-4.208 3.836 68.297 68.297 0 00-4.482 5.298c-3.11 3.837-5.945 7.308-7.683 10.048-.915 1.37-1.555 2.466-1.921 3.288-.457.822-.64 1.279-.64 1.279s0-.091.091-.365c.092-.183.183-.548.458-1.005.366-.822 1.006-2.01 1.829-3.38 1.646-2.831 4.573-6.302 7.592-10.139 1.555-1.918 3.11-3.745 4.573-5.298 1.464-1.553 2.927-2.832 4.299-3.745a15.854 15.854 0 013.293-2.009l.915-.457c.091-.183.274-.183.274-.183z" fill="#000"/><path d="M551.912 281.978c0 .092-1.006.183-2.561.366s-3.842.457-6.129 1.187c-2.286.731-4.207 1.919-5.488 2.923-1.28 1.005-1.829 1.827-1.921 1.736 0 0 .092-.274.366-.64.275-.365.732-.822 1.372-1.37 1.281-1.096 3.202-2.283 5.58-3.014 2.378-.731 4.665-1.005 6.22-1.096 1.555-.183 2.561-.183 2.561-.092z" fill="#000"/><path d="M536.454 287.185c-.092-.091 1.006-1.827 1.92-4.293.824-2.375 1.007-4.567 1.189-4.476.092 0 .092.548 0 1.37-.091.823-.274 2.01-.731 3.289a15.487 15.487 0 01-1.464 3.014c-.549.731-.823 1.188-.914 1.096zm22.593-36.811s-.183.091-.458.182c-.366.183-.731.366-1.189.548-.549.274-1.189.548-1.92.914-.732.365-1.555.73-2.47 1.279l-1.372.822c-.457.274-1.006.639-1.464.913a50.63 50.63 0 00-3.201 2.192c-2.195 1.645-4.482 3.654-6.677 5.846-2.195 2.284-4.025 4.659-5.671 6.851-.732 1.096-1.463 2.192-2.104 3.289-.274.548-.64 1.004-.914 1.552a10.844 10.844 0 00-.732 1.462c-.549.913-.823 1.735-1.189 2.558-.366.73-.64 1.37-.823 1.918-.183.456-.366.913-.549 1.279-.092.274-.183.456-.183.456s0-.182.091-.456c.092-.366.275-.731.458-1.279.183-.548.457-1.188.731-2.01.366-.731.641-1.644 1.189-2.557.275-.457.458-.914.732-1.462.275-.548.549-1.005.915-1.553.549-1.096 1.28-2.192 2.104-3.288 1.555-2.284 3.475-4.659 5.671-6.942 2.195-2.284 4.573-4.202 6.768-5.938a34.258 34.258 0 013.293-2.192c.549-.274 1.006-.639 1.555-.913.457-.274 1.006-.548 1.463-.822.915-.549 1.738-.914 2.561-1.279.732-.366 1.372-.64 1.921-.822.549-.183.915-.366 1.281-.457 0-.091.183-.091.183-.091z" fill="#000"/><path d="M540.479 262.797s.182-.731 1.006-1.553c.823-.822 2.378-1.553 4.116-1.553 1.738-.092 3.292.456 4.299.822 1.006.365 1.646.731 1.646.822 0 .091-.64-.183-1.738-.548-1.097-.365-2.561-.731-4.207-.731-1.647.091-3.11.731-3.933 1.37-.824.731-1.098 1.371-1.189 1.371zm-2.745 2.831c-.091-.091.915-1.553 1.189-3.745.275-2.192-.365-3.928-.274-3.928.091 0 .274.365.457 1.096.183.731.366 1.736.183 2.923-.091 1.096-.549 2.101-.823 2.74-.366.64-.732.914-.732.914z" fill="#000"/><path d="M507.551 303.993c.64 11.326 4.024 22.836 9.329 34.436h22.867c5.031-11.509 8.232-23.018 8.781-34.436h-40.977z" fill="#3C3C3C"/><path d="M544.777 322.353c0 .091-7.5.182-16.83.182-9.238 0-16.83-.091-16.83-.182 0-.092 7.5-.183 16.83-.183 9.238 0 16.83.091 16.83.183zm-.549 4.11c0 .091-7.043.183-15.732.183s-15.732-.092-15.732-.183 7.043-.183 15.732-.183c8.689-.091 15.732.092 15.732.183z" fill="#FAFAFA"/><path d="M461.725 332.766H136.651c-7.317 0-13.354-5.937-13.354-13.336V113.815c0-7.308 5.945-13.336 13.354-13.336h325.074c7.317 0 13.354 5.937 13.354 13.336V319.43c0 7.307-5.945 13.336-13.354 13.336z" fill="#3C3C3C"/><path d="M474.348 338.064h-348.49c-8.963 0-16.281-7.307-16.281-16.259v-4.111h381.052v4.111c0 8.952-7.226 16.259-16.281 16.259z" fill="#3C3C3C"/><path d="M464.652 109.704H132.81v196.115h331.842V109.704zm-200.13 205.889l4.757 7.49h66.496l4.391-7.49h-75.644z" fill="#000"/><path d="M455.505 305.18H142.597c-1.647 0-3.019-1.37-3.019-3.014V119.295c0-1.644 1.372-3.014 3.019-3.014h312.908c1.647 0 3.019 1.37 3.019 3.014v182.871c0 1.735-1.372 3.014-3.019 3.014z" fill="#EBEBEB"/><path d="M458.158 305.454H139.304l.366-175.015h318.488v175.015z" fill="#FAFAFA"/><path d="M165.829 123.588a2.554 2.554 0 01-2.561 2.558 2.555 2.555 0 01-2.561-2.558c0-1.461 1.098-2.557 2.561-2.557 1.372.091 2.561 1.187 2.561 2.557zm-15.458 0a2.554 2.554 0 01-2.561 2.558 2.555 2.555 0 01-2.561-2.558c0-1.461 1.098-2.557 2.561-2.557 1.372.091 2.561 1.187 2.561 2.557zm7.409 0a2.554 2.554 0 01-2.561 2.558 2.555 2.555 0 01-2.561-2.558c0-1.461 1.098-2.557 2.561-2.557 1.372.091 2.561 1.187 2.561 2.557zm314.281 192.006c0 .091-78.021.182-174.336.182-96.315 0-174.336-.091-174.336-.182 0-.092 78.021-.183 174.336-.183 96.223-.092 174.336 0 174.336.183z" fill="#000"/><path d="M241.747 198.855l129.7-1.278 3.842 88.146-134.365-1.004.823-85.864z" fill="#95165B"/><path d="M241.747 198.856l61.283-49.783c2.561-2.101 6.311-2.101 8.872 0l59.545 48.504" fill="#95165B"/><path opacity=".3" d="M241.747 198.856l61.283-49.783c2.561-2.101 6.311-2.101 8.872 0l59.545 48.504" fill="#000"/><path d="M240.924 284.719c-.183-.183 10.245-11.509 23.141-25.302 12.989-13.885 23.599-24.937 23.69-24.755.183.183-10.152 11.51-23.141 25.303-12.897 13.793-23.507 24.937-23.69 24.754zm134.365 1.005c-.183.182-10.335-10.962-22.683-24.754-12.348-13.793-22.227-25.12-22.044-25.303.183-.182 10.336 10.962 22.684 24.754 12.348 13.793 22.226 25.12 22.043 25.303z" fill="#000"/><path opacity=".5" d="M371.447 197.577l-65.033 52.157-64.667-50.879" fill="#000"/><path d="M248.242 203.606l-.274-40.465 113.602-1.553 1.372 42.566-56.527 44.85-58.173-45.398z" fill="#FAFAFA"/><path d="M248.242 203.606l1.097.822c.732.548 1.738 1.37 3.11 2.375 2.744 2.101 6.677 5.206 11.8 9.134 10.152 7.856 24.696 19.182 42.349 32.975h-.275a40933.362 40933.362 0 0156.527-44.941l-.091.183c-.275-8.13-.549-16.625-.824-25.303-.183-5.846-.365-11.6-.548-17.264l.274.275c-45.734.639-86.162 1.096-113.602 1.461l.183-.183c.091 12.697.091 22.836.091 29.778v9.957c0 .548-.091.731-.091.731v-2.649c0-1.827-.092-4.476-.092-7.947-.091-6.942-.183-17.082-.274-29.778v-.183h.183c27.44-.365 67.777-1.005 113.602-1.644h.274v.274c.183 5.663.366 11.418.549 17.264.275 8.677.549 17.172.823 25.302v.091l-.091.092c-20.946 16.624-40.246 31.97-56.527 44.85l-.091.091-.092-.091c-17.653-13.793-32.105-25.211-42.257-33.158a1395.261 1395.261 0 01-11.708-9.226c-1.372-1.096-2.378-1.827-3.019-2.375-.914-.639-1.28-.913-1.28-.913z" fill="#000"/><path d="M343.642 181.957c0 .091-17.379.365-38.782.548-21.403.183-38.782.183-38.782.091 0-.091 17.379-.365 38.782-.548 21.403-.182 38.782-.182 38.782-.091zm.091 11.509c0 .092-17.379.366-38.782.548-21.403.183-38.782.183-38.782.092 0-.092 17.379-.366 38.782-.548 21.403-.183 38.782-.274 38.782-.092zm0 13.154c0 .091-17.379.365-38.782.548-21.403.183-38.782.183-38.782.091 0-.091 17.379-.365 38.782-.548 21.403-.182 38.782-.274 38.782-.091zm0 13.153c0 .092-16.556.366-37.044.548-20.489.183-37.044.183-37.044.092 0-.092 16.555-.366 37.044-.548 20.488-.183 37.044-.183 37.044-.092zm-14.452 11.601s-.183 0-.457.091c-.366 0-.823 0-1.28.092-1.19 0-2.836.091-4.757.091-4.116.091-9.695.183-15.824.274-6.219.091-11.799.183-15.823.183h-6.494s.182 0 .457-.092c.366 0 .823 0 1.28-.091 1.189 0 2.836-.091 4.757-.091 4.116-.092 9.695-.183 15.823-.274 6.22-.092 11.8-.183 15.824-.183h6.494zm-14.634 11.144c0 .091-3.659.274-8.232.274-4.574 0-8.232-.091-8.232-.183 0-.091 3.658-.274 8.232-.274 4.573-.091 8.232 0 8.232.183zM611 337.241c0 .092-136.743.274-305.5.274S0 337.424 0 337.241c0-.091 136.743-.274 305.5-.274 168.665.092 305.5.183 305.5.274zM329.921 161.222c.092 0 .183.548.092 1.187-.092.64-.183 1.096-.366 1.096-.092 0-.183-.548-.092-1.187.092-.64.275-1.096.366-1.096zm1.28-8.86c.092 0 .092 1.005-.091 2.283-.183 1.188-.457 2.193-.549 2.193-.091 0-.091-1.005.092-2.284.091-1.279.365-2.284.548-2.192zm1.739-8.861c.091 0 0 1.005-.275 2.284-.274 1.187-.548 2.192-.731 2.1-.092 0 0-1.004.274-2.283.275-1.096.64-2.101.732-2.101zm2.469-8.586c.091 0-.091 1.005-.457 2.192-.366 1.188-.732 2.101-.915 2.101-.091 0 .091-1.005.457-2.192.366-1.188.824-2.192.915-2.101zm3.11-8.404c.092.092-.183 1.005-.64 2.192-.458 1.188-.915 2.01-1.098 2.01-.091 0 .183-1.005.64-2.192.549-1.188 1.007-2.101 1.098-2.01zm3.934-8.13c.091.092-.275 1.005-.823 2.101-.549 1.096-1.098 1.918-1.281 1.918-.091-.091.274-1.004.823-2.1.64-1.097 1.189-2.01 1.281-1.919zm4.664-7.673c.091.092-.366 1.005-1.098 2.01-.64 1.005-1.28 1.827-1.372 1.736-.091-.092.366-1.005 1.007-2.01.731-1.005 1.372-1.736 1.463-1.736zm5.58-7.033c.091.092-.458.914-1.281 1.918-.823.914-1.555 1.645-1.646 1.553-.092-.091.457-.913 1.28-1.918.823-.913 1.555-1.644 1.647-1.553zm6.311-6.394c.091.091-.549.822-1.464 1.736-.915.822-1.738 1.461-1.829 1.37-.092-.091.549-.822 1.463-1.736.915-.822 1.738-1.461 1.83-1.37zm7.134-5.481c.092.092-.64.823-1.646 1.553-1.006.731-1.829 1.28-1.921 1.097-.091-.092.64-.823 1.647-1.553.914-.731 1.829-1.188 1.92-1.096zm7.684-4.567c.091.092-.732.731-1.83 1.279-1.097.548-2.012 1.005-2.103.822-.092-.091.731-.73 1.829-1.279 1.098-.548 2.104-.913 2.104-.822zm8.323-3.38c0 .092-.914.549-2.012 1.005-1.189.457-2.104.64-2.195.548-.092-.091.823-.548 2.012-1.005 1.189-.456 2.195-.639 2.195-.548zm8.781-2.009c0 .091-.915.365-2.195.64-1.189.273-2.195.365-2.287.273 0-.09.915-.456 2.195-.73 1.281-.274 2.287-.366 2.287-.183zm8.964-.548c0 .091-1.006.274-2.287.274s-2.287-.091-2.287-.183c0-.091 1.006-.274 2.287-.274s2.287.092 2.287.183zm8.963 1.096c0 .092-1.006.092-2.287-.091-1.189-.183-2.195-.457-2.195-.548 0-.091 1.006-.091 2.287.091 1.189.092 2.195.366 2.195.548zm8.598 2.558c-.091.091-1.006-.092-2.195-.548-1.189-.366-2.104-.823-2.012-1.005 0-.092 1.006.091 2.195.548 1.097.457 2.012.913 2.012 1.005zm7.958 4.019c-.092.091-1.006-.274-2.104-.914-1.098-.639-1.921-1.187-1.829-1.278.091-.092 1.006.274 2.103.913 1.098.64 1.921 1.188 1.83 1.279zm7.043 5.571c-.092.092-.915-.456-1.83-1.278-.915-.822-1.646-1.553-1.555-1.644.092-.091.915.457 1.83 1.279 1.006.822 1.646 1.552 1.555 1.644zm4.482 5.116c-.091.091-.549-.274-.914-.73-.366-.458-.641-1.006-.549-1.006.091-.091.457.274.914.731.366.457.641.913.549 1.005zm42.258 55.081c-.092.091-1.006-.183-2.195-.731-1.189-.548-2.013-1.096-2.013-1.187.092-.092 1.006.182 2.196.73 1.189.548 2.103 1.005 2.012 1.188zm8.69 3.014c0 .091-1.007-.091-2.287-.457-1.189-.365-2.195-.731-2.104-.913 0-.092 1.098.091 2.287.456 1.189.366 2.104.731 2.104.914zm8.963 1.37c0 .091-1.006.091-2.287 0-1.28-.183-2.287-.365-2.287-.457 0-.091 1.007-.091 2.287 0 1.281.183 2.287.366 2.287.457zm9.146-.274c0 .091-1.006.274-2.286.365-1.281.092-2.287.092-2.287-.091 0-.091 1.006-.274 2.287-.365 1.28-.092 2.286 0 2.286.091zm8.965-1.644c0 .091-.915.457-2.196.731-1.28.274-2.286.365-2.286.183 0-.092 1.006-.457 2.195-.731 1.28-.183 2.287-.366 2.287-.183zm8.506-3.38c.091.092-.823.64-2.013 1.188-1.189.548-2.103.822-2.195.731-.091-.092.823-.64 2.013-1.188 1.189-.548 2.103-.822 2.195-.731zm7.591-5.115c.092.091-.64.822-1.646 1.644-1.006.731-1.921 1.279-2.012 1.096-.092-.091.731-.73 1.737-1.553 1.007-.639 1.83-1.278 1.921-1.187zm6.221-6.668c.091.091-.366 1.004-1.19 1.918-.823 1.005-1.555 1.644-1.737 1.553-.092-.092.548-.914 1.28-1.827.823-.914 1.555-1.736 1.647-1.644zm4.299-8.039c.091 0-.092 1.097-.64 2.193-.549 1.187-1.098 2.009-1.19 1.918-.091-.091.275-1.005.824-2.192.457-1.005.823-1.919 1.006-1.919zm1.646-8.951c.091 0 .274 1.005.091 2.283-.091 1.279-.457 2.284-.549 2.193-.091 0 0-1.005.092-2.284.183-1.096.274-2.192.366-2.192zm-1.281-8.952c.091 0 .549.914.823 2.192.275 1.279.275 2.284.183 2.284-.091 0-.366-1.005-.64-2.192-.274-1.279-.549-2.284-.366-2.284zm-4.024-8.221c.092-.091.824.731 1.464 1.827s1.006 2.101.823 2.101c-.091.091-.64-.822-1.281-1.918-.548-1.005-1.097-1.919-1.006-2.01zm-6.311-6.485c.091-.092 1.006.365 1.92 1.279 1.006.822 1.555 1.644 1.464 1.735-.092.092-.915-.548-1.829-1.37-.824-.913-1.647-1.553-1.555-1.644zm-8.324-3.745c0-.092 1.098 0 2.287.365 1.189.365 2.104.913 2.012 1.096-.091.092-1.006-.183-2.195-.64-1.098-.365-2.104-.639-2.104-.821zm-9.055.183c0-.092.914-.457 2.195-.64 1.28-.183 2.286-.091 2.286.091 0 .092-1.006.274-2.286.366-1.098.182-2.104.274-2.195.182zm-7.867 4.384c-.091-.091.549-.913 1.555-1.735 1.006-.823 2.013-1.188 2.104-1.005.091.091-.823.639-1.738 1.461-1.098.731-1.829 1.371-1.921 1.279zm-3.658 8.221c-.092 0-.183-1.096.091-2.284.275-1.279.823-2.192.915-2.101.091.092-.183 1.005-.457 2.192-.183 1.188-.366 2.193-.549 2.193zm1.829 8.86c-.091.091-.731-.822-1.097-2.009-.458-1.188-.549-2.284-.366-2.284.091 0 .457.913.823 2.101.366 1.187.732 2.101.64 2.192zm5.946 6.76c-.091.091-1.006-.366-1.921-1.279-1.006-.822-1.555-1.736-1.463-1.827.091-.091.823.64 1.738 1.462 1.006.913 1.738 1.552 1.646 1.644zm8.323 3.745c0 .091-1.097 0-2.286-.457-1.189-.365-2.104-.913-2.013-1.096.092-.091 1.007.183 2.196.639 1.189.457 2.103.823 2.103.914zm9.056.822c0 .091-1.007.274-2.287.274-1.281 0-2.287-.274-2.287-.366 0-.091 1.006-.091 2.287-.091 1.28 0 2.287.091 2.287.183zm8.963-1.644c0 .091-.915.548-2.104.822-1.189.274-2.286.365-2.286.274 0-.091.914-.457 2.195-.731 1.189-.274 2.195-.456 2.195-.365z" fill="#000"/><path d="M545.144 125.233c.092.091-.823.639-1.921 1.279-1.097.548-2.103 1.004-2.103.822-.092-.092.823-.731 1.92-1.279 1.098-.548 2.013-1.005 2.104-.822zm7.317-5.481c.091.091-.641.822-1.647 1.644s-1.829 1.37-1.921 1.279c-.091-.091.641-.822 1.647-1.644s1.829-1.37 1.921-1.279zm6.22-6.668c.092.091-.457.913-1.28 1.918-.824 1.005-1.555 1.644-1.647 1.553-.091-.091.457-.913 1.281-1.918.823-.914 1.555-1.644 1.646-1.553zm5.03-7.581c.092.091-.274 1.004-1.006 2.1-.64 1.097-1.281 1.919-1.372 1.827-.092-.091.366-1.004 1.006-2.101.64-1.096 1.281-1.918 1.372-1.826zm3.75-8.404c.092 0-.182 1.004-.64 2.192-.457 1.187-.914 2.101-1.097 2.009-.092-.091.183-1.004.64-2.192.457-1.096.915-2.01 1.097-2.01zm2.562-8.769c.091 0 0 1.004-.366 2.283-.274 1.188-.64 2.192-.823 2.192-.092 0 0-1.096.366-2.283.274-1.279.64-2.192.823-2.192zm1.554-8.952c.092 0 .092 1.005-.091 2.284-.183 1.278-.458 2.283-.549 2.192-.091 0-.091-1.005.091-2.284.183-1.187.458-2.192.549-2.192zm.824-9.134c.091 0 .183 1.004.091 2.283-.091 1.28-.274 2.284-.366 2.284-.091 0-.182-1.005-.091-2.284s.274-2.283.366-2.283zm.366-9.134c.091 0 .182 1.004.182 2.283s-.183 2.284-.274 2.284c-.091 0-.183-1.005-.183-2.284 0-1.188.092-2.284.275-2.284zm-.092-9.135c.091 0 .274 1.004.274 2.283s-.091 2.284-.183 2.284c-.091 0-.274-1.005-.274-2.284-.092-1.187 0-2.283.183-2.283zm-.183-5.572c.092 0 .275.274.275.548s-.092.548-.183.548c-.092 0-.274-.274-.274-.548s.091-.548.182-.548z" fill="#000"/><path d="M592.656 19.287l-62.201 6.749 4.553 41.865 62.201-6.749-4.553-41.865z" fill="#95165B"/><path d="M534.9 67.868l-4.574-41.926 62.198-6.76 4.573 41.836-62.197 6.85zm-4.482-41.835l4.573 41.835 62.106-6.759-4.573-41.836-62.106 6.76z" fill="#000"/><path d="M592.798 19.822s-.183.182-.549.639c-.366.457-.915 1.005-1.555 1.736-1.463 1.461-3.384 3.653-5.854 6.21-5.03 5.207-11.891 12.424-19.482 20.37l-.183.183-.183-.091c-.183-.091-.275-.183-.457-.274-9.33-6.211-17.837-11.6-23.965-15.62a265.39 265.39 0 01-7.226-4.75c-.823-.548-1.463-1.005-1.921-1.279-.457-.274-.64-.456-.64-.456s.275.091.732.365c.549.274 1.189.73 2.012 1.188 1.83 1.096 4.299 2.649 7.318 4.567 6.219 3.928 14.726 9.317 24.147 15.254.183.092.366.183.457.274h-.366c7.684-7.855 14.544-14.98 19.574-20.187a439.456 439.456 0 015.946-6.029l1.646-1.644c.366-.365.549-.548.549-.456z" fill="#000"/><path d="M535.174 68.325c-.091-.091 3.933-6.303 9.056-13.976 5.122-7.581 9.421-13.701 9.512-13.61.092.092-3.933 6.303-9.055 13.976-5.122 7.673-9.33 13.701-9.513 13.61zm39.239-30.326c.091-.092 5.397 5.115 11.708 11.6 6.311 6.486 11.433 11.875 11.25 11.967-.183.09-5.305-5.116-11.708-11.601-6.311-6.486-11.433-11.784-11.25-11.966zM308.702 146.15c.091 0 .366.457.457 1.097.091.639.091 1.187 0 1.187s-.366-.457-.457-1.096c-.183-.64-.183-1.096 0-1.188zm-1.464-8.86c.092 0 .366 1.005.641 2.192.183 1.188.274 2.284.091 2.284-.091 0-.366-1.005-.64-2.192-.183-1.279-.275-2.284-.092-2.284zm-1.371-8.952c.091 0 .366 1.005.549 2.193.182 1.278.182 2.283.091 2.283s-.366-1.005-.549-2.192c-.183-1.279-.183-2.284-.091-2.284zm-1.006-8.951c.091 0 .365 1.005.457 2.192.091 1.279.091 2.284 0 2.284-.092 0-.366-1.005-.457-2.193-.092-1.278-.092-2.283 0-2.283zm-.641-9.043c.092 0 .275 1.005.366 2.283.091 1.279 0 2.284-.091 2.284-.092 0-.275-1.005-.366-2.284-.092-1.278 0-2.283.091-2.283zm-.092-9.043c.092 0 .275 1.005.183 2.283 0 1.279-.091 2.284-.274 2.284-.092 0-.274-1.005-.183-2.284 0-1.278.183-2.283.274-2.283zm.549-8.952c.091 0 .183 1.005.091 2.284-.091 1.278-.274 2.192-.457 2.192-.091 0-.183-1.005-.091-2.284.182-1.278.365-2.283.457-2.192zm1.372-8.952c.091 0 .091 1.005-.183 2.284-.183 1.187-.457 2.192-.64 2.192-.092 0-.092-1.005.183-2.284.274-1.279.548-2.192.64-2.192zm2.287-8.769c.091 0-.092 1.005-.458 2.192-.365 1.188-.731 2.101-.914 2.101-.092 0 .091-1.005.457-2.192.457-1.188.823-2.101.915-2.101zm3.384-8.312c.091.091-.183 1.005-.732 2.192-.457 1.096-1.006 2.01-1.098 2.01-.091-.092.183-1.005.732-2.193.457-1.187 1.006-2.1 1.098-2.01zm4.482-7.946c.091.09-.366 1.004-1.007 2.1-.64 1.096-1.28 1.918-1.372 1.827-.091-.091.275-1.005 1.007-2.101.64-1.005 1.189-1.827 1.372-1.827zm5.396-7.217c.092.091-.457.913-1.189 1.918-.823 1.005-1.463 1.644-1.646 1.644-.092-.091.457-.913 1.189-1.918.823-1.005 1.555-1.736 1.646-1.644zm6.404-6.303c.091.092-.549.822-1.464 1.736-.914.822-1.738 1.461-1.829 1.37-.092-.091.549-.822 1.463-1.736.915-.913 1.738-1.461 1.83-1.37zm7.408-5.206c.092.09-.731.73-1.737 1.37-1.007.639-1.921 1.096-2.013 1.004-.091-.09.732-.73 1.738-1.37 1.006-.64 1.921-1.096 2.012-1.005zm8.232-3.654c0 .091-.823.548-2.012 1.005-1.189.457-2.104.73-2.195.64-.091-.092.823-.549 2.012-1.006 1.189-.548 2.104-.822 2.195-.639zm6.586-1.644c0 .09-.457.365-1.097.456-.641.092-1.098.092-1.19 0 0-.091.458-.365 1.098-.456.64-.183 1.189-.183 1.189 0z" fill="#000"/><path d="M301.563.023l-16.527 42.684 63.385 24.485 16.526-42.685L301.563.023z" fill="#95165B"/><path d="M348.49 67.23l-63.478-24.481L301.567 0l63.478 24.48-16.555 42.75zm-63.387-24.481l63.387 24.48 16.464-42.657L301.567.091l-16.464 42.657z" fill="#000"/><path d="M365.046 25.12s-.274.091-.823.365c-.641.183-1.372.548-2.378.822-2.104.731-5.123 1.827-8.781 3.106a6411.177 6411.177 0 00-28.995 9.956l-.275.092-.091-.183-.275-.548c-6.036-10.413-11.524-19.913-15.549-26.855-1.921-3.38-3.567-6.211-4.665-8.13-.549-.913-.915-1.644-1.28-2.192-.275-.548-.458-.822-.366-.822 0 0 .183.274.457.73.366.549.823 1.28 1.372 2.193 1.189 1.827 2.836 4.567 4.848 7.947 4.024 6.85 9.604 16.35 15.732 26.764l.275.548-.366-.092c11.342-3.836 21.586-7.216 28.995-9.773a487.264 487.264 0 008.781-2.923c1.006-.274 1.829-.549 2.378-.731a33.33 33.33 0 011.006-.274z" fill="#000"/><path d="M285.103 43.297c-.091-.183 6.952-4.202 15.733-8.952 8.781-4.841 15.915-8.586 16.007-8.403.091.182-6.952 4.201-15.733 8.951-8.781 4.841-16.007 8.587-16.007 8.404zm52.959-9.774c.183-.091 2.653 7.582 5.488 17.082 2.836 9.5 5.031 17.172 4.94 17.264-.183.09-2.653-7.582-5.488-17.082-2.927-9.5-5.123-17.172-4.94-17.264zm-56.069 122.675c.091 0 .183.548.183 1.187-.092.64-.183 1.096-.366 1.096-.092 0-.183-.548-.183-1.187.091-.64.274-1.096.366-1.096zm.275-9.317c.091 0 .274 1.005.274 2.283 0 1.279-.092 2.284-.274 2.284-.092 0-.275-1.005-.275-2.284 0-1.187.092-2.283.275-2.283zm-.641-9.226c.092 0 .366 1.005.458 2.284.091 1.279.091 2.283 0 2.375-.092 0-.366-1.005-.458-2.284-.182-1.37-.182-2.375 0-2.375zm-1.555-9.226c.091 0 .457 1.005.64 2.192.275 1.279.366 2.284.183 2.284-.091 0-.457-1.005-.64-2.192-.183-1.188-.274-2.192-.183-2.284zm-2.561-8.951c.091 0 .548.913.914 2.192.366 1.187.641 2.283.458 2.283-.092 0-.549-.913-.915-2.192-.366-1.187-.549-2.192-.457-2.283zm-3.567-8.586c.091-.092.64.822 1.189 2.009.549 1.188.823 2.192.732 2.192-.092.092-.641-.822-1.189-2.009-.458-1.096-.824-2.101-.732-2.192zm-4.573-8.039c.091-.091.732.731 1.463 1.827.641 1.096 1.098 2.101 1.007 2.101-.092.091-.732-.731-1.372-1.918-.732-1.005-1.189-1.919-1.098-2.01zm-5.672-7.307c.092-.092.824.64 1.647 1.644.823 1.005 1.372 1.827 1.28 1.918-.091.091-.823-.64-1.646-1.644-.823-1.005-1.372-1.827-1.281-1.918zm-6.677-6.486c.092-.09.915.549 1.921 1.37.915.823 1.647 1.645 1.555 1.736-.091.091-.915-.548-1.921-1.37-1.006-.822-1.646-1.644-1.555-1.736zm-7.591-5.39c.091-.09 1.006.366 2.103 1.097 1.098.73 1.921 1.37 1.83 1.461-.092.092-1.006-.365-2.104-1.096-1.098-.73-1.921-1.37-1.829-1.461zm-8.324-4.292c.092-.092 1.007.182 2.196.73 1.189.548 2.103 1.096 2.012 1.188-.092.091-1.006-.183-2.195-.73-1.098-.458-2.013-1.006-2.013-1.188zm-8.781-2.741c0-.09 1.098 0 2.287.366 1.28.365 2.195.73 2.195.822 0 .091-1.098 0-2.287-.365-1.28-.366-2.286-.731-2.195-.823zm-9.238-1.187c0-.091 1.098-.183 2.378-.091 1.281.091 2.287.365 2.287.456 0 .092-1.098.092-2.378 0-1.281-.091-2.287-.274-2.287-.365zm-9.329.64c0-.092 1.006-.366 2.286-.549 1.281-.182 2.287-.182 2.379 0 0 .092-1.007.366-2.287.548-1.281.092-2.287.092-2.378 0zm-8.964 2.374c-.092-.09.915-.548 2.104-.913s2.286-.64 2.286-.457c0 .092-.914.548-2.103.914-1.19.365-2.196.548-2.287.456zm-8.324 4.02c-.091-.092.823-.731 1.921-1.28 1.098-.639 2.104-1.004 2.195-.913.092.092-.823.731-1.921 1.279-1.189.64-2.195 1.005-2.195.914zm-7.5 5.571c-.092-.09.64-.822 1.646-1.644 1.006-.822 1.829-1.37 1.921-1.279.091.092-.64.823-1.647 1.645-.914.822-1.829 1.37-1.92 1.278zm-6.037 7.034c-.091-.092.366-1.005 1.189-2.01.824-1.005 1.555-1.735 1.647-1.644.091.091-.549.913-1.281 1.918-.823 1.005-1.463 1.827-1.555 1.736zm-3.384 6.028c-.092-.091 0-.548.274-1.096.275-.548.641-1.005.732-.913.092.091 0 .548-.274 1.096-.275.548-.641 1.005-.732.913zm-58.173 53.894c0-.092.457-.274 1.098-.366.64-.091 1.097 0 1.189.092 0 .091-.458.274-1.098.365-.64.091-1.189.091-1.189-.091zm-9.056-1.005c0-.092 1.006.091 2.287.365 1.189.274 2.195.457 2.195.639 0 .092-1.097.092-2.287-.091-1.28-.365-2.195-.822-2.195-.913zm-8.139-4.019c.091-.092 1.006.365 2.012 1.005 1.097.639 1.921 1.187 1.921 1.278-.092.092-1.007-.274-2.104-.913-1.189-.64-1.921-1.279-1.829-1.37zm-6.861-6.12c.092-.092.823.639 1.738 1.461.915.914 1.555 1.644 1.464 1.736-.092.091-.915-.548-1.83-1.37-.823-.914-1.463-1.736-1.372-1.827zm-5.305-7.399c.091-.091.731.731 1.463 1.827.732 1.096 1.19 2.009 1.098 2.009-.092.092-.732-.73-1.464-1.827-.823-1.004-1.28-1.918-1.097-2.009zm-4.025-8.312c.092 0 .64.822 1.098 2.009.457 1.188.823 2.101.64 2.193-.091.091-.64-.823-1.098-2.01-.457-1.096-.731-2.101-.64-2.192zm-2.561-8.678c.092 0 .457.913.823 2.192.366 1.188.458 2.193.366 2.284-.091 0-.457-.914-.823-2.192-.366-1.279-.549-2.284-.366-2.284zm-1.646-9.043c.091 0 .366 1.005.548 2.192.183 1.279.275 2.284.092 2.284-.092 0-.366-1.005-.549-2.192-.183-1.279-.183-2.284-.091-2.284zm-.824-9.135c.092 0 .366 1.005.458 2.284.09 1.279.09 2.283-.092 2.283-.091 0-.274-1.004-.457-2.283-.092-1.279-.092-2.284.091-2.284zm-.457-6.85c.092 0 .275.456.275 1.096 0 .64-.092 1.187-.183 1.187-.092 0-.275-.456-.275-1.096 0-.64.092-1.187.183-1.187z" fill="#000"/><path d="M116.926 39.072L40.909 42.65l2.416 51.188 76.017-3.579-2.416-51.188z" fill="#95165B"/><path d="M43.357 93.902l-2.379-51.244 76.101-3.562 2.378 51.244-76.1 3.562zm-2.379-51.244l2.379 51.153 76.009-3.563-2.378-51.152-76.01 3.562z" fill="#000"/><path d="M117.26 39.643s-.183.274-.64.73c-.549.458-1.189 1.097-2.013 1.919-1.829 1.736-4.39 4.11-7.591 7.125-6.495 6.029-15.367 14.158-25.154 23.293l-.183.182-.274-.182c-.183-.092-.366-.274-.549-.366a5895.241 5895.241 0 01-28.08-20.46 3898.75 3898.75 0 00-8.507-6.304c-.914-.73-1.738-1.278-2.286-1.735-.55-.365-.824-.64-.732-.64.091 0 .274.183.823.549.549.365 1.372.913 2.378 1.644 2.104 1.461 5.03 3.562 8.598 6.12 7.317 5.206 17.196 12.422 28.263 20.278.183.183.366.274.55.365h-.458c9.878-9.043 18.842-17.172 25.336-23.11 3.202-2.922 5.854-5.206 7.683-6.942.915-.73 1.555-1.37 2.104-1.827.457-.456.732-.639.732-.639z" fill="#000"/><path d="M43.63 94.45c-.183-.092 5.213-7.4 12.073-16.26 6.769-8.86 12.44-15.985 12.623-15.894.183.092-5.214 7.4-12.074 16.26-6.86 8.86-12.531 15.985-12.623 15.893zm49.849-33.98c.183-.092 6.128 6.576 13.354 14.98 7.226 8.404 12.988 15.254 12.805 15.437-.182.091-6.128-6.577-13.354-14.98-7.226-8.404-12.988-15.255-12.805-15.437z" fill="#000"/><path d="M177.08 220.961c.183-1.005-.549-2.01-1.555-2.284l-2.012.183-7.317-2.558c-1.372-.365-2.745.64-2.745 2.01 0 2.101-.914 7.764-2.561 6.028l-.091-.091c-2.378-2.649-5.214-3.928-6.22-3.836-1.006.182-1.28 1.461-.549 2.192.092.091.275.274.458.274.091 0 .183.091.274.091.915.548 2.012 1.645 2.744 2.467.732.822 1.372 1.735 1.829 2.74.458 1.096.915 2.101 1.19 2.923l.091 6.668-2.927 31.331s-19.299-20.278-18.842-20.461l1.097 31.514 11.708 9.682c4.939 4.11 12.074 4.476 17.47 1.005 4.208-2.741 6.769-7.49 6.678-12.514l-.641-40.466.458-5.298 1.463-11.6zM68.692 265.445l-21.13 48.23-16.738 34.802-12.44 4.202s-9.786 2.831-9.786 4.841c0 2.009 2.56 1.553 2.56 1.553.458 3.014 4.666 1.279 7.592-.092 2.927-1.37 9.513-1.644 9.513-1.644-1.83 1.37-1.189 3.563-.183 4.293 1.006.731 2.836-.182 4.116-1.461 1.19-1.279 4.39-1.918 7.866-3.197 3.476-1.279 4.116-5.937 4.116-5.937l42.258-71.157-17.745-14.433z" fill="#FFBE9D"/><path d="M138.756 282.983l5.305 7.034 11.525-25.485s-11.159-13.611-15.275-19.365c-4.025-5.664-7.135-6.668-7.135-6.668s-7.409-2.193-11.159-2.101l-18.385 1.096-18.66 8.13c-4.572 2.009-8.505 5.297-11.25 9.408l-17.378 28.134 24.879 10.596 8.323 47.59c1.555 7.125 3.019 13.884 9.604 17.173l46.1-44.211-5.397-8.495-1.097-22.836z" fill="#95165B"/><path opacity=".3" d="M84.424 312.122c-.091-.457 5.946-31.422 5.946-31.422l-9.056 13.519" fill="#272727"/><path opacity=".2" d="M100.797 334.775c-1.463-1.187-1.097-3.745.183-5.115 1.281-1.37 3.202-2.009 5.031-2.649 8.781-2.832 17.562-6.851 23.324-13.975.823-1.005 1.555-2.01 2.561-2.741 1.006-.731 2.47-1.096 3.567-.456 1.738.913 1.83 3.471 1.098 5.297-.915 2.284-2.653 4.202-4.848 5.298m6.036-61.657l5.122 29.596-3.933-5.207-1.189-24.389z" fill="#272727"/><path d="M186.41 336.602l-8.689 29.595 36.861 10.962c.823-3.563-16.098-16.259-16.098-16.259l6.311-18.726-18.385-5.572z" fill="#95165B"/><path opacity=".6" d="M187.599 355.876c-.732 0-1.464.639-1.555 1.37-.092.731.64 1.553 1.372 1.553.732 0 1.646-.731 1.646-1.462s-.823-1.644-1.646-1.461m-9.604 10.321l1.007-2.923 34.94 11.601s1.464 1.188.915 2.284l-36.862-10.962z" fill="#fff"/><path d="M199.124 360.808c-.091.183-1.006 0-2.012.274-1.098.274-1.738.914-1.921.822-.183-.091.457-1.096 1.738-1.461 1.28-.274 2.286.183 2.195.365zm3.384 2.741c0 .182-.914.274-1.738.822-.823.548-1.28 1.37-1.463 1.279-.183 0 0-1.097 1.098-1.827 1.097-.64 2.195-.457 2.103-.274zm.824 5.298c-.183 0-.183-1.005.64-1.827.732-.822 1.738-1.005 1.738-.822.091.182-.64.548-1.281 1.278-.64.64-.914 1.371-1.097 1.371zm-3.202-12.423c-.091.182-.914-.366-1.921-.548-1.006-.274-1.92-.183-2.012-.366-.091-.182.915-.639 2.104-.274 1.28.183 1.921 1.005 1.829 1.188zm.457-4.659c0 .091-.732 0-1.829-.548-.549-.274-1.189-.639-1.738-1.187-.274-.274-.64-.548-.915-.914-.091-.183-.274-.365-.457-.639s-.092-.731.183-1.005c.274-.183.64-.274.915-.183.274.092.457.183.64.274a4.06 4.06 0 011.006.731c.64.548 1.098 1.096 1.372 1.644.64 1.005.732 1.827.64 1.827-.091 0-.366-.639-1.006-1.553a9.744 9.744 0 00-1.372-1.37c-.274-.274-.64-.457-1.006-.639-.366-.183-.732-.274-.823-.183-.092.091-.092.091 0 .183.091.091.183.274.274.456l.823.823a7.84 7.84 0 001.555 1.187c1.006.731 1.738 1.005 1.738 1.096z" fill="#272727"/><path d="M200.222 351.948c-.091 0-.274-.731 0-1.918.183-.548.366-1.279.823-1.919.183-.365.458-.639.823-1.004.366-.274.732-.731 1.464-.548.366.091.549.456.64.73.092.274 0 .548 0 .731-.091.457-.183.913-.366 1.279-.366.731-.823 1.279-1.372 1.644-1.006.731-1.829.731-1.829.639 0-.091.732-.274 1.555-1.004.366-.366.823-.914 1.098-1.553.182-.366.274-.731.274-1.096.091-.366 0-.731-.183-.731-.183-.091-.549.183-.823.457-.275.274-.549.548-.732.822-.457.639-.732 1.187-.915 1.735-.365 1.005-.365 1.736-.457 1.736z" fill="#272727"/><path d="M224.277 292.483c.915 6.851-1.372 14.524-3.841 21.009l-16.19 37.908-17.836-2.74s-3.75 4.11-8.506 5.754c-2.104.731-9.147 2.101-14.91-2.101 0 0-8.14 11.327-21.037 14.798-12.897 3.471-32.288 5.298-41.709-9.682l44.819-43.115c.915.183 38.599-25.211 58.996-30.965-.091 0 18.476-3.38 20.214 9.134z" fill="#272727"/><path d="M185.037 348.477s.092-.091.275-.183c.183-.091.457-.182.731-.365.641-.365 1.555-.822 2.836-1.462 1.189-.639 2.653-1.552 4.299-2.649 1.555-1.096 3.293-2.557 4.848-4.475 1.555-1.919 2.652-4.385 3.11-7.217.457-2.831.274-5.937-.366-9.134-.732-3.106-2.196-6.394-4.94-8.586s-6.402-3.289-10.061-3.563c-1.829-.182-3.75-.091-5.579.092-1.83.182-3.568.548-5.306.913-3.475.822-6.677 2.01-9.604 3.289-5.945 2.648-11.159 5.389-15.732 7.398-4.573 2.01-8.415 3.197-11.067 3.745-.641.183-1.281.274-1.83.366-.549.091-1.006.183-1.372.183-.366 0-.64.091-.823.091h-.274s.091 0 .274-.091c.183 0 .457-.092.823-.092.366-.091.823-.091 1.281-.183a21.187 21.187 0 001.829-.365c2.653-.639 6.494-1.827 10.976-3.836 4.482-2.01 9.696-4.842 15.641-7.491 3.018-1.278 6.22-2.557 9.696-3.379 1.737-.457 3.567-.731 5.396-.914 1.829-.182 3.75-.182 5.58-.091 3.75.274 7.5 1.461 10.335 3.654 1.372 1.096 2.561 2.557 3.385 4.11.823 1.553 1.372 3.197 1.738 4.75.731 3.197.823 6.394.365 9.317-.457 2.923-1.646 5.481-3.292 7.399a22.14 22.14 0 01-4.94 4.476 51.804 51.804 0 01-4.299 2.557c-1.189.64-2.195 1.097-2.835 1.462-.274.183-.549.274-.732.365-.274-.091-.366-.091-.366-.091zm11.16-49.783c.091.092-1.555 2.832-3.75 6.12-2.195 3.289-4.025 5.938-4.116 5.846-.092-.091 1.555-2.831 3.75-6.12 2.195-3.288 4.024-5.846 4.116-5.846z" fill="#000"/><path d="M183.3 345.462c0 .092-1.28.366-3.293.822-2.012.457-4.756 1.279-7.774 2.284-3.019 1.005-5.58 2.192-7.501 3.014-1.921.823-3.018 1.462-3.018 1.371 0 0 .274-.183.732-.457.457-.274 1.28-.731 2.195-1.188a73.58 73.58 0 017.5-3.197 85.023 85.023 0 017.775-2.192c1.006-.183 1.829-.365 2.378-.457h1.006z" fill="#000"/><path d="M157.232 196.572s5.946-1.827 13.903-10.687c7.958-8.86 11.159-20.096 12.166-20.096 1.006 0 5.488-2.466 15.549 15.803 10.061 18.268 7.043 22.927 5.305 23.018-1.738.092-13.72-2.283-21.037-.913-7.318 1.37-16.464 5.937-16.464 5.937l-9.422-13.062z" fill="url(#paint0_linear_4419_40229)"/><path d="M145.067 207.808l2.378 3.745 1.098 1.735c1.463 2.284 4.482 3.106 6.86 1.736l12.714-5.481-8.873-16.716-12.531 7.856c-2.469 1.553-3.201 4.75-1.646 7.125z" fill="#333945"/><path d="M153.024 213.562l4.757 7.856 2.012-.731 14.36 10.048 3.202-7.673s-8.232-2.832-9.97-5.572c-1.738-2.741 0-3.563 0-3.563l-4.116-4.019-10.245 3.654zm45.185-31.605c5.397 9.865 7.958 18.908 5.854 20.096-2.195 1.187-8.324-5.846-13.72-15.803-5.397-9.865-7.958-18.908-5.854-20.095 2.195-1.188 8.323 5.937 13.72 15.802z" fill="#333945"/><path d="M144.335 213.562l3.476-1.37-2.47-4.019-2.561 1.918 1.555 3.471z" fill="url(#paint1_linear_4419_40229)"/><path d="M164.732 211.187l-8.964 6.759-1.372-2.192 10.336-4.567z" fill="url(#paint2_linear_4419_40229)"/><path d="M145.341 208.173l2.47 4.019-.732.274-2.103-4.019.365-.274z" fill="url(#paint3_linear_4419_40229)"/><path d="M147.811 208.995c.092.091 1.738-.731 3.842-1.827 2.012-1.096 3.659-2.101 3.567-2.192-.091-.092-1.738.73-3.842 1.827-2.012 1.096-3.658 2.1-3.567 2.192z" fill="url(#paint4_linear_4419_40229)"/><path d="M146.53 206.62c.092.091 1.647-.639 3.476-1.735 1.83-1.097 3.293-2.01 3.202-2.193-.092-.091-1.647.64-3.476 1.736-1.83 1.096-3.293 2.101-3.202 2.192z" fill="url(#paint5_linear_4419_40229)"/><path d="M149.366 211.461c0 .091.458-.091 1.098-.365.366-.092.732-.274 1.097-.457.458-.183.824-.457 1.372-.731 1.83-1.005 3.293-2.009 3.202-2.101-.092-.091-1.555.731-3.476 1.736a21.29 21.29 0 01-1.281.731l-1.097.548c-.549.365-.915.639-.915.639z" fill="url(#paint6_linear_4419_40229)"/><path d="M188.605 180.404s5.031-3.654 8.507 3.289c3.384 6.942-2.012 8.495-2.012 8.495-2.561-3.38-4.757-7.308-6.495-11.784z" fill="url(#paint7_linear_4419_40229)"/><path d="M182.386 172.274l.274 1.371c.275.822.549 2.1 1.006 3.653.275.731.549 1.553.915 2.467l.549 1.37c.091.274.183.456.274.731.092.274.183.456.366.73.457.914.915 1.918 1.463 3.015.092.274.275.548.366.822.092.274.275.548.458.73.274.549.64 1.005.914 1.553.275.548.641 1.005.915 1.553.183.274.274.548.457.731.183.274.366.457.458.731l1.921 2.74c.182.183.274.457.457.639.183.183.366.366.457.548.275.366.64.731.915 1.097.64.73 1.189 1.37 1.646 2.009 1.098 1.188 2.013 2.01 2.653 2.649.64.64 1.006.914 1.006.914s-.274-.366-.915-1.097c-.64-.639-1.463-1.644-2.561-2.74-.457-.639-1.006-1.279-1.646-2.009-.275-.366-.549-.731-.915-1.097-.183-.182-.274-.365-.457-.548-.183-.182-.275-.456-.458-.639-.548-.822-1.189-1.736-1.829-2.74-.183-.274-.366-.457-.457-.731-.183-.274-.275-.457-.458-.731-.274-.548-.64-1.005-.914-1.553-.275-.548-.64-1.004-.915-1.553-.183-.274-.274-.456-.457-.73-.092-.274-.275-.548-.366-.731-.457-1.005-1.006-2.01-1.464-2.923-.091-.274-.274-.457-.365-.731-.092-.274-.183-.457-.275-.731l-.549-1.37c-.366-.822-.64-1.644-1.006-2.375-.457-1.461-.914-2.74-1.189-3.562-.091-1.005-.274-1.462-.274-1.462z" fill="#333945"/><path d="M168.757 213.836a1.636 1.636 0 011.097 1.918c-.365 1.553-1.006 4.019-1.555 5.481-.182.457-.365 1.005-.64 1.37-.366.365-.823.639-1.372.548-.549-.091-.914-.639-1.006-1.187-.091-.548 0-1.096.092-1.553.365-1.462.914-3.654 1.463-5.389.274-.914 1.098-1.371 1.921-1.188z" fill="#FFBE9D"/><path d="M171.227 216.394a1.636 1.636 0 011.097 1.918c-.366 1.553-1.006 4.019-1.555 5.481-.183.456-.366 1.004-.64 1.37-.366.365-.823.639-1.372.548-.549-.092-.915-.64-1.006-1.188-.092-.548 0-1.096.091-1.552.366-1.462.915-3.654 1.464-5.39.274-1.005 1.097-1.461 1.921-1.187z" fill="#FFBE9D"/><path d="M173.604 217.855c.732.183 1.098.914.915 1.644-.366 1.371-.915 3.471-1.372 4.75-.183.457-.275.822-.549 1.188a1.193 1.193 0 01-1.189.457c-.457-.092-.732-.549-.823-1.005-.092-.457 0-.914.091-1.37.275-1.279.823-3.106 1.189-4.659.275-.731 1.098-1.187 1.738-1.005z" fill="#FFBE9D"/><path d="M176.349 218.22c.732.183 1.098.914.915 1.644-.366 1.371-.915 3.472-1.372 4.75-.183.457-.275.822-.641 1.188a1.192 1.192 0 01-1.189.457c-.457-.092-.731-.548-.823-1.005-.091-.457 0-.914.092-1.37.274-1.279.823-3.197 1.28-4.659.274-.822 1.006-1.279 1.738-1.005z" fill="#FFBE9D"/><path d="M167.934 222.605c-.092 0 .182-1.37.64-2.923.457-1.553 1.006-2.832 1.097-2.74.092 0-.183 1.37-.64 2.923-.457 1.552-1.006 2.74-1.097 2.74zm5.122 2.101c-.091-.092.275-1.37.732-2.923.457-1.553.823-2.832 1.006-2.832.091 0 0 1.37-.549 3.015-.457 1.552-1.097 2.74-1.189 2.74zm-2.561-.365c-.092-.092.274-1.371.731-2.923.458-1.553.824-2.832 1.006-2.832.092 0 0 1.37-.548 3.014-.458 1.553-1.006 2.741-1.189 2.741z" fill="#EB996E"/><path d="M216.96 147.064c.092.091-3.659 5.206-8.415 11.326-4.756 6.212-8.689 11.144-8.781 11.053-.091-.091 3.659-5.207 8.415-11.327 4.757-6.12 8.69-11.144 8.781-11.052zm24.605 14.523c.092.092-7.866 3.928-17.653 8.404-9.787 4.567-17.745 8.129-17.836 8.038-.091-.091 7.866-3.928 17.653-8.404 9.787-4.567 17.745-8.129 17.836-8.038zm-3.659 30.144c0 .091-5.671-.274-12.531-1.005-6.952-.639-12.531-1.279-12.531-1.461 0-.092 5.671.274 12.531 1.005 6.951.73 12.531 1.37 12.531 1.461z" fill="#272727"/><path d="M93.662 208.63l6.22 35.258c1.097 6.12 6.86 10.231 13.079 9.409 6.495-.914 10.977-6.851 9.879-13.154l-1.006-6.029s8.689-2.374 7.774-11.052c-.457-4.202-2.012-12.788-3.567-20.552-1.738-8.678-10.153-14.433-19.025-12.971-9.147 1.553-15.183 10.23-13.354 19.091z" fill="#FFBE9D"/><path d="M126.041 187.62c-1.189-.913-3.018-.822-4.024.274.823-1.096.365-2.831-.732-3.653-1.098-.823-2.653-.914-4.025-.548-1.372.365-2.561 1.096-3.75 1.826.092-.548-.183-1.096-.64-1.461s-1.006-.457-1.555-.457c-2.287-.274-4.573.457-6.586 1.462-2.012 1.004-4.299 2.74-6.128 4.11-1.83 1.462-3.75 3.38-5.58 5.938l-.09.091c-1.281 1.187-2.38 4.658-2.196 6.303.732 6.302 2.835 9.865 3.933 15.802.091.365.183.822.457 1.096.732.731 2.013.092 2.744-.639 1.647-1.918 2.287-4.567 2.287-7.034.091-2.557-.274-5.024-.183-7.581v-.183c0-.639.092-1.279.183-1.918.091-.366 1.189-4.019 4.665-4.567 3.658-.64 10.976 2.923 14.543 2.375 3.567-.548 3.75-3.106 3.75-3.106l2.104 4.293s.823-2.558.366-5.389a6.013 6.013 0 001.829-3.106c.275-1.461-.183-3.106-1.372-3.928z" fill="#272727"/><path d="M97.138 212.466c-.183-.091-6.311-1.096-5.397 4.841.915 5.937 6.769 3.837 6.769 3.654-.092-.183-1.372-8.495-1.372-8.495z" fill="#FFBE9D"/><path d="M96.314 218.951s-.091.092-.274.183a1.147 1.147 0 01-.823.092c-.64-.183-1.372-1.097-1.555-2.101-.092-.548-.092-1.097.091-1.553.092-.457.366-.822.64-.914.275-.091.55 0 .64.183.092.183.092.274.092.274s.092-.091 0-.365c0-.092-.091-.274-.274-.366-.183-.091-.366-.091-.64-.091-.458.091-.823.548-.915 1.096-.183.548-.183 1.096-.091 1.736.183 1.187 1.006 2.192 1.92 2.375a.94.94 0 00.915-.274c.274-.183.274-.275.274-.275z" fill="#EB996E"/><defs><linearGradient id="paint0_linear_4419_40229" x1="157.232" y1="165.678" x2="200.956" y2="214.157" gradientUnits="userSpaceOnUse"><stop stop-color="#A0CA3F"/><stop offset="1" stop-color="#7B9C30"/></linearGradient><linearGradient id="paint1_linear_4419_40229" x1="142.78" y1="208.173" x2="148.157" y2="213.192" gradientUnits="userSpaceOnUse"><stop stop-color="#A0CA3F"/><stop offset="1" stop-color="#7B9C30"/></linearGradient><linearGradient id="paint2_linear_4419_40229" x1="154.396" y1="211.187" x2="160.589" y2="220.656" gradientUnits="userSpaceOnUse"><stop stop-color="#A0CA3F"/><stop offset="1" stop-color="#7B9C30"/></linearGradient><linearGradient id="paint3_linear_4419_40229" x1="144.976" y1="208.173" x2="148.924" y2="210.781" gradientUnits="userSpaceOnUse"><stop stop-color="#A0CA3F"/><stop offset="1" stop-color="#7B9C30"/></linearGradient><linearGradient id="paint4_linear_4419_40229" x1="147.808" y1="204.969" x2="151.193" y2="211.194" gradientUnits="userSpaceOnUse"><stop stop-color="#A0CA3F"/><stop offset="1" stop-color="#7B9C30"/></linearGradient><linearGradient id="paint5_linear_4419_40229" x1="146.526" y1="202.685" x2="149.977" y2="208.535" gradientUnits="userSpaceOnUse"><stop stop-color="#A0CA3F"/><stop offset="1" stop-color="#7B9C30"/></linearGradient><linearGradient id="paint6_linear_4419_40229" x1="149.366" y1="207.8" x2="152.46" y2="213.486" gradientUnits="userSpaceOnUse"><stop stop-color="#A0CA3F"/><stop offset="1" stop-color="#7B9C30"/></linearGradient><linearGradient id="paint7_linear_4419_40229" x1="188.605" y1="179.443" x2="200.862" y2="188.697" gradientUnits="userSpaceOnUse"><stop stop-color="#A0CA3F"/><stop offset="1" stop-color="#7B9C30"/></linearGradient></defs></svg>